<svg width="202" height="148" viewBox="0 0 202 148" fill="none" xmlns="http://www.w3.org/2000/svg">
<g opacity="0.5">
<g opacity="0.16" filter="url(#filter0_b_924_267)">
<path d="M77.8297 30.928H197.253L143.152 147.315H23.7285L77.8297 30.928Z" fill="white"/>
</g>
<g opacity="0.16" filter="url(#filter1_b_924_267)">
<path d="M55.8492 0H175.272L121.171 116.387H1.74805L55.8492 0Z" fill="white"/>
</g>
</g>
<g filter="url(#filter2_f_924_267)">
<path d="M26.2771 69.9626C22.9771 69.9626 20.1271 69.1626 17.7271 67.5626C15.3271 65.9293 13.4938 63.746 12.2271 61.0126C10.9938 58.2793 10.3771 55.246 10.3771 51.9126C10.3771 48.546 10.9938 45.496 12.2271 42.7626C13.4938 40.0293 15.3271 37.8626 17.7271 36.2626C20.1271 34.6626 22.9771 33.8626 26.2771 33.8626C30.3105 33.8626 33.6271 35.0126 36.2271 37.3126C38.8271 39.6126 40.5271 42.646 41.3271 46.4126H35.4272C34.8938 44.2793 33.8271 42.546 32.2271 41.2126C30.6271 39.846 28.6771 39.1626 26.3771 39.1626C23.2105 39.1626 20.8105 40.3293 19.1771 42.6626C17.5438 44.9626 16.7271 48.0293 16.7271 51.8626C16.7271 55.696 17.5438 58.7793 19.1771 61.1126C20.8438 63.446 23.2438 64.6126 26.3771 64.6126C28.5771 64.6126 30.4438 63.996 31.9771 62.7626C33.5105 61.496 34.5772 59.896 35.1772 57.9626H41.0771C40.2438 61.5293 38.5438 64.4293 35.9771 66.6626C33.4105 68.8626 30.1772 69.9626 26.2771 69.9626ZM57.9834 69.9626C55.2501 69.9626 52.9334 69.3293 51.0334 68.0626C49.1667 66.796 47.7667 65.1293 46.8334 63.0626C45.9001 60.996 45.4334 58.7293 45.4334 56.2626C45.4334 53.8293 45.9001 51.5793 46.8334 49.5126C47.7667 47.4126 49.1667 45.7293 51.0334 44.4626C52.9334 43.196 55.2501 42.5626 57.9834 42.5626C60.7167 42.5626 63.0167 43.196 64.8834 44.4626C66.7834 45.7293 68.1834 47.396 69.0834 49.4626C70.0167 51.5293 70.4834 53.7793 70.4834 56.2126C70.4834 58.646 70.0167 60.9126 69.0834 63.0126C68.1834 65.1126 66.7834 66.796 64.8834 68.0626C63.0167 69.3293 60.7167 69.9626 57.9834 69.9626ZM57.9834 64.9626C60.0834 64.9626 61.7001 64.1293 62.8334 62.4626C63.9667 60.796 64.5334 58.7126 64.5334 56.2126C64.5334 53.7126 63.9667 51.646 62.8334 50.0126C61.7001 48.346 60.0834 47.5126 57.9834 47.5126C55.8501 47.5126 54.2167 48.346 53.0834 50.0126C51.9834 51.646 51.4334 53.7126 51.4334 56.2126C51.4334 58.7126 52.0001 60.796 53.1334 62.4626C54.2667 64.1293 55.8834 64.9626 57.9834 64.9626ZM75.8756 43.1626H81.9256V47.6126H82.2756C82.4423 47.1793 82.7923 46.5793 83.3256 45.8126C83.8589 45.046 84.6923 44.3126 85.8256 43.6126C86.9589 42.8793 88.3589 42.5126 90.0256 42.5126C91.8256 42.5126 93.3256 42.9293 94.5256 43.7626C95.7256 44.596 96.5923 45.4626 97.1256 46.3626C97.6923 47.2626 98.0423 47.9293 98.1756 48.3626H98.5256C99.0589 47.1626 99.9423 45.896 101.176 44.5626C102.442 43.196 104.426 42.5126 107.126 42.5126C109.359 42.5126 111.159 43.096 112.526 44.2626C113.926 45.396 114.926 46.8126 115.526 48.5126C116.126 50.1793 116.426 51.8293 116.426 53.4626V69.5626H110.376V54.0626C110.376 51.996 109.842 50.446 108.776 49.4126C107.742 48.346 106.442 47.8126 104.876 47.8126C103.309 47.8126 101.959 48.3626 100.826 49.4626C99.7256 50.5293 99.1756 52.0626 99.1756 54.0626V69.5626H93.1256V54.0626C93.1256 51.996 92.5923 50.446 91.5256 49.4126C90.4923 48.346 89.1923 47.8126 87.6256 47.8126C86.0589 47.8126 84.7089 48.3626 83.5756 49.4626C82.4756 50.5293 81.9256 52.0626 81.9256 54.0626V69.5626H75.8756V43.1626ZM123.156 43.1626H129.206V69.5626H123.156V43.1626ZM126.106 38.5126C125.106 38.5126 124.273 38.1793 123.606 37.5126C122.94 36.8126 122.606 35.9793 122.606 35.0126C122.606 34.0126 122.94 33.1793 123.606 32.5126C124.273 31.846 125.106 31.5126 126.106 31.5126C127.106 31.5126 127.94 31.8626 128.606 32.5626C129.273 33.2293 129.606 34.046 129.606 35.0126C129.606 35.9793 129.273 36.8126 128.606 37.5126C127.94 38.1793 127.106 38.5126 126.106 38.5126ZM136.471 43.1626H142.571V47.4626H142.921C143.555 46.096 144.555 44.9293 145.921 43.9626C147.321 42.996 149.021 42.5126 151.021 42.5126C154.421 42.5126 156.871 43.6126 158.371 45.8126C159.871 48.0126 160.621 50.5626 160.621 53.4626V69.5626H154.571V54.4126C154.571 52.246 154.038 50.5793 152.971 49.4126C151.938 48.2126 150.505 47.6126 148.671 47.6126C146.705 47.6126 145.188 48.246 144.121 49.5126C143.088 50.7793 142.571 52.4126 142.571 54.4126V69.5626H136.471V43.1626ZM179.292 80.4626C177.492 80.4626 175.942 80.2126 174.642 79.7126V74.8126C174.976 74.9126 175.526 75.0126 176.292 75.1126C177.059 75.246 177.792 75.3126 178.492 75.3126C180.926 75.3126 182.676 74.6126 183.742 73.2126C184.809 71.846 185.342 70.1126 185.342 68.0126V64.1126H184.942C184.309 65.446 183.292 66.646 181.892 67.7126C180.492 68.746 178.709 69.2626 176.542 69.2626C174.376 69.2626 172.492 68.7126 170.892 67.6126C169.292 66.4793 168.059 64.9126 167.192 62.9126C166.326 60.8793 165.892 58.546 165.892 55.9126C165.892 53.246 166.326 50.896 167.192 48.8626C168.059 46.8293 169.292 45.2626 170.892 44.1626C172.492 43.0293 174.376 42.4626 176.542 42.4626C178.776 42.4626 180.592 43.0293 181.992 44.1626C183.426 45.2626 184.409 46.4793 184.942 47.8126H185.342V43.2126H191.392V68.0126C191.392 69.7793 191.059 71.596 190.392 73.4626C189.759 75.3293 188.542 76.9626 186.742 78.3626C184.942 79.7626 182.459 80.4626 179.292 80.4626ZM178.742 64.2626C180.876 64.2626 182.492 63.4293 183.592 61.7626C184.726 60.0626 185.292 58.0793 185.292 55.8126C185.292 53.5793 184.726 51.6293 183.592 49.9626C182.492 48.296 180.876 47.4626 178.742 47.4626C176.576 47.4626 174.926 48.296 173.792 49.9626C172.692 51.596 172.142 53.546 172.142 55.8126C172.142 58.1126 172.692 60.096 173.792 61.7626C174.892 63.4293 176.542 64.2626 178.742 64.2626Z" fill="white"/>
<path d="M57.0965 125.013C54.3298 125.013 51.9465 124.463 49.9465 123.363C47.9798 122.229 46.4798 120.779 45.4465 119.013C44.4465 117.213 43.9465 115.346 43.9465 113.413V113.113H50.5965V113.413C50.5965 114.346 50.8298 115.296 51.2965 116.263C51.7632 117.196 52.4798 117.996 53.4465 118.663C54.4465 119.296 55.6965 119.613 57.1965 119.613C58.9965 119.613 60.4798 119.146 61.6465 118.213C62.8132 117.279 63.3965 116.029 63.3965 114.463C63.3965 113.129 62.9298 112.063 61.9965 111.263C61.0965 110.463 59.9632 109.929 58.5965 109.663L54.0465 108.763C51.8798 108.296 49.7965 107.379 47.7965 106.013C45.8298 104.613 44.8465 102.279 44.8465 99.0126C44.8465 96.946 45.3465 95.146 46.3465 93.6126C47.3798 92.0793 48.7798 90.9126 50.5465 90.1126C52.3465 89.2793 54.4132 88.8626 56.7465 88.8626C59.3798 88.8626 61.6298 89.3793 63.4965 90.4126C65.3965 91.446 66.8298 92.7793 67.7965 94.4126C68.7632 96.046 69.2465 97.7626 69.2465 99.5626V99.7626H62.5965V99.6126C62.5965 98.8126 62.3965 97.9793 61.9965 97.1126C61.6298 96.246 60.9798 95.5126 60.0465 94.9126C59.1465 94.3126 57.9632 94.0126 56.4965 94.0126C54.7965 94.0126 53.4465 94.4793 52.4465 95.4126C51.4465 96.346 50.9465 97.5293 50.9465 98.9626C50.9465 100.263 51.3965 101.296 52.2965 102.063C53.1965 102.829 54.3632 103.363 55.7965 103.663L60.1465 104.563C62.7132 105.096 64.9465 106.113 66.8465 107.613C68.7798 109.079 69.7465 111.313 69.7465 114.313C69.7465 116.413 69.1965 118.279 68.0965 119.913C67.0298 121.513 65.5298 122.763 63.5965 123.663C61.6965 124.563 59.5298 125.013 57.0965 125.013ZM86.4746 124.963C83.7413 124.963 81.4246 124.329 79.5246 123.063C77.6579 121.796 76.2579 120.129 75.3246 118.063C74.3913 115.996 73.9246 113.729 73.9246 111.263C73.9246 108.829 74.3913 106.579 75.3246 104.513C76.2579 102.413 77.6579 100.729 79.5246 99.4626C81.4246 98.196 83.7413 97.5626 86.4746 97.5626C89.2079 97.5626 91.5079 98.196 93.3746 99.4626C95.2746 100.729 96.6746 102.396 97.5746 104.463C98.5079 106.529 98.9746 108.779 98.9746 111.213C98.9746 113.646 98.5079 115.913 97.5746 118.013C96.6746 120.113 95.2746 121.796 93.3746 123.063C91.5079 124.329 89.2079 124.963 86.4746 124.963ZM86.4746 119.963C88.5746 119.963 90.1913 119.129 91.3246 117.463C92.4579 115.796 93.0246 113.713 93.0246 111.213C93.0246 108.713 92.4579 106.646 91.3246 105.013C90.1913 103.346 88.5746 102.513 86.4746 102.513C84.3413 102.513 82.7079 103.346 81.5746 105.013C80.4746 106.646 79.9246 108.713 79.9246 111.213C79.9246 113.713 80.4913 115.796 81.6246 117.463C82.7579 119.129 84.3746 119.963 86.4746 119.963ZM115.967 124.963C113.233 124.963 110.917 124.329 109.017 123.063C107.15 121.796 105.75 120.129 104.817 118.063C103.883 115.996 103.417 113.729 103.417 111.263C103.417 108.829 103.883 106.579 104.817 104.513C105.75 102.413 107.15 100.729 109.017 99.4626C110.917 98.196 113.233 97.5626 115.967 97.5626C118.7 97.5626 121 98.196 122.867 99.4626C124.767 100.729 126.167 102.396 127.067 104.463C128 106.529 128.467 108.779 128.467 111.213C128.467 113.646 128 115.913 127.067 118.013C126.167 120.113 124.767 121.796 122.867 123.063C121 124.329 118.7 124.963 115.967 124.963ZM115.967 119.963C118.067 119.963 119.683 119.129 120.817 117.463C121.95 115.796 122.517 113.713 122.517 111.213C122.517 108.713 121.95 106.646 120.817 105.013C119.683 103.346 118.067 102.513 115.967 102.513C113.833 102.513 112.2 103.346 111.067 105.013C109.967 106.646 109.417 108.713 109.417 111.213C109.417 113.713 109.983 115.796 111.117 117.463C112.25 119.129 113.867 119.963 115.967 119.963ZM133.859 98.1626H139.959V102.463H140.309C140.942 101.096 141.942 99.9293 143.309 98.9626C144.709 97.996 146.409 97.5126 148.409 97.5126C151.809 97.5126 154.259 98.6126 155.759 100.813C157.259 103.013 158.009 105.563 158.009 108.463V124.563H151.959V109.413C151.959 107.246 151.426 105.579 150.359 104.413C149.326 103.213 147.892 102.613 146.059 102.613C144.092 102.613 142.576 103.246 141.509 104.513C140.476 105.779 139.959 107.413 139.959 109.413V124.563H133.859V98.1626Z" fill="url(#paint0_linear_924_267)"/>
</g>
<path d="M26.2771 69.9626C22.9771 69.9626 20.1271 69.1626 17.7271 67.5626C15.3271 65.9293 13.4938 63.746 12.2271 61.0126C10.9938 58.2793 10.3771 55.246 10.3771 51.9126C10.3771 48.546 10.9938 45.496 12.2271 42.7626C13.4938 40.0293 15.3271 37.8626 17.7271 36.2626C20.1271 34.6626 22.9771 33.8626 26.2771 33.8626C30.3105 33.8626 33.6271 35.0126 36.2271 37.3126C38.8271 39.6126 40.5271 42.646 41.3271 46.4126H35.4272C34.8938 44.2793 33.8271 42.546 32.2271 41.2126C30.6271 39.846 28.6771 39.1626 26.3771 39.1626C23.2105 39.1626 20.8105 40.3293 19.1771 42.6626C17.5438 44.9626 16.7271 48.0293 16.7271 51.8626C16.7271 55.696 17.5438 58.7793 19.1771 61.1126C20.8438 63.446 23.2438 64.6126 26.3771 64.6126C28.5771 64.6126 30.4438 63.996 31.9771 62.7626C33.5105 61.496 34.5772 59.896 35.1772 57.9626H41.0771C40.2438 61.5293 38.5438 64.4293 35.9771 66.6626C33.4105 68.8626 30.1772 69.9626 26.2771 69.9626ZM57.9834 69.9626C55.2501 69.9626 52.9334 69.3293 51.0334 68.0626C49.1667 66.796 47.7667 65.1293 46.8334 63.0626C45.9001 60.996 45.4334 58.7293 45.4334 56.2626C45.4334 53.8293 45.9001 51.5793 46.8334 49.5126C47.7667 47.4126 49.1667 45.7293 51.0334 44.4626C52.9334 43.196 55.2501 42.5626 57.9834 42.5626C60.7167 42.5626 63.0167 43.196 64.8834 44.4626C66.7834 45.7293 68.1834 47.396 69.0834 49.4626C70.0167 51.5293 70.4834 53.7793 70.4834 56.2126C70.4834 58.646 70.0167 60.9126 69.0834 63.0126C68.1834 65.1126 66.7834 66.796 64.8834 68.0626C63.0167 69.3293 60.7167 69.9626 57.9834 69.9626ZM57.9834 64.9626C60.0834 64.9626 61.7001 64.1293 62.8334 62.4626C63.9667 60.796 64.5334 58.7126 64.5334 56.2126C64.5334 53.7126 63.9667 51.646 62.8334 50.0126C61.7001 48.346 60.0834 47.5126 57.9834 47.5126C55.8501 47.5126 54.2167 48.346 53.0834 50.0126C51.9834 51.646 51.4334 53.7126 51.4334 56.2126C51.4334 58.7126 52.0001 60.796 53.1334 62.4626C54.2667 64.1293 55.8834 64.9626 57.9834 64.9626ZM75.8756 43.1626H81.9256V47.6126H82.2756C82.4423 47.1793 82.7923 46.5793 83.3256 45.8126C83.8589 45.046 84.6923 44.3126 85.8256 43.6126C86.9589 42.8793 88.3589 42.5126 90.0256 42.5126C91.8256 42.5126 93.3256 42.9293 94.5256 43.7626C95.7256 44.596 96.5923 45.4626 97.1256 46.3626C97.6923 47.2626 98.0423 47.9293 98.1756 48.3626H98.5256C99.0589 47.1626 99.9423 45.896 101.176 44.5626C102.442 43.196 104.426 42.5126 107.126 42.5126C109.359 42.5126 111.159 43.096 112.526 44.2626C113.926 45.396 114.926 46.8126 115.526 48.5126C116.126 50.1793 116.426 51.8293 116.426 53.4626V69.5626H110.376V54.0626C110.376 51.996 109.842 50.446 108.776 49.4126C107.742 48.346 106.442 47.8126 104.876 47.8126C103.309 47.8126 101.959 48.3626 100.826 49.4626C99.7256 50.5293 99.1756 52.0626 99.1756 54.0626V69.5626H93.1256V54.0626C93.1256 51.996 92.5923 50.446 91.5256 49.4126C90.4923 48.346 89.1923 47.8126 87.6256 47.8126C86.0589 47.8126 84.7089 48.3626 83.5756 49.4626C82.4756 50.5293 81.9256 52.0626 81.9256 54.0626V69.5626H75.8756V43.1626ZM123.156 43.1626H129.206V69.5626H123.156V43.1626ZM126.106 38.5126C125.106 38.5126 124.273 38.1793 123.606 37.5126C122.94 36.8126 122.606 35.9793 122.606 35.0126C122.606 34.0126 122.94 33.1793 123.606 32.5126C124.273 31.846 125.106 31.5126 126.106 31.5126C127.106 31.5126 127.94 31.8626 128.606 32.5626C129.273 33.2293 129.606 34.046 129.606 35.0126C129.606 35.9793 129.273 36.8126 128.606 37.5126C127.94 38.1793 127.106 38.5126 126.106 38.5126ZM136.471 43.1626H142.571V47.4626H142.921C143.555 46.096 144.555 44.9293 145.921 43.9626C147.321 42.996 149.021 42.5126 151.021 42.5126C154.421 42.5126 156.871 43.6126 158.371 45.8126C159.871 48.0126 160.621 50.5626 160.621 53.4626V69.5626H154.571V54.4126C154.571 52.246 154.038 50.5793 152.971 49.4126C151.938 48.2126 150.505 47.6126 148.671 47.6126C146.705 47.6126 145.188 48.246 144.121 49.5126C143.088 50.7793 142.571 52.4126 142.571 54.4126V69.5626H136.471V43.1626ZM179.292 80.4626C177.492 80.4626 175.942 80.2126 174.642 79.7126V74.8126C174.976 74.9126 175.526 75.0126 176.292 75.1126C177.059 75.246 177.792 75.3126 178.492 75.3126C180.926 75.3126 182.676 74.6126 183.742 73.2126C184.809 71.846 185.342 70.1126 185.342 68.0126V64.1126H184.942C184.309 65.446 183.292 66.646 181.892 67.7126C180.492 68.746 178.709 69.2626 176.542 69.2626C174.376 69.2626 172.492 68.7126 170.892 67.6126C169.292 66.4793 168.059 64.9126 167.192 62.9126C166.326 60.8793 165.892 58.546 165.892 55.9126C165.892 53.246 166.326 50.896 167.192 48.8626C168.059 46.8293 169.292 45.2626 170.892 44.1626C172.492 43.0293 174.376 42.4626 176.542 42.4626C178.776 42.4626 180.592 43.0293 181.992 44.1626C183.426 45.2626 184.409 46.4793 184.942 47.8126H185.342V43.2126H191.392V68.0126C191.392 69.7793 191.059 71.596 190.392 73.4626C189.759 75.3293 188.542 76.9626 186.742 78.3626C184.942 79.7626 182.459 80.4626 179.292 80.4626ZM178.742 64.2626C180.876 64.2626 182.492 63.4293 183.592 61.7626C184.726 60.0626 185.292 58.0793 185.292 55.8126C185.292 53.5793 184.726 51.6293 183.592 49.9626C182.492 48.296 180.876 47.4626 178.742 47.4626C176.576 47.4626 174.926 48.296 173.792 49.9626C172.692 51.596 172.142 53.546 172.142 55.8126C172.142 58.1126 172.692 60.096 173.792 61.7626C174.892 63.4293 176.542 64.2626 178.742 64.2626Z" fill="white"/>
<path d="M57.3662 125.013C54.5662 125.013 52.1495 124.463 50.1162 123.363C48.1162 122.229 46.5995 120.779 45.5662 119.013C44.5329 117.246 44.0162 115.379 44.0162 113.413V113.113H51.6162V113.413C51.6162 114.246 51.8162 115.096 52.2162 115.963C52.6495 116.796 53.2995 117.496 54.1662 118.063C55.0662 118.629 56.1662 118.913 57.4662 118.913C59.0995 118.913 60.4162 118.496 61.4162 117.663C62.4495 116.829 62.9662 115.713 62.9662 114.313C62.9662 113.113 62.5329 112.163 61.6662 111.463C60.8329 110.729 59.7995 110.246 58.5662 110.013L54.3162 109.113C52.1162 108.679 49.9995 107.746 47.9662 106.313C45.9329 104.846 44.9162 102.463 44.9162 99.1626C44.9162 97.0293 45.4329 95.196 46.4662 93.6626C47.4995 92.096 48.9329 90.9126 50.7662 90.1126C52.5995 89.2793 54.6829 88.8626 57.0162 88.8626C59.6829 88.8626 61.9662 89.3793 63.8662 90.4126C65.7995 91.446 67.2495 92.7793 68.2162 94.4126C69.2162 96.046 69.7162 97.7793 69.7162 99.6126V99.8126H62.1162V99.6626C62.1162 98.4626 61.6829 97.346 60.8162 96.3126C59.9829 95.246 58.6329 94.7126 56.7662 94.7126C55.2329 94.7126 54.0329 95.1293 53.1662 95.9626C52.2995 96.7626 51.8662 97.796 51.8662 99.0626C51.8662 100.263 52.2995 101.213 53.1662 101.913C54.0662 102.613 55.1662 103.096 56.4662 103.363L60.6662 104.263C63.2329 104.829 65.4662 105.879 67.3662 107.413C69.2662 108.946 70.2162 111.196 70.2162 114.163C70.2162 116.296 69.6662 118.196 68.5662 119.863C67.4662 121.496 65.9329 122.763 63.9662 123.663C62.0329 124.563 59.8329 125.013 57.3662 125.013ZM86.692 124.963C83.9253 124.963 81.592 124.346 79.692 123.113C77.8253 121.846 76.4253 120.179 75.492 118.113C74.5587 116.046 74.092 113.779 74.092 111.313C74.092 108.846 74.542 106.579 75.442 104.513C76.3753 102.413 77.792 100.729 79.692 99.4626C81.592 98.196 83.9253 97.5626 86.692 97.5626C89.4587 97.5626 91.792 98.196 93.692 99.4626C95.592 100.696 97.0087 102.346 97.942 104.413C98.8753 106.479 99.342 108.746 99.342 111.213C99.342 113.679 98.8753 115.963 97.942 118.063C97.0087 120.129 95.592 121.796 93.692 123.063C91.792 124.329 89.4587 124.963 86.692 124.963ZM86.692 119.363C88.6253 119.363 90.0753 118.596 91.042 117.063C92.042 115.496 92.542 113.546 92.542 111.213C92.542 108.879 92.042 106.963 91.042 105.463C90.0753 103.929 88.6253 103.163 86.692 103.163C84.7587 103.163 83.3087 103.929 82.342 105.463C81.3753 106.963 80.892 108.879 80.892 111.213C80.892 113.546 81.3753 115.496 82.342 117.063C83.342 118.596 84.792 119.363 86.692 119.363ZM116.038 124.963C113.271 124.963 110.938 124.346 109.038 123.113C107.171 121.846 105.771 120.179 104.838 118.113C103.904 116.046 103.438 113.779 103.438 111.313C103.438 108.846 103.888 106.579 104.788 104.513C105.721 102.413 107.138 100.729 109.038 99.4626C110.938 98.196 113.271 97.5626 116.038 97.5626C118.804 97.5626 121.138 98.196 123.038 99.4626C124.938 100.696 126.354 102.346 127.288 104.413C128.221 106.479 128.688 108.746 128.688 111.213C128.688 113.679 128.221 115.963 127.288 118.063C126.354 120.129 124.938 121.796 123.038 123.063C121.138 124.329 118.804 124.963 116.038 124.963ZM116.038 119.363C117.971 119.363 119.421 118.596 120.388 117.063C121.388 115.496 121.888 113.546 121.888 111.213C121.888 108.879 121.388 106.963 120.388 105.463C119.421 103.929 117.971 103.163 116.038 103.163C114.104 103.163 112.654 103.929 111.688 105.463C110.721 106.963 110.238 108.879 110.238 111.213C110.238 113.546 110.721 115.496 111.688 117.063C112.688 118.596 114.138 119.363 116.038 119.363ZM133.583 98.1626H140.583V102.213H140.933C141.533 100.913 142.5 99.8126 143.833 98.9126C145.167 97.9793 146.783 97.5126 148.683 97.5126C152.117 97.5126 154.533 98.6126 155.933 100.813C157.367 103.013 158.083 105.513 158.083 108.313V124.563H151.183V109.463C151.183 107.529 150.717 106.013 149.783 104.913C148.883 103.813 147.6 103.263 145.933 103.263C144.167 103.263 142.833 103.846 141.933 105.013C141.033 106.146 140.583 107.629 140.583 109.463V124.563H133.583V98.1626Z" fill="url(#paint1_linear_924_267)"/>
<defs>
<filter id="filter0_b_924_267" x="-6.27148" y="0.927979" width="233.523" height="176.387" filterUnits="userSpaceOnUse" color-interpolation-filters="sRGB">
<feFlood flood-opacity="0" result="BackgroundImageFix"/>
<feGaussianBlur in="BackgroundImageFix" stdDeviation="15"/>
<feComposite in2="SourceAlpha" operator="in" result="effect1_backgroundBlur_924_267"/>
<feBlend mode="normal" in="SourceGraphic" in2="effect1_backgroundBlur_924_267" result="shape"/>
</filter>
<filter id="filter1_b_924_267" x="-28.252" y="-30" width="233.523" height="176.387" filterUnits="userSpaceOnUse" color-interpolation-filters="sRGB">
<feFlood flood-opacity="0" result="BackgroundImageFix"/>
<feGaussianBlur in="BackgroundImageFix" stdDeviation="15"/>
<feComposite in2="SourceAlpha" operator="in" result="effect1_backgroundBlur_924_267"/>
<feBlend mode="normal" in="SourceGraphic" in2="effect1_backgroundBlur_924_267" result="shape"/>
</filter>
<filter id="filter2_f_924_267" x="0.376953" y="21.5126" width="201.016" height="113.5" filterUnits="userSpaceOnUse" color-interpolation-filters="sRGB">
<feFlood flood-opacity="0" result="BackgroundImageFix"/>
<feBlend mode="normal" in="SourceGraphic" in2="BackgroundImageFix" result="shape"/>
<feGaussianBlur stdDeviation="5" result="effect1_foregroundBlur_924_267"/>
</filter>
<linearGradient id="paint0_linear_924_267" x1="7.81445" y1="83.3771" x2="194.804" y2="81.4919" gradientUnits="userSpaceOnUse">
<stop stop-color="#81ECC5"/>
<stop offset="0.5" stop-color="#94CBFF"/>
<stop offset="0.963542" stop-color="#8596FF"/>
</linearGradient>
<linearGradient id="paint1_linear_924_267" x1="7.81445" y1="83.3771" x2="194.804" y2="81.4919" gradientUnits="userSpaceOnUse">
<stop stop-color="#81ECC5"/>
<stop offset="0.5" stop-color="#94CBFF"/>
<stop offset="0.963542" stop-color="#8596FF"/>
</linearGradient>
</defs>
</svg>
