<svg width="35" height="35" viewBox="0 0 35 35" fill="none" xmlns="http://www.w3.org/2000/svg">
<path d="M15.05 20.65L11.2437 16.8438C10.9229 16.5229 10.5292 16.3625 10.0625 16.3625C9.59583 16.3625 9.1875 16.5375 8.8375 16.8875C8.51667 17.2083 8.35625 17.6167 8.35625 18.1125C8.35625 18.6083 8.51667 19.0167 8.8375 19.3375L13.825 24.325C14.1458 24.6458 14.5542 24.8062 15.05 24.8062C15.5458 24.8062 15.9542 24.6458 16.275 24.325L26.2062 14.3937C26.5271 14.0729 26.6875 13.6792 26.6875 13.2125C26.6875 12.7458 26.5125 12.3375 26.1625 11.9875C25.8417 11.6667 25.4333 11.5062 24.9375 11.5062C24.4417 11.5062 24.0333 11.6667 23.7125 11.9875L15.05 20.65ZM17.5 35C15.0792 35 12.8042 34.5403 10.675 33.621C8.54583 32.7028 6.69375 31.4563 5.11875 29.8813C3.54375 28.3063 2.29717 26.4542 1.379 24.325C0.459667 22.1958 0 19.9208 0 17.5C0 15.0792 0.459667 12.8042 1.379 10.675C2.29717 8.54583 3.54375 6.69375 5.11875 5.11875C6.69375 3.54375 8.54583 2.29658 10.675 1.37725C12.8042 0.459083 15.0792 0 17.5 0C19.9208 0 22.1958 0.459083 24.325 1.37725C26.4542 2.29658 28.3063 3.54375 29.8813 5.11875C31.4563 6.69375 32.7028 8.54583 33.621 10.675C34.5403 12.8042 35 15.0792 35 17.5C35 19.9208 34.5403 22.1958 33.621 24.325C32.7028 26.4542 31.4563 28.3063 29.8813 29.8813C28.3063 31.4563 26.4542 32.7028 24.325 33.621C22.1958 34.5403 19.9208 35 17.5 35Z" fill="#42EECF"/>
</svg>
