<svg width="20" height="21" viewBox="0 0 20 21" fill="none" xmlns="http://www.w3.org/2000/svg">
<path d="M20 1.51375V16.5138C20 16.7348 19.9122 16.9467 19.7559 17.103C19.5996 17.2593 19.3877 17.3471 19.1667 17.3471C18.9457 17.3471 18.7337 17.2593 18.5774 17.103C18.4211 16.9467 18.3333 16.7348 18.3333 16.5138V2.34709H4.16667C3.94565 2.34709 3.73369 2.25929 3.57741 2.10301C3.42113 1.94673 3.33333 1.73477 3.33333 1.51375C3.33333 1.29274 3.42113 1.08078 3.57741 0.924498C3.73369 0.768217 3.94565 0.68042 4.16667 0.68042H19.1667C19.3877 0.68042 19.5996 0.768217 19.7559 0.924498C19.9122 1.08078 20 1.29274 20 1.51375ZM16.6667 4.84709V19.8471C16.6667 20.0681 16.5789 20.2801 16.4226 20.4363C16.2663 20.5926 16.0543 20.6804 15.8333 20.6804H0.833333C0.61232 20.6804 0.400358 20.5926 0.244078 20.4363C0.0877975 20.2801 0 20.0681 0 19.8471V4.84709C0 4.62607 0.0877975 4.41411 0.244078 4.25783C0.400358 4.10155 0.61232 4.01375 0.833333 4.01375H15.8333C16.0543 4.01375 16.2663 4.10155 16.4226 4.25783C16.5789 4.41411 16.6667 4.62607 16.6667 4.84709ZM15 5.68042H1.66667V19.0138H15V5.68042Z" fill="white"/>
</svg>
