<svg width="21" height="21" viewBox="0 0 21 21" fill="none" xmlns="http://www.w3.org/2000/svg">
<path d="M20.0892 10.7684H19.7195V9.06512C19.7195 7.39729 18.3627 6.04023 16.6946 6.04023H16.1829L14.6752 2.3635C14.6253 2.24181 14.5274 2.14622 14.4045 2.0996C14.2817 2.05274 14.1451 2.0588 14.0269 2.11638L12.7055 2.76053L10.2273 0.148279C10.1368 0.0529281 10.0114 -0.00069264 9.87944 6.75715e-06C9.74796 0.000706154 9.62277 0.0559585 9.53348 0.152242L4.07725 6.04046H3.02489C1.35706 6.04046 0 7.39729 0 9.06535V17.9572C0 19.6251 1.35683 20.9821 3.02489 20.9821H16.6946C18.3624 20.9821 19.7195 19.6253 19.7195 17.9572V16.254H20.0892C20.4044 16.254 20.6599 15.9985 20.6599 15.6833V11.3391C20.6599 11.0239 20.4044 10.7684 20.0892 10.7684ZM15.8938 15.1123C15.0865 15.1123 14.4297 14.3941 14.4297 13.511C14.4297 12.6281 15.0865 11.9096 15.8938 11.9096H19.5185V15.1121H15.8938V15.1123ZM15.1548 6.04046H8.14727L13.9877 3.19392L15.1548 6.04046ZM9.88597 1.1708L11.8086 3.19742L5.97611 6.04046H5.37393L9.88597 1.1708ZM18.5778 17.957C18.5778 18.9954 17.733 19.8405 16.6946 19.8405H3.02489C1.98652 19.8405 1.14165 18.9956 1.14165 17.957V9.06512C1.14165 8.02675 1.98652 7.18165 3.02489 7.18165H16.6946C17.733 7.18165 18.5778 8.02652 18.5778 9.06512V10.7684H15.8938C14.4572 10.7684 13.2883 11.9989 13.2883 13.5112C13.2883 15.0235 14.457 16.254 15.8938 16.254H18.5778V17.957Z" fill="#14E3BE"/>
<path d="M16.1345 12.4346C15.5407 12.4346 15.0576 12.9176 15.0576 13.5114C15.0576 14.1052 15.5407 14.5882 16.1345 14.5882C16.7282 14.5882 17.2113 14.1052 17.2113 13.5114C17.2113 12.9176 16.7282 12.4346 16.1345 12.4346ZM16.1345 14.0173C15.8554 14.0173 15.6283 13.7902 15.6283 13.5112C15.6283 13.2321 15.8554 13.005 16.1345 13.005C16.4135 13.005 16.6406 13.2321 16.6406 13.5112C16.6406 13.7905 16.4135 14.0173 16.1345 14.0173Z" fill="#14E3BE"/>
</svg>
