<svg xmlns="http://www.w3.org/2000/svg" width="114" height="26" viewBox="0 0 114 26" fill="none">
<path d="M1.52062 7.35305V18.6468L0 19.5016V6.49829L1.52062 7.35305Z" fill="white"/>
<path d="M23.1403 6.49835L21.6197 7.35311L11.5684 1.70953V0L23.1403 6.49835Z" fill="white"/>
<path d="M23.1403 19.5015L11.5684 25.9999V24.2904L21.6197 18.6467L23.1403 19.5015Z" fill="white"/>
<g opacity="0.3">
<path opacity="0.3" d="M11.5678 24.2904V25.9999L0 19.5015L1.52062 18.6467L11.5678 24.2904Z" fill="white"/>
</g>
<g opacity="0.3">
<path opacity="0.3" d="M23.1398 6.49829V19.5016L21.6191 18.6468V7.35305L23.1398 6.49829Z" fill="white"/>
</g>
<g opacity="0.3">
<path opacity="0.3" d="M11.5678 0V1.70953L1.52062 7.35311L0 6.49835L11.5678 0Z" fill="white"/>
</g>
<path fill-rule="evenodd" clip-rule="evenodd" d="M11.5654 7.18286L15.5496 8.35341C15.6071 8.37742 15.6535 8.42116 15.6799 8.4763C15.7064 8.53144 15.7111 8.59412 15.6932 8.65241C15.6752 8.71071 15.6359 8.76055 15.5827 8.79244C15.5294 8.82433 15.4659 8.83612 15.4044 8.82546L11.5654 7.69704L7.73753 8.82546C7.67584 8.83647 7.61213 8.82503 7.55859 8.79322C7.50505 8.76141 7.46544 8.71149 7.44735 8.65305C7.42926 8.59462 7.43396 8.53173 7.46053 8.47644C7.48712 8.42115 7.53372 8.37734 7.59141 8.35341L11.5654 7.18286Z" fill="white"/>
<path fill-rule="evenodd" clip-rule="evenodd" d="M17.3111 9.0419C17.302 8.98938 17.276 8.94093 17.2369 8.90358C17.1978 8.86623 17.1476 8.84179 17.0935 8.83373C17.0393 8.82567 16.9839 8.83442 16.9352 8.85877C16.8864 8.88304 16.8468 8.92169 16.8218 8.9691L14.5129 13.3504H8.62664L6.32023 8.9691C6.29616 8.92455 6.2592 8.8878 6.21391 8.86336C6.16862 8.83901 6.11699 8.82809 6.06537 8.8319C6.00754 8.83641 5.95287 8.85947 5.90996 8.89743C5.86706 8.93547 5.83835 8.98626 5.82836 9.0419C5.61881 10.4598 5.69499 11.9038 6.05264 13.2934C6.61925 15.4857 8.04898 18.0277 11.4547 19.6437L11.566 19.6958L11.6763 19.6437C15.0795 18.0277 16.5186 15.4857 17.0801 13.2958C17.4406 11.906 17.5191 10.461 17.3111 9.0419ZM6.5445 13.1752C6.27405 12.1049 6.1718 11.0009 6.24123 9.90077L8.24776 13.7075L10.9662 18.837C8.22823 17.2985 7.03892 15.0971 6.5445 13.1752ZM11.566 18.8865L8.88914 13.8439H14.2521L11.566 18.8865ZM16.5908 13.1752C16.0929 15.0947 14.9003 17.296 12.164 18.8353L14.8935 13.71L16.8991 9.90735C16.9662 11.0056 16.8623 12.1073 16.5908 13.1752Z" fill="white"/>
<path fill-rule="evenodd" clip-rule="evenodd" d="M31.1058 14.0109C31.2599 14.1653 31.445 14.2873 31.6496 14.3692C31.8542 14.4511 32.0739 14.4913 32.2951 14.487H40.6593V13.3851H32.2959C32.1503 13.3868 32.0096 13.3335 31.9035 13.2363C31.8037 13.1328 31.7484 12.9963 31.7489 12.8544V6.31968C31.7476 6.25136 31.7607 6.18351 31.7873 6.12027C31.8138 6.05702 31.8534 5.99971 31.9035 5.95181C31.9538 5.89964 32.0146 5.85806 32.0821 5.82962C32.1496 5.80118 32.2223 5.7865 32.2959 5.78649H40.6602V4.68703H32.2959C32.0752 4.68594 31.8565 4.72741 31.6523 4.80905C31.4481 4.89069 31.2626 5.01088 31.1065 5.16269C30.9503 5.31448 30.8266 5.49489 30.7425 5.69348C30.6584 5.89205 30.6156 6.10489 30.6165 6.31968V12.8544C30.6126 13.0696 30.6541 13.2832 30.7383 13.4823C30.8224 13.6813 30.9475 13.8615 31.1058 14.0117V14.0109ZM47.1402 4.68703V14.4879H56.3319V13.3851H48.2743V10.1454H54.7502V9.03195H48.2743V5.79144H56.3319V4.68703H47.1402ZM62.8018 14.4879V4.69943H71.1966C71.6405 4.70437 72.0647 4.87814 72.3786 5.18356C72.6924 5.48899 72.871 5.90182 72.8761 6.33373V9.20555C72.8784 9.42048 72.8363 9.63377 72.7523 9.83258C72.6682 10.0314 72.5439 10.2117 72.3868 10.3629C72.2322 10.5168 72.0471 10.6384 71.8426 10.7203C71.6381 10.8021 71.4186 10.8426 71.1975 10.839H69.6565L72.8184 14.4763V14.4879H71.3207L68.1775 10.8407L63.9384 10.8266V14.4879H62.8018ZM64.4812 9.72468H71.1966C71.2666 9.72607 71.3362 9.71341 71.4009 9.68759C71.4657 9.66167 71.5242 9.62311 71.573 9.57423C71.6234 9.52656 71.6632 9.46936 71.6898 9.40601C71.7164 9.34274 71.7292 9.27471 71.7276 9.20633V6.33373C71.7292 6.26535 71.7164 6.19737 71.6898 6.13407C71.6632 6.07076 71.6234 6.0135 71.573 5.96587C71.5263 5.91337 71.4685 5.87139 71.4035 5.84284C71.3385 5.81429 71.268 5.79985 71.1966 5.80053H64.4812C64.4077 5.80089 64.3351 5.81573 64.2676 5.84414C64.2002 5.87256 64.1394 5.91396 64.0888 5.96587C64.0389 6.01385 63.9997 6.07121 63.9734 6.13446C63.9471 6.19772 63.9343 6.26552 63.9359 6.33373V9.20555C63.9339 9.27375 63.9466 9.3417 63.9729 9.40497C63.9992 9.46832 64.0387 9.52561 64.0888 9.57336C64.1952 9.67043 64.3355 9.72425 64.4812 9.72381V9.72468ZM83.3251 5.78896V14.4879H84.4592V5.78896H88.9225V4.68703H78.8507V5.78896H83.3251ZM94.9051 4.68703H96.0523V14.4879H94.9051V4.68703ZM102.961 4.68703V14.4879H104.107V10.1454H107.353L111.104 14.4879H112.572V14.4755L108.348 9.58827L112.558 4.70026V4.68786H111.104L107.353 9.03195H104.108V4.68703H102.961Z" fill="white"/>
<path d="M96.0742 14.5095H94.8852V4.66652H96.0742V14.5095ZM94.9271 14.4682H96.0314V4.70786H94.9271V14.4682ZM112.597 14.5079H111.098L111.091 14.5004L107.347 10.1663H104.129V14.5079H102.94V4.67065H104.129V9.01312H107.343L111.094 4.67065H112.578V4.71116L112.573 4.71695L108.375 9.59422L112.593 14.4715L112.597 14.5079ZM111.117 14.4665H112.541L108.324 9.58928L108.335 9.57602L112.527 4.70951H111.117L107.366 9.0503H104.087V4.70786H102.983V14.4665H104.087V10.125H107.366L107.372 10.1323L111.117 14.4665ZM84.4851 14.5079H83.3077V5.80814H78.8334V4.66652H88.9485V5.80814H84.4851V14.5079ZM83.3502 14.4665H84.4426V5.76846H88.906V4.70786H78.8716V5.76846H83.3459L83.3502 14.4665ZM72.8435 14.5079H71.3144L71.3076 14.5004L68.1644 10.8631L63.9559 10.8507V14.512H62.7802V4.67892H71.1963C71.6455 4.68323 72.0751 4.8588 72.3927 5.16793C72.7104 5.47705 72.8909 5.89508 72.8953 6.33224V9.20569C72.8973 9.42331 72.8545 9.6392 72.7695 9.84053C72.6844 10.0419 72.5587 10.2245 72.4 10.3779C72.2436 10.5337 72.0562 10.6568 71.8492 10.7398C71.6422 10.8228 71.4201 10.8639 71.1963 10.8607H69.702L72.8392 14.4674L72.8435 14.5079ZM71.3348 14.4665H72.7874L69.6145 10.8193H71.2005C71.4173 10.8214 71.6323 10.7808 71.8326 10.7C72.0329 10.6191 72.2143 10.4997 72.366 10.349C72.5208 10.1993 72.6434 10.0211 72.7264 9.82484C72.8094 9.62845 72.8512 9.41803 72.8494 9.20569V6.33389C72.8454 5.90741 72.6697 5.49947 72.36 5.19774C72.0502 4.89601 71.6312 4.72457 71.1929 4.72025H62.8227V14.4665H63.9143V10.8053L68.1848 10.8193L68.1907 10.8268L71.3348 14.4665ZM56.357 14.5079H47.1187V4.67065H56.3529V5.80814H48.2952V9.00731H54.771V10.1646H48.2952V13.3629H56.3529L56.357 14.5079ZM47.1653 14.4665H56.3104V13.4059H48.2528V10.125H54.7285V9.0503H48.2528V5.76846H56.3104V4.70786H47.1612L47.1653 14.4665ZM40.6853 14.5079H32.2956C32.0716 14.5115 31.8491 14.4707 31.6418 14.3878C31.4345 14.305 31.2469 14.1818 31.0901 14.0259C30.9303 13.8735 30.804 13.6911 30.7189 13.4897C30.6337 13.2884 30.5915 13.0722 30.5949 12.8545V6.31983C30.5938 6.10245 30.6371 5.88701 30.7221 5.68598C30.8072 5.48495 30.9323 5.30229 31.0903 5.14857C31.2482 4.99485 31.4359 4.87311 31.6425 4.79037C31.8491 4.70764 32.0705 4.66554 32.2939 4.66652H40.6794V5.80814H32.2956C32.225 5.80795 32.1552 5.82179 32.0904 5.8488C32.0255 5.87581 31.967 5.91541 31.9184 5.9652C31.8702 6.01107 31.8322 6.06604 31.8066 6.12674C31.7811 6.18744 31.7685 6.25259 31.7697 6.31819V12.8529C31.7677 12.9206 31.78 12.9879 31.8057 13.0507C31.8315 13.1137 31.8701 13.1707 31.9194 13.2185C31.9687 13.2663 32.0275 13.3037 32.0921 13.3286C32.1568 13.3534 32.2261 13.3651 32.2956 13.3629H40.6794L40.6853 14.5079ZM31.1249 13.997C31.2777 14.1489 31.4606 14.2688 31.6627 14.3496C31.8647 14.4304 32.0815 14.4702 32.2998 14.4665H40.6429V13.4059H32.2956C32.1446 13.4073 31.9988 13.3519 31.8886 13.2514C31.7849 13.1439 31.7272 13.002 31.7273 12.8545V6.31983C31.7259 6.24883 31.7395 6.1783 31.7673 6.11261C31.7951 6.04693 31.8364 5.98748 31.8886 5.93792C31.9414 5.88488 32.0047 5.84285 32.0746 5.81443C32.1446 5.78599 32.2198 5.77176 32.2956 5.77259H40.6386V4.70786H32.2956C32.0777 4.70687 31.8617 4.74788 31.6602 4.82853C31.4586 4.90917 31.2755 5.02784 31.1214 5.1777C30.9672 5.32756 30.8451 5.50564 30.762 5.70167C30.6789 5.8977 30.6366 6.1078 30.6373 6.31983V12.8545C30.6341 13.067 30.6753 13.2777 30.7583 13.4741C30.8414 13.6705 30.9647 13.8484 31.1207 13.997H31.1249ZM71.2005 9.74467H64.4809C64.3301 9.74459 64.1849 9.68877 64.0748 9.58841C64.0226 9.53875 63.9813 9.47913 63.9537 9.41326C63.9261 9.34748 63.9127 9.27676 63.9143 9.20569V6.33389C63.9127 6.263 63.9261 6.19255 63.9536 6.12687C63.9811 6.06119 64.022 6.00167 64.074 5.95198C64.1265 5.89842 64.1896 5.85578 64.2596 5.82665C64.3296 5.79752 64.4048 5.7825 64.4809 5.78251H71.1963C71.2703 5.78139 71.3437 5.79598 71.4113 5.82524C71.479 5.8545 71.5392 5.89775 71.5879 5.95198C71.6402 6.00142 71.6816 6.06087 71.7092 6.1266C71.7369 6.19232 71.7502 6.2629 71.7485 6.33389V9.20569C71.749 9.2765 71.7351 9.3467 71.7076 9.41222C71.6801 9.47774 71.6394 9.53728 71.5881 9.58746C71.5368 9.63755 71.4757 9.67733 71.4084 9.70429C71.3411 9.73124 71.269 9.74502 71.1963 9.74467H71.2005ZM64.4851 5.82384C64.4147 5.824 64.345 5.83798 64.2801 5.86497C64.2153 5.89196 64.1568 5.93139 64.108 5.98091C64.06 6.02691 64.0224 6.08195 63.9971 6.14264C63.9718 6.20334 63.9595 6.26841 63.961 6.33389V9.20569C63.9595 9.27121 63.9717 9.3363 63.997 9.39697C64.0223 9.45763 64.06 9.51267 64.108 9.55869C64.2101 9.65194 64.3451 9.70377 64.4851 9.70333H71.2005C71.2677 9.70437 71.3343 9.69207 71.3964 9.66719C71.4585 9.64232 71.5147 9.6054 71.5616 9.55869C71.6103 9.51319 71.6487 9.45833 71.6744 9.39749C71.6999 9.33673 71.7121 9.27139 71.7102 9.20569V6.33389C71.7119 6.26824 71.6997 6.20296 71.674 6.14219C71.6484 6.08142 71.6101 6.0265 71.5616 5.98091C71.5166 5.93089 71.4611 5.89095 71.3987 5.86384C71.3365 5.83672 71.2688 5.82308 71.2005 5.82384H64.4851Z" fill="white"/>
<path d="M33.9607 20.6307H33.5852V20.5041C33.5844 20.4579 33.5651 20.4138 33.5315 20.3812C33.4979 20.3485 33.4527 20.3298 33.4051 20.3289H31.1837C31.1361 20.3298 31.0909 20.3485 31.0573 20.3812C31.0237 20.4138 31.0044 20.4579 31.0035 20.5041V21.2291C31.0044 21.275 31.0238 21.3186 31.0576 21.3506C31.0913 21.3827 31.1366 21.4004 31.1837 21.4003H33.4051C33.4781 21.4001 33.5504 21.4141 33.6179 21.4412C33.6853 21.4683 33.7466 21.5082 33.7982 21.5584C33.8499 21.6086 33.8908 21.6682 33.9186 21.7339C33.9465 21.7995 33.9608 21.8698 33.9607 21.9409V22.6659C33.9613 22.737 33.9473 22.8076 33.9196 22.8734C33.8918 22.9392 33.8509 22.9991 33.7992 23.0494C33.7475 23.0997 33.6861 23.1395 33.6184 23.1665C33.5507 23.1934 33.4782 23.207 33.4051 23.2065H31.1837C31.1106 23.207 31.0381 23.1934 30.9705 23.1665C30.9029 23.1395 30.8415 23.0996 30.7899 23.0494C30.7382 22.999 30.6974 22.9392 30.6697 22.8733C30.6421 22.8075 30.6282 22.7369 30.6289 22.6659V22.5394H31.0035V22.6659C31.0044 22.7121 31.0237 22.7562 31.0573 22.7889C31.0909 22.8215 31.1361 22.8402 31.1837 22.8411H33.4051C33.4527 22.8402 33.4979 22.8215 33.5315 22.7889C33.5651 22.7562 33.5844 22.7121 33.5852 22.6659V21.9409C33.5841 21.8951 33.5646 21.8516 33.531 21.8197C33.4974 21.7877 33.4521 21.7697 33.4051 21.7697H31.1837C31.1107 21.77 31.0384 21.7561 30.9709 21.7291C30.9034 21.702 30.8421 21.6621 30.7906 21.6118C30.739 21.5616 30.6982 21.5019 30.6704 21.4362C30.6427 21.3705 30.6286 21.3002 30.6289 21.2291V20.5041C30.6284 20.4331 30.6423 20.3627 30.67 20.2969C30.6977 20.2312 30.7386 20.1714 30.7901 20.1212C30.8418 20.071 30.9032 20.0313 30.9708 20.0043C31.0383 19.9774 31.1107 19.9638 31.1837 19.9644H33.4051C33.4782 19.9637 33.5507 19.9772 33.6183 20.0041C33.686 20.0309 33.7475 20.0707 33.7992 20.1209C33.8509 20.1712 33.8918 20.231 33.9195 20.2967C33.9473 20.3625 33.9613 20.4331 33.9607 20.5041V20.6307Z" fill="white"/>
<path d="M33.4055 23.2291H31.184C31.1078 23.2298 31.0322 23.2158 30.9617 23.1878C30.8911 23.1598 30.827 23.1183 30.7731 23.0659C30.7192 23.0135 30.6767 22.9511 30.6479 22.8825C30.6191 22.8138 30.6047 22.7403 30.6055 22.6661V22.5173H31.0302V22.6661C31.0315 22.7063 31.0485 22.7444 31.0777 22.7728C31.1069 22.8013 31.1461 22.8178 31.1874 22.819H33.4088C33.4502 22.8178 33.4893 22.8013 33.5186 22.7728C33.5478 22.7444 33.5648 22.7063 33.566 22.6661V21.9411C33.5647 21.9013 33.5476 21.8636 33.5183 21.8359C33.489 21.8082 33.4497 21.7926 33.4088 21.7923H31.184C31.0306 21.7921 30.8836 21.7328 30.7752 21.6272C30.6667 21.5217 30.6057 21.3786 30.6055 21.2294V20.5044C30.6047 20.4302 30.6191 20.3567 30.6479 20.288C30.6767 20.2194 30.7192 20.1571 30.7731 20.1046C30.827 20.0522 30.8911 20.0108 30.9617 19.9827C31.0322 19.9547 31.1078 19.9407 31.184 19.9414H33.4055C33.4817 19.9407 33.5572 19.9547 33.6278 19.9827C33.6984 20.0108 33.7624 20.0522 33.8163 20.1046C33.8702 20.1571 33.9128 20.2194 33.9416 20.288C33.9704 20.3567 33.9848 20.4302 33.984 20.5044V20.6532H33.5593V20.5044C33.5579 20.4642 33.541 20.4261 33.5118 20.3977C33.4826 20.3692 33.4433 20.3527 33.4021 20.3515H31.184C31.1427 20.3527 31.1035 20.3692 31.0743 20.3977C31.0451 20.4261 31.0281 20.4642 31.0269 20.5044V21.2294C31.0279 21.2693 31.045 21.307 31.0743 21.3349C31.1037 21.3627 31.1431 21.3782 31.184 21.3782H33.4055C33.5589 21.3782 33.706 21.4375 33.8145 21.543C33.923 21.6486 33.984 21.7919 33.984 21.9411V22.6661C33.9848 22.7403 33.9704 22.8138 33.9416 22.8825C33.9128 22.9511 33.8702 23.0135 33.8163 23.0659C33.7624 23.1183 33.6984 23.1598 33.6278 23.1878C33.5572 23.2158 33.4817 23.2298 33.4055 23.2291ZM30.6556 22.5628V22.6661C30.6548 22.7343 30.668 22.802 30.6945 22.8651C30.7209 22.9281 30.76 22.9855 30.8096 23.0338C30.8592 23.082 30.9181 23.12 30.9829 23.1458C31.0479 23.1715 31.1173 23.1843 31.1874 23.1836H33.4088C33.4789 23.1843 33.5484 23.1715 33.6133 23.1458C33.6782 23.12 33.7371 23.082 33.7866 23.0338C33.8362 22.9855 33.8753 22.9281 33.9018 22.8651C33.9282 22.802 33.9414 22.7343 33.9406 22.6661V21.9411C33.9405 21.804 33.8843 21.6724 33.7847 21.5755C33.6849 21.4785 33.5498 21.4239 33.4088 21.4236H31.184C31.1307 21.4234 31.0796 21.4031 31.0416 21.3668C31.0035 21.3305 30.9814 21.2812 30.9801 21.2294V20.5044C30.9808 20.452 31.0025 20.4019 31.0406 20.3648C31.0787 20.3278 31.1302 20.3067 31.184 20.306H33.4055C33.4593 20.3067 33.5108 20.3278 33.5489 20.3648C33.587 20.4019 33.6087 20.452 33.6093 20.5044V20.6052H33.9372V20.5019C33.938 20.4337 33.9249 20.3661 33.8984 20.303C33.872 20.2398 33.8328 20.1825 33.7833 20.1343C33.7337 20.0861 33.6748 20.048 33.6099 20.0222C33.545 19.9965 33.4755 19.9836 33.4055 19.9844H31.184C31.114 19.9836 31.0444 19.9965 30.9796 20.0222C30.9146 20.048 30.8558 20.0861 30.8062 20.1343C30.7566 20.1825 30.7175 20.2398 30.6911 20.303C30.6646 20.3661 30.6514 20.4337 30.6522 20.5019V21.2269C30.6522 21.3642 30.7082 21.4958 30.8079 21.5928C30.9077 21.6899 31.043 21.7444 31.184 21.7444H33.4055C33.4587 21.7446 33.5098 21.765 33.548 21.8012C33.586 21.8375 33.608 21.8868 33.6093 21.9387V22.6636C33.6087 22.7161 33.587 22.7662 33.5489 22.8032C33.5108 22.8403 33.4593 22.8614 33.4055 22.862H31.184C31.1302 22.8614 31.0787 22.8403 31.0406 22.8032C31.0025 22.7662 30.9808 22.7161 30.9801 22.6636V22.5603L30.6556 22.5628Z" fill="white"/>
<path d="M33.4051 23.2183H31.1837C31.1089 23.219 31.0349 23.2051 30.9657 23.1777C30.8966 23.1501 30.8337 23.1094 30.7809 23.0581C30.7281 23.0067 30.6863 22.9455 30.658 22.8782C30.6298 22.8109 30.6155 22.7388 30.6162 22.6661V22.5281H31.0155V22.6661C31.0155 22.7099 31.0334 22.752 31.0652 22.783C31.0971 22.814 31.1403 22.8314 31.1853 22.8314H33.4068C33.4519 22.8314 33.4951 22.814 33.527 22.783C33.5589 22.752 33.5768 22.7099 33.5768 22.6661V21.9411C33.5752 21.8983 33.5566 21.8577 33.5249 21.8279C33.4932 21.7982 33.4509 21.7815 33.4068 21.7816H31.1837C31.0332 21.7814 30.889 21.7231 30.7827 21.6196C30.6763 21.5161 30.6164 21.3758 30.6162 21.2294V20.5044C30.6155 20.4317 30.6298 20.3596 30.658 20.2923C30.6863 20.225 30.7281 20.1639 30.7809 20.1124C30.8337 20.061 30.8966 20.0204 30.9657 19.9929C31.0349 19.9654 31.1089 19.9516 31.1837 19.9522H33.4051C33.4799 19.9514 33.5541 19.9652 33.6233 19.9927C33.6925 20.0201 33.7553 20.0608 33.8081 20.1122C33.8611 20.1636 33.9028 20.2248 33.9311 20.2922C33.9593 20.3595 33.9734 20.4317 33.9726 20.5044V20.6425H33.5734V20.5044C33.5734 20.4606 33.5555 20.4185 33.5236 20.3875C33.4917 20.3565 33.4485 20.3391 33.4034 20.3391H31.1837C31.1386 20.3391 31.0954 20.3565 31.0635 20.3875C31.0317 20.4185 31.0138 20.4606 31.0138 20.5044V21.2294C31.0153 21.2722 31.0339 21.3128 31.0656 21.3426C31.0973 21.3723 31.1397 21.3889 31.1837 21.3889H33.4051C33.5556 21.3891 33.6998 21.4474 33.8062 21.5509C33.9125 21.6544 33.9724 21.7947 33.9726 21.9411V22.6661C33.9734 22.7389 33.9593 22.811 33.9311 22.8783C33.9028 22.9456 33.8611 23.0068 33.8081 23.0583C33.7553 23.1097 33.6925 23.1504 33.6233 23.1778C33.5541 23.2053 33.4799 23.2191 33.4051 23.2183ZM30.6408 22.552V22.6661C30.64 22.7357 30.6536 22.8047 30.6805 22.8692C30.7075 22.9336 30.7475 22.9922 30.7981 23.0413C30.8486 23.0906 30.9088 23.1295 30.975 23.1557C31.0412 23.182 31.1121 23.1951 31.1837 23.1944H33.4051C33.4767 23.1952 33.5477 23.1822 33.614 23.1559C33.6803 23.1297 33.7405 23.0908 33.791 23.0416C33.8416 22.9924 33.8815 22.9338 33.9085 22.8693C33.9355 22.8048 33.9489 22.7357 33.948 22.6661V21.9411C33.9478 21.8011 33.8905 21.6669 33.7887 21.5678C33.687 21.4688 33.5491 21.4131 33.4051 21.4129H31.1837C31.1334 21.4127 31.0852 21.3934 31.0493 21.3591C31.0135 21.3248 30.9928 21.2783 30.9917 21.2294V20.5044C30.9922 20.4549 31.0125 20.4075 31.0484 20.3725C31.0843 20.3374 31.1328 20.3174 31.1837 20.3168H33.4051C33.4561 20.3174 33.5047 20.3373 33.5408 20.3724C33.5768 20.4074 33.5973 20.4548 33.598 20.5044V20.6193H33.948V20.5044C33.9488 20.4348 33.9353 20.3658 33.9083 20.3014C33.8813 20.2369 33.8414 20.1784 33.7908 20.1292C33.7402 20.0799 33.6801 20.0411 33.6138 20.0148C33.5476 19.9885 33.4767 19.9754 33.4051 19.9762H31.1837C31.1122 19.9755 31.0413 19.9888 30.9752 20.015C30.909 20.0414 30.8489 20.0802 30.7983 20.1294C30.7478 20.1786 30.7078 20.2371 30.6808 20.3014C30.6537 20.3658 30.6402 20.4348 30.6408 20.5044V21.2294C30.6408 21.3695 30.698 21.504 30.7998 21.6032C30.9016 21.7024 31.0396 21.7582 31.1837 21.7584H33.4051C33.4555 21.7584 33.5037 21.7775 33.5397 21.8116C33.5758 21.8458 33.5966 21.8922 33.598 21.9411V22.6661C33.5973 22.7156 33.5768 22.763 33.5408 22.7981C33.5047 22.8332 33.4561 22.8531 33.4051 22.8538H31.1837C31.1328 22.8531 31.0843 22.8331 31.0484 22.7981C31.0125 22.763 30.9922 22.7156 30.9917 22.6661V22.552H30.6408Z" fill="white"/>
<path d="M33.405 23.2406H31.1836C31.1054 23.242 31.0277 23.2282 30.9552 23.1999C30.8826 23.1715 30.8167 23.1293 30.7612 23.0758C30.7058 23.0222 30.6619 22.9583 30.6324 22.888C30.6027 22.8175 30.5879 22.7421 30.5889 22.666V22.5066H31.0348V22.6669C31.0353 22.7041 31.0506 22.7397 31.0776 22.7661C31.1046 22.7925 31.1411 22.8076 31.1793 22.8082H33.4008C33.4391 22.8076 33.4757 22.7925 33.5028 22.7661C33.5298 22.7398 33.5453 22.7042 33.5461 22.6669V21.9419C33.5449 21.9052 33.5291 21.8704 33.502 21.8449C33.4748 21.8194 33.4385 21.8052 33.4008 21.8055H31.1836C31.0259 21.8055 30.8746 21.7446 30.763 21.636C30.6515 21.5275 30.5889 21.3803 30.5889 21.2268V20.5019C30.5879 20.4259 30.6027 20.3504 30.6324 20.28C30.6619 20.2096 30.7058 20.1458 30.7612 20.0921C30.8167 20.0385 30.8826 19.9963 30.9552 19.9681C31.0277 19.9397 31.1054 19.9259 31.1836 19.9274H33.405C33.4831 19.9261 33.5607 19.9399 33.6332 19.9683C33.7057 19.9966 33.7716 20.0388 33.827 20.0924C33.8824 20.1459 33.9263 20.2098 33.9559 20.2801C33.9856 20.3505 34.0004 20.4259 33.9996 20.5019V20.6672H33.5537V20.5019C33.553 20.4647 33.5375 20.4292 33.5103 20.4029C33.4833 20.3767 33.4467 20.3617 33.4084 20.3613H31.1836C31.1454 20.3617 31.1089 20.3767 31.0819 20.403C31.0549 20.4292 31.0396 20.4648 31.0391 20.5019V21.2268C31.0402 21.2634 31.056 21.2981 31.0829 21.3236C31.1098 21.349 31.146 21.3632 31.1836 21.3632H33.405C33.5627 21.3632 33.7139 21.4242 33.8255 21.5328C33.937 21.6413 33.9996 21.7884 33.9996 21.9419V22.6669C34.0004 22.7428 33.9854 22.8181 33.9557 22.8884C33.926 22.9586 33.8822 23.0223 33.8267 23.0758C33.7713 23.1293 33.7054 23.1715 33.633 23.1997C33.5606 23.2281 33.4831 23.2419 33.405 23.2406ZM30.6636 22.5743V22.666C30.6629 22.7327 30.6759 22.7988 30.7018 22.8604C30.7278 22.9221 30.766 22.9782 30.8144 23.0253C30.8628 23.0724 30.9204 23.1096 30.9838 23.1348C31.0471 23.16 31.1151 23.1727 31.1836 23.172H33.405C33.4735 23.1727 33.5414 23.16 33.6047 23.1348C33.6682 23.1096 33.7258 23.0724 33.7741 23.0253C33.8226 22.9782 33.8608 22.9221 33.8867 22.8604C33.9126 22.7988 33.9255 22.7327 33.9249 22.666V21.9411C33.9247 21.807 33.8698 21.6785 33.7724 21.5836C33.6749 21.4887 33.5428 21.4354 33.405 21.4352H31.1836C31.1271 21.435 31.073 21.4133 31.0327 21.3749C30.9924 21.3365 30.9691 21.2842 30.9678 21.2293V20.5044C30.9687 20.4489 30.9917 20.396 31.0319 20.3568C31.0723 20.3176 31.1266 20.2953 31.1836 20.2944H33.405C33.462 20.2953 33.5163 20.3176 33.5566 20.3568C33.5969 20.396 33.6199 20.4489 33.6208 20.5044V20.5961H33.9249V20.5044C33.9262 20.4376 33.9136 20.3713 33.8879 20.3094C33.8622 20.2475 33.8239 20.1913 33.7754 20.1441C33.7268 20.097 33.669 20.0599 33.6054 20.035C33.5418 20.01 33.4736 19.9979 33.405 19.9993H31.1836C31.115 19.9979 31.0468 20.01 30.9832 20.035C30.9195 20.0599 30.8617 20.097 30.8132 20.1441C30.7646 20.1913 30.7263 20.2475 30.7007 20.3094C30.6749 20.3713 30.6624 20.4376 30.6636 20.5044V21.2293C30.6639 21.3634 30.7187 21.492 30.8162 21.5868C30.9136 21.6817 31.0457 21.735 31.1836 21.7352H33.405C33.4614 21.7355 33.5156 21.7571 33.5558 21.7955C33.5962 21.8339 33.6194 21.8862 33.6208 21.9411V22.666C33.6202 22.7216 33.5972 22.7746 33.5568 22.8138C33.5166 22.853 33.4621 22.8754 33.405 22.876H31.1836C31.1265 22.8754 31.072 22.853 31.0317 22.8138C30.9914 22.7746 30.9684 22.7216 30.9678 22.666V22.5743H30.6636Z" fill="white"/>
<path d="M38.2002 20.3292H35.5345V21.4039H37.677V21.7733H35.5345V22.848H38.2002V23.2134H35.1582V19.9646H38.1985L38.2002 20.3292Z" fill="white"/>
<path d="M38.223 23.2289H35.1367V19.9438H38.223V20.3572H35.5581V21.3839H37.7006V21.7972H35.5581V22.8239H38.223V23.2289ZM35.1835 23.1835H38.1763V22.8644H35.5114V21.7468H37.6538V21.4236H35.5114V20.3059H38.1763V19.9868H35.1835V23.1835Z" fill="white"/>
<path d="M38.2159 23.2183H35.1475V19.9521H38.2159V20.3407H35.5467V21.3888H37.6892V21.7815H35.5467V22.8297H38.2159V23.2183ZM35.1764 23.1943H38.1921V22.8537H35.5221V21.7625H37.6646V21.417H35.5221V20.3167H38.1879V19.9761H35.1721L35.1764 23.1943Z" fill="white"/>
<path d="M38.2358 23.2407H35.124V19.9299H38.2358V20.364H35.57V21.3658H37.7125V21.8048H35.57V22.8075H38.2358V23.2407ZM35.1955 23.1721H38.1644V22.8762H35.4978V21.7354H37.6411V21.432H35.4978V20.2912H38.1636V19.9961H35.1955V23.1721Z" fill="white"/>
<path d="M39.9444 20.3289C39.8969 20.3298 39.8516 20.3485 39.818 20.3812C39.7844 20.4138 39.7652 20.4579 39.7643 20.5041V22.6659C39.7652 22.7121 39.7844 22.7562 39.818 22.7888C39.8516 22.8215 39.8969 22.8402 39.9444 22.8411H42.7121V23.2065H39.9444C39.8713 23.207 39.7988 23.1934 39.7312 23.1665C39.6636 23.1395 39.6022 23.0996 39.5506 23.0493C39.499 22.999 39.4582 22.9392 39.4305 22.8733C39.4029 22.8075 39.389 22.7369 39.3897 22.6659V20.5041C39.3891 20.4331 39.403 20.3627 39.4307 20.2969C39.4584 20.2312 39.4992 20.1714 39.5509 20.1212C39.6025 20.071 39.6639 20.0313 39.7314 20.0043C39.799 19.9774 39.8714 19.9638 39.9444 19.9644H42.7121V20.3289H39.9444Z" fill="white"/>
<path d="M42.7354 23.2291H39.9448C39.8686 23.2298 39.7929 23.2158 39.7224 23.1878C39.6519 23.1598 39.5878 23.1183 39.5339 23.0659C39.4801 23.0135 39.4374 22.9511 39.4086 22.8825C39.3799 22.8138 39.3654 22.7403 39.3662 22.6661V20.5044C39.3654 20.4302 39.3799 20.3567 39.4086 20.288C39.4374 20.2194 39.4801 20.1571 39.5339 20.1046C39.5878 20.0522 39.6519 20.0108 39.7224 19.9827C39.7929 19.9547 39.8686 19.9407 39.9448 19.9414H42.7354V20.3548H39.9448C39.9035 20.3561 39.8643 20.3725 39.8351 20.4009C39.8059 20.4294 39.7888 20.4675 39.7876 20.5077V22.6694C39.7888 22.7096 39.8059 22.7478 39.8351 22.7761C39.8643 22.8046 39.9035 22.8211 39.9448 22.8223H42.7354V23.2291ZM39.9448 19.9869C39.8747 19.9862 39.8052 19.999 39.7403 20.0247C39.6755 20.0505 39.6165 20.0885 39.5669 20.1368C39.5174 20.185 39.4783 20.2423 39.4518 20.3054C39.4254 20.3686 39.4122 20.4362 39.413 20.5044V22.6661C39.4122 22.7343 39.4254 22.802 39.4518 22.8651C39.4783 22.9281 39.5174 22.9855 39.5669 23.0338C39.6165 23.082 39.6755 23.12 39.7403 23.1458C39.8052 23.1715 39.8747 23.1843 39.9448 23.1836H42.6886V22.8645H39.9448C39.8909 22.8638 39.8394 22.8428 39.8013 22.8057C39.7632 22.7686 39.7416 22.7185 39.7408 22.6661V20.5044C39.7416 20.452 39.7632 20.4019 39.8013 20.3648C39.8394 20.3278 39.8909 20.3067 39.9448 20.306H42.6886V19.9869H39.9448Z" fill="white"/>
<path d="M42.724 23.2183H39.9444C39.8698 23.219 39.7957 23.2051 39.7265 23.1776C39.6573 23.1501 39.5945 23.1094 39.5417 23.058C39.4888 23.0067 39.4471 22.9455 39.4187 22.8782C39.3905 22.8109 39.3763 22.7388 39.377 22.6661V20.5044C39.3763 20.4317 39.3905 20.3596 39.4187 20.2923C39.4471 20.225 39.4888 20.1638 39.5417 20.1124C39.5945 20.061 39.6573 20.0204 39.7265 19.9928C39.7957 19.9653 39.8698 19.9515 39.9444 19.9522H42.724V20.3407H39.9444C39.8994 20.3407 39.8561 20.3581 39.8243 20.3891C39.7925 20.4202 39.7746 20.4622 39.7746 20.5061V22.6678C39.7746 22.7116 39.7925 22.7537 39.8243 22.7846C39.8561 22.8156 39.8994 22.8331 39.9444 22.8331H42.724V23.2183ZM39.9444 19.9762C39.873 19.9755 39.8021 19.9887 39.7359 20.015C39.6697 20.0414 39.6096 20.0802 39.5591 20.1294C39.5085 20.1785 39.4686 20.237 39.4415 20.3014C39.4145 20.3658 39.4009 20.4348 39.4016 20.5044V22.6661C39.4008 22.7357 39.4143 22.8047 39.4413 22.8691C39.4683 22.9336 39.5083 22.9921 39.5588 23.0413C39.6094 23.0905 39.6695 23.1295 39.7358 23.1557C39.802 23.182 39.873 23.1951 39.9444 23.1943H42.6994V22.8538H39.9444C39.8935 22.8531 39.845 22.8331 39.8091 22.798C39.7732 22.7629 39.7529 22.7156 39.7525 22.6661V20.5044C39.7529 20.4549 39.7732 20.4075 39.8091 20.3724C39.845 20.3374 39.8935 20.3174 39.9444 20.3167H42.6994V19.9762H39.9444Z" fill="white"/>
<path d="M42.7477 23.2403H39.9443C39.8661 23.2418 39.7885 23.2279 39.716 23.1996C39.6435 23.1713 39.5775 23.1291 39.522 23.0755C39.4666 23.0219 39.4227 22.958 39.3931 22.8876C39.3635 22.8173 39.3488 22.7419 39.3496 22.6658V20.5041C39.3488 20.428 39.3635 20.3526 39.3931 20.2822C39.4227 20.2118 39.4666 20.1479 39.522 20.0944C39.5775 20.0407 39.6435 19.9986 39.716 19.9703C39.7885 19.9419 39.8661 19.9282 39.9443 19.9295H42.7477V20.3636H39.9443C39.9061 20.364 39.8697 20.3789 39.8427 20.4052C39.8157 20.4314 39.8003 20.467 39.7999 20.5041V22.6658C39.8003 22.703 39.8156 22.7386 39.8426 22.765C39.8696 22.7914 39.906 22.8065 39.9443 22.8071H42.7477V23.2403ZM39.9443 19.999C39.8757 19.9977 39.8075 20.0098 39.7439 20.0347C39.6802 20.0595 39.6224 20.0967 39.5739 20.1439C39.5254 20.191 39.4871 20.2473 39.4614 20.3091C39.4357 20.371 39.4231 20.4373 39.4244 20.5041V22.6658C39.4237 22.7324 39.4367 22.7985 39.4626 22.8602C39.4885 22.9219 39.5267 22.9779 39.5752 23.025C39.6236 23.0721 39.6811 23.1093 39.7446 23.1346C39.8079 23.1597 39.8758 23.1723 39.9443 23.1717H42.6763V22.8758H39.9451C39.8881 22.8751 39.8336 22.8528 39.7933 22.8135C39.753 22.7743 39.73 22.7212 39.7293 22.6658V20.5041C39.7302 20.4487 39.7533 20.3957 39.7935 20.3565C39.8338 20.3174 39.8882 20.2949 39.9451 20.2941H42.6772V19.999H39.9443Z" fill="white"/>
<path d="M46.836 19.9646H47.2107V22.6662C47.2112 22.7373 47.1972 22.8079 47.1695 22.8736C47.1418 22.9395 47.1009 22.9993 47.0492 23.0497C46.9975 23.0999 46.936 23.1398 46.8684 23.1668C46.8007 23.1937 46.7282 23.2073 46.6551 23.2068H44.4345C44.3614 23.2073 44.2889 23.1937 44.2212 23.1668C44.1535 23.1398 44.0921 23.0999 44.0403 23.0497C43.9887 22.9993 43.9478 22.9395 43.92 22.8736C43.8923 22.8079 43.8783 22.7373 43.8789 22.6662V19.9646H44.2535V22.6662C44.2544 22.7125 44.2737 22.7567 44.3075 22.7894C44.3413 22.8221 44.3869 22.8407 44.4345 22.8414H46.6551C46.7027 22.8407 46.7483 22.8221 46.782 22.7894C46.8158 22.7567 46.8352 22.7125 46.836 22.6662V19.9646Z" fill="white"/>
<path d="M46.6555 23.2289H44.4349C44.3585 23.2299 44.2829 23.2159 44.2123 23.1879C44.1416 23.16 44.0774 23.1185 44.0235 23.0661C43.9695 23.0137 43.9268 22.9513 43.898 22.8825C43.8691 22.8139 43.8547 22.7402 43.8555 22.666V19.9438H44.2802V22.6718C44.2813 22.7121 44.2982 22.7504 44.3274 22.7788C44.3567 22.8072 44.396 22.8237 44.4373 22.8247H46.658C46.6994 22.8237 46.7387 22.8072 46.7679 22.7788C46.7971 22.7504 46.8141 22.7121 46.8151 22.6718V19.9438H47.2399V22.6718C47.2399 22.7459 47.2247 22.8194 47.1953 22.8877C47.1657 22.9561 47.1225 23.0181 47.068 23.0699C47.0136 23.1218 46.9491 23.1626 46.8782 23.1899C46.8074 23.2172 46.7316 23.2305 46.6555 23.2289ZM43.9031 19.9868V22.666C43.9023 22.7342 43.9154 22.8018 43.9419 22.8649C43.9683 22.9281 44.0074 22.9855 44.057 23.0337C44.1066 23.0819 44.1655 23.12 44.2304 23.1457C44.2953 23.1714 44.3648 23.1843 44.4349 23.1835H46.6555C46.7255 23.1843 46.795 23.1714 46.8598 23.1457C46.9248 23.12 46.9837 23.0819 47.0333 23.0337C47.0828 22.9855 47.122 22.9281 47.1484 22.8649C47.1749 22.8018 47.188 22.7342 47.1872 22.666V19.9868H46.8593V22.666C46.8587 22.7185 46.837 22.7686 46.7988 22.8056C46.7608 22.8427 46.7093 22.8638 46.6555 22.8644H44.4349C44.3809 22.8638 44.3293 22.8427 44.2911 22.8057C44.2529 22.7687 44.231 22.7186 44.2301 22.666V19.9868H43.9031Z" fill="white"/>
<path d="M46.6544 23.2183H44.4337C44.3589 23.219 44.2848 23.2053 44.2156 23.1778C44.1464 23.1503 44.0836 23.1097 44.0307 23.0582C43.9778 23.0068 43.9361 22.9456 43.9078 22.8783C43.8796 22.8109 43.8654 22.7387 43.8662 22.666V19.9521H44.2646V22.666C44.2646 22.7099 44.2825 22.7519 44.3144 22.7829C44.3463 22.814 44.3895 22.8314 44.4346 22.8314H46.6552C46.7002 22.8314 46.7434 22.814 46.7753 22.7829C46.8072 22.7519 46.8251 22.7099 46.8251 22.666V19.9521H47.2201V22.666C47.2209 22.7387 47.2068 22.8107 47.1787 22.8779C47.1505 22.9451 47.1089 23.0062 47.0563 23.0577C47.0036 23.1091 46.941 23.1497 46.8719 23.1773C46.8029 23.2049 46.7289 23.2188 46.6544 23.2183ZM43.89 19.9761V22.666C43.8892 22.7357 43.9028 22.8048 43.9298 22.8693C43.9568 22.9338 43.9969 22.9923 44.0476 23.0416C44.0982 23.0908 44.1585 23.1297 44.2248 23.1559C44.2911 23.1821 44.3621 23.1951 44.4337 23.1943H46.6544C46.7259 23.1951 46.7969 23.1821 46.8633 23.1559C46.9296 23.1297 46.9899 23.0908 47.0405 23.0416C47.0911 22.9923 47.1312 22.9338 47.1583 22.8693C47.1853 22.8048 47.1988 22.7357 47.198 22.666V19.9761H46.8472V22.666C46.8465 22.7156 46.826 22.763 46.79 22.798C46.7539 22.833 46.7053 22.8531 46.6544 22.8537H44.4337C44.3828 22.8531 44.3341 22.833 44.2981 22.798C44.262 22.763 44.2416 22.7156 44.2408 22.666V19.9761H43.89Z" fill="white"/>
<path d="M46.6551 23.2407H44.4345C44.3564 23.242 44.2788 23.2281 44.2063 23.1998C44.1339 23.1714 44.068 23.1292 44.0125 23.0757C43.9571 23.0221 43.9132 22.9582 43.8835 22.888C43.8539 22.8176 43.8391 22.7422 43.8399 22.6662V19.9299H44.2858V22.6662C44.2869 22.7034 44.3026 22.7387 44.3295 22.765C44.3566 22.7912 44.393 22.8065 44.4311 22.8075H46.6518C46.6901 22.8069 46.7266 22.7918 46.7537 22.7654C46.7808 22.7391 46.7963 22.7034 46.797 22.6662V19.9299H47.243V22.6662C47.2438 22.7417 47.2292 22.8165 47.1999 22.8864C47.1706 22.9562 47.1274 23.0198 47.0728 23.0732C47.018 23.1267 46.9529 23.1691 46.8812 23.1978C46.8095 23.2266 46.7326 23.2411 46.6551 23.2407ZM43.9146 19.9994V22.6662C43.9138 22.7328 43.9267 22.7989 43.9525 22.8607C43.9784 22.9224 44.0167 22.9785 44.0651 23.0257C44.1136 23.0727 44.1712 23.11 44.2346 23.1351C44.298 23.1603 44.366 23.1728 44.4345 23.1721H46.6551C46.7235 23.1727 46.7915 23.1601 46.8549 23.135C46.9182 23.1097 46.9759 23.0725 47.0243 23.0254C47.0727 22.9783 47.111 22.9223 47.1368 22.8606C47.1627 22.7989 47.1757 22.7328 47.175 22.6662V19.9994H46.8709V22.6662C46.8702 22.7216 46.8473 22.7747 46.807 22.8139C46.7667 22.8532 46.7121 22.8755 46.6551 22.8762H44.4345C44.3774 22.8755 44.3228 22.8532 44.2823 22.8139C44.2419 22.7748 44.2187 22.7217 44.2179 22.6662V19.9994H43.9146Z" fill="white"/>
<path d="M51.7411 21.4592C51.7414 21.5302 51.7273 21.6006 51.6996 21.6663C51.6718 21.732 51.631 21.7917 51.5794 21.842C51.5279 21.8922 51.4666 21.932 51.3991 21.9591C51.3317 21.9863 51.2594 22 51.1863 21.9999H50.6766L51.7233 23.2068H51.228L50.1865 21.9999H48.9649C48.9045 21.9972 48.8444 21.9911 48.7848 21.9817V23.2068H48.4102V19.9688H51.1872C51.2602 19.9686 51.3325 19.9824 51.4 20.0095C51.4674 20.0366 51.5287 20.0764 51.5802 20.1267C51.6318 20.1769 51.6727 20.2366 51.7004 20.3023C51.7282 20.368 51.7422 20.4384 51.7419 20.5094L51.7411 21.4592ZM51.1863 21.6303C51.2095 21.6303 51.2323 21.6259 51.2537 21.6173C51.2749 21.6087 51.2944 21.5961 51.3107 21.5802C51.327 21.5644 51.34 21.5455 51.3488 21.5247C51.3577 21.504 51.3622 21.4817 51.3622 21.4592V20.5094C51.3624 20.4635 51.3441 20.4193 51.3113 20.3864C51.2784 20.3535 51.2335 20.3344 51.1863 20.3334H48.9649C48.9173 20.3342 48.8719 20.353 48.8382 20.3859C48.8046 20.4187 48.7855 20.463 48.7848 20.5094V21.4592C48.7859 21.505 48.8053 21.5485 48.839 21.5805C48.8727 21.6125 48.9178 21.6303 48.9649 21.6303H51.1863Z" fill="white"/>
<path d="M51.7731 23.2289H51.2134L50.1719 22.0221H48.9647C48.912 22.0204 48.8596 22.0154 48.8075 22.0072V23.2289H48.3828V19.9438H51.1861C51.3395 19.9441 51.4865 20.0035 51.595 20.1089C51.7034 20.2145 51.7644 20.3576 51.7647 20.5068V21.4566C51.7644 21.6059 51.7034 21.7489 51.595 21.8545C51.4865 21.96 51.3395 22.0193 51.1861 22.0196H50.7275L51.7731 23.2289ZM51.2389 23.1835H51.673L50.6264 21.9766H51.1861C51.3271 21.9764 51.4622 21.9218 51.562 21.8248C51.6616 21.7278 51.7177 21.5963 51.7179 21.4591V20.5093C51.7179 20.3721 51.6619 20.2404 51.5622 20.1434C51.4625 20.0463 51.3272 19.9918 51.1861 19.9918H48.433V23.1835H48.7608V21.9559L48.8109 21.9617C48.8618 21.9699 48.9132 21.9748 48.9647 21.9766H50.194L51.2389 23.1835ZM51.1861 21.6533H48.9647C48.9114 21.6532 48.8604 21.6328 48.8222 21.5965C48.7842 21.5603 48.7621 21.511 48.7608 21.4591V20.5093C48.7615 20.4568 48.7831 20.4068 48.8213 20.3697C48.8594 20.3326 48.9109 20.3116 48.9647 20.3109H51.1861C51.2394 20.3122 51.2899 20.3337 51.327 20.3708C51.3642 20.4078 51.385 20.4575 51.3849 20.5093V21.4591C51.3849 21.5105 51.3641 21.5597 51.3268 21.5962C51.2895 21.6326 51.239 21.6532 51.1861 21.6533ZM48.9647 20.3572C48.9233 20.3582 48.8841 20.3747 48.8548 20.4031C48.8255 20.4316 48.8086 20.4699 48.8075 20.5101V21.4599C48.8089 21.4996 48.826 21.5373 48.8554 21.5649C48.8847 21.5925 48.9239 21.6079 48.9647 21.6079H51.1861C51.2265 21.6079 51.2651 21.5923 51.2937 21.5646C51.3222 21.5369 51.3383 21.4992 51.3383 21.4599V20.5093C51.3384 20.4695 51.3227 20.4313 51.2943 20.4027C51.2658 20.3741 51.227 20.3574 51.1861 20.3564L48.9647 20.3572Z" fill="white"/>
<path d="M51.7496 23.2185H51.2221V23.2143L50.1806 22.0108H48.965C48.9117 22.0086 48.8587 22.0037 48.8061 21.9959H48.7967V23.2193H48.3975V19.9573H51.1864C51.3368 19.9575 51.4811 20.0158 51.5874 20.1193C51.6937 20.2228 51.7536 20.3631 51.7539 20.5095V21.4594C51.7536 21.6058 51.6937 21.7461 51.5874 21.8496C51.4811 21.9531 51.3368 22.0114 51.1864 22.0115H50.7039L51.7496 23.2185ZM51.2339 23.1945H51.697L50.6512 21.9876H51.1864C51.3303 21.9874 51.4682 21.9316 51.57 21.8327C51.6718 21.7336 51.729 21.5994 51.7292 21.4594V20.5095C51.7292 20.3694 51.6721 20.2349 51.5703 20.1357C51.4685 20.0365 51.3305 19.9807 51.1864 19.9804H48.4221V23.1945H48.7729V21.9686L48.8095 21.9727C48.8609 21.9809 48.9129 21.9858 48.965 21.9876H50.1942L51.2339 23.1945ZM51.1864 21.6421H48.965C48.9147 21.6421 48.8666 21.6229 48.8307 21.5888C48.7948 21.5546 48.774 21.5082 48.7729 21.4594V20.5095C48.7734 20.46 48.7937 20.4127 48.8296 20.3776C48.8655 20.3425 48.9141 20.3225 48.965 20.3219H51.1864C51.2367 20.3232 51.2844 20.3435 51.3194 20.3786C51.3545 20.4136 51.3742 20.4606 51.3741 20.5095V21.4594C51.3741 21.4833 51.3693 21.5071 51.3599 21.5292C51.3504 21.5514 51.3366 21.5715 51.3191 21.5885C51.3017 21.6055 51.281 21.6189 51.2582 21.6281C51.2354 21.6373 51.211 21.6421 51.1864 21.6421ZM48.965 20.3458C48.9199 20.3458 48.8766 20.3632 48.8448 20.3942C48.8129 20.4253 48.795 20.4673 48.795 20.5112V21.461C48.7965 21.5038 48.8152 21.5444 48.8469 21.5742C48.8786 21.6039 48.9209 21.6206 48.965 21.6206H51.1864C51.2298 21.6203 51.2714 21.6034 51.302 21.5736C51.3328 21.5437 51.3501 21.5032 51.3503 21.461V20.5095C51.3504 20.4666 51.3333 20.4254 51.3027 20.3946C51.2721 20.3637 51.2304 20.3457 51.1864 20.3442L48.965 20.3458Z" fill="white"/>
<path d="M51.7993 23.2407H51.2131L50.1725 22.0338H48.9645C48.9161 22.0326 48.8679 22.0285 48.82 22.0214V23.2407H48.374V19.9341H51.1859C51.3436 19.9341 51.4949 19.995 51.6065 20.1035C51.718 20.2121 51.7806 20.3593 51.7806 20.5128V21.4625C51.7795 21.6153 51.7164 21.7614 51.6049 21.8691C51.4935 21.9766 51.3429 22.037 51.1859 22.037H50.7535L51.7993 23.2407ZM51.2437 23.172H51.6464L50.6006 21.9652H51.1859C51.3238 21.9649 51.4559 21.9116 51.5533 21.8167C51.6507 21.7219 51.7056 21.5933 51.7059 21.4592V20.5094C51.7056 20.3753 51.6507 20.2468 51.5533 20.152C51.4559 20.0571 51.3238 20.0038 51.1859 20.0035H48.4446V23.172H48.7495V21.942L48.8124 21.9503C48.8631 21.958 48.9141 21.9629 48.9653 21.9652H50.2039L50.2107 21.9734L51.2437 23.172ZM51.1859 21.6651H48.9645C48.908 21.6649 48.8539 21.6432 48.8136 21.6048C48.7733 21.5664 48.75 21.5142 48.7487 21.4592V20.5094C48.7496 20.454 48.7726 20.401 48.8128 20.3619C48.8531 20.3227 48.9075 20.3003 48.9645 20.2995H51.1859C51.2424 20.3008 51.296 20.3234 51.3355 20.3626C51.3751 20.4018 51.3973 20.4545 51.3974 20.5094V21.4592C51.3973 21.5138 51.3749 21.566 51.3353 21.6046C51.2956 21.6431 51.2419 21.6649 51.1859 21.6651ZM48.9645 20.368C48.9262 20.3687 48.8898 20.3838 48.8628 20.4102C48.8358 20.4366 48.8205 20.4722 48.82 20.5094V21.4592C48.8211 21.4958 48.8369 21.5305 48.8638 21.556C48.8908 21.5814 48.9269 21.5957 48.9645 21.5957H51.1859C51.2231 21.5957 51.2588 21.5813 51.285 21.5557C51.3113 21.5301 51.3261 21.4954 51.3261 21.4592V20.5094C51.3264 20.4727 51.3118 20.4374 51.2856 20.4109C51.2594 20.3846 51.2237 20.3691 51.1859 20.368H48.9645Z" fill="white"/>
<path d="M52.9307 19.9646H53.3054V23.2068H52.9307V19.9646Z" fill="white"/>
<path d="M53.33 23.2289H52.9053V19.9438H53.33V23.2289ZM52.9553 23.1835H53.2833V19.9868H52.9553V23.1835Z" fill="white"/>
<path d="M53.3182 23.2183H52.9189V19.9521H53.3182V23.2183ZM52.9435 23.1943H53.2935V19.9761H52.9435V23.1943Z" fill="white"/>
<path d="M53.3414 23.2407H52.8955V19.9299H53.3414V23.2407ZM52.9668 23.1721H53.2709V19.9994H52.9668V23.1721Z" fill="white"/>
<path d="M57.8034 19.9646V20.3292H56.3278V23.2068H55.9523V20.3292H54.4717V19.9646H57.8034Z" fill="white"/>
<path d="M56.3512 23.2289H55.9265V20.3513H54.4492V19.938H57.8277V20.3513H56.3512V23.2289ZM55.9766 23.1834H56.3046V20.3058H57.781V19.9867H54.496V20.3058H55.9766V23.1834Z" fill="white"/>
<path d="M56.3399 23.2183H55.9407V20.3407H54.46V19.9521H57.8164V20.3407H56.3399V23.2183ZM55.9653 23.1943H56.3153V20.3167H57.7918V19.9761H54.4846V20.3167H55.9653V23.1943Z" fill="white"/>
<path d="M56.3632 23.2407H55.9181V20.364H54.4365V19.9299H57.8397V20.364H56.3632V23.2407ZM55.9886 23.1721H56.2927V20.2945H57.7692V19.9994H54.5079V20.2945H55.9886V23.1721Z" fill="white"/>
<path d="M62.1028 19.9646L60.5737 21.9858V23.2068H60.199V21.9858C59.7038 21.3245 59.1721 20.626 58.6699 19.9646H59.1006L60.3877 21.5493C60.7894 21.0451 61.2575 20.4689 61.6619 19.9646H62.1028Z" fill="white"/>
<path d="M60.5954 23.2293H60.1707V21.9934C59.6805 21.3387 59.159 20.655 58.6552 19.9937L58.6152 19.9417H59.1037L60.3882 21.5147C60.7016 21.1221 61.0491 20.6931 61.3846 20.2748L61.6547 19.9441H62.1517L62.1246 19.9805L60.5954 21.9959V23.2293ZM60.2208 23.1838H60.5488V21.9785L60.553 21.9727L62.0575 19.9887H61.6751L61.4203 20.3062C61.0806 20.7286 60.7246 21.1668 60.406 21.5652L60.3882 21.5883L59.0858 19.9887H58.7129C59.2133 20.6501 59.7323 21.3246 60.2166 21.9727L60.2216 21.9785L60.2208 23.1838Z" fill="white"/>
<path d="M60.5844 23.2183H60.1852V21.9899C59.6942 21.3336 59.1708 20.6475 58.6654 19.9845L58.6416 19.9522H59.1021V19.9572L60.3839 21.5278C60.6991 21.1327 61.0492 20.7012 61.388 20.2804L61.6548 19.9497H62.1246L62.1102 19.9688L60.581 21.9874L60.5844 23.2183ZM60.2089 23.1943H60.5581V21.9825L62.0753 19.9795H61.6658L61.4076 20.2978C61.0678 20.721 60.7119 21.1584 60.3941 21.5568L60.3848 21.5684L60.3746 21.5568L59.0876 19.9762H58.6892C59.1938 20.6375 59.7162 21.3236 60.2064 21.9792L60.2089 23.1943Z" fill="white"/>
<path d="M60.6073 23.2406H60.1612V22.0005C59.6873 21.3666 59.1945 20.7201 58.6466 20.0009L58.5947 19.9331H59.1138L59.1214 19.9422L60.3872 21.4963C60.6676 21.145 60.9768 20.7631 61.2758 20.3936L61.6479 19.9331H62.172L60.6055 21.9998L60.6073 23.2406ZM60.2326 23.1719H60.5367V21.9741V21.9683L62.0293 19.9992H61.6767L61.4219 20.3118C61.0489 20.773 60.7151 21.1855 60.4085 21.5708L60.3804 21.6054L60.3524 21.5708L59.0722 20.0001H58.7323C59.2038 20.6176 59.7339 21.3136 60.2224 21.9667V21.9725V21.9832L60.2326 23.1719Z" fill="white"/>
<path d="M65.2305 19.9597H65.6052V22.8414H68.5614V23.2068H65.2305V19.9597Z" fill="white"/>
<path d="M68.5836 23.229H65.2051V19.9373H65.6298V22.819H68.587L68.5836 23.229ZM65.2518 23.1835H68.5369V22.8644H65.5798V19.9828H65.2518V23.1835Z" fill="white"/>
<path d="M68.5722 23.2185H65.2158V19.9482H65.6151V22.83H68.5722V23.2185ZM65.2405 23.1945H68.5476V22.8539H65.5904V19.9714H65.2405V23.1945Z" fill="white"/>
<path d="M68.5957 23.2408H65.1934V19.925H65.6386V22.8077H68.5957V23.2408ZM65.2639 23.1722H68.5252V22.8762H65.5705V19.9946H65.2665L65.2639 23.1722Z" fill="white"/>
<path d="M72.5726 20.3292H69.9069V21.4039H72.0493V21.7733H69.9069V22.848H72.5726V23.2134H69.5322V19.9646H72.5726V20.3292Z" fill="white"/>
<path d="M72.595 23.2289H69.5078V19.9438H72.595V20.3572H69.9301V21.3839H72.0725V21.7972H69.9301V22.8239H72.595V23.2289ZM69.5546 23.1835H72.5482V22.8644H69.8833V21.7468H72.0258V21.4236H69.8833V20.3059H72.5482V19.9868H69.5546V23.1835Z" fill="white"/>
<path d="M72.5847 23.2183H69.5205V19.9521H72.5847V20.3407H69.9189V21.3888H72.0623V21.7815H69.9189V22.8297H72.5847V23.2183ZM69.5443 23.1943H72.56V22.8537H69.8951V21.7625H72.0376V21.417H69.8951V20.3167H72.56V19.9761H69.5443V23.1943Z" fill="white"/>
<path d="M72.6088 23.2407H69.4971V19.9299H72.6088V20.364H69.9431V21.3658H72.0855V21.8048H69.9431V22.8075H72.6088V23.2407ZM69.5684 23.1721H72.5417V22.8762H69.8717V21.7354H72.0141V21.432H69.8717V20.2912H72.5366V19.9961H69.5633L69.5684 23.1721Z" fill="white"/>
<path d="M76.5474 19.9644C76.6204 19.9637 76.6929 19.9772 76.7606 20.0041C76.8283 20.0309 76.8898 20.0707 76.9415 20.1209C76.9932 20.1712 77.0341 20.231 77.0618 20.2967C77.0895 20.3625 77.1035 20.4331 77.103 20.5041V23.2065H76.7284V22.0219H74.1501V23.2065H73.7754V20.5041C73.7749 20.4331 73.7889 20.3625 73.8166 20.2967C73.8443 20.231 73.8852 20.1712 73.937 20.1209C73.9886 20.0707 74.0502 20.0309 74.1178 20.0041C74.1855 19.9772 74.2579 19.9637 74.331 19.9644H76.5474ZM76.7284 21.6573V20.5C76.7275 20.4537 76.7081 20.4095 76.6743 20.3767C76.6406 20.3441 76.5951 20.3254 76.5474 20.3247H74.3268C74.2791 20.3254 74.2336 20.3441 74.1999 20.3767C74.166 20.4095 74.1467 20.4537 74.1458 20.5V21.6573H76.7284Z" fill="white"/>
<path d="M77.1237 23.2289H76.6989V22.0452H74.1699V23.2289H73.7451V20.501C73.7443 20.4267 73.7588 20.3532 73.7876 20.2844C73.8165 20.2157 73.8592 20.1533 73.9131 20.1009C73.9671 20.0484 74.0313 20.007 74.1019 19.9791C74.1726 19.9511 74.2483 19.9372 74.3245 19.938H76.5451C76.6214 19.9372 76.6971 19.9511 76.7678 19.9791C76.8384 20.007 76.9026 20.0484 76.9566 20.1009C77.0106 20.1533 77.0532 20.2157 77.082 20.2844C77.1108 20.3532 77.1254 20.4267 77.1246 20.501L77.1237 23.2289ZM76.7482 23.1835H77.0769V20.5043C77.0776 20.4361 77.0643 20.3684 77.0378 20.3053C77.0113 20.2421 76.972 20.1848 76.9224 20.1366C76.8728 20.0884 76.8138 20.0503 76.7489 20.0246C76.684 19.9989 76.6144 19.986 76.5443 19.9868H74.3271C74.257 19.986 74.1875 19.9989 74.1226 20.0246C74.0578 20.0503 73.9988 20.0885 73.9493 20.1367C73.8998 20.1849 73.8606 20.2422 73.8341 20.3053C73.8077 20.3685 73.7945 20.4361 73.7953 20.5043V23.1835H74.1232V21.9997H76.7516L76.7482 23.1835ZM76.7482 21.6798H74.1232V20.5043C74.1238 20.4519 74.1456 20.4018 74.1836 20.3647C74.2217 20.3277 74.2732 20.3065 74.3271 20.3059H76.5477C76.6016 20.3065 76.6531 20.3277 76.6912 20.3647C76.7292 20.4018 76.7509 20.4519 76.7516 20.5043L76.7482 21.6798ZM74.1665 21.6344H76.7015V20.5043C76.7003 20.4641 76.6835 20.4258 76.6542 20.3974C76.625 20.3688 76.5856 20.3524 76.5443 20.3513H74.3271C74.2858 20.3524 74.2464 20.3688 74.2171 20.3974C74.1879 20.4258 74.171 20.4641 74.1699 20.5043L74.1665 21.6344Z" fill="white"/>
<path d="M77.1162 23.2183H76.7169V22.0337H74.1591V23.2183H73.7598V20.5044C73.759 20.4317 73.7732 20.3595 73.8014 20.2922C73.8296 20.2248 73.8714 20.1636 73.9243 20.1122C73.9771 20.0608 74.04 20.0201 74.1092 19.9927C74.1784 19.9652 74.2526 19.9514 74.3273 19.9522H76.5479C76.6227 19.9514 76.6969 19.9652 76.7661 19.9927C76.8354 20.0201 76.8983 20.0608 76.9513 20.1122C77.0042 20.1636 77.046 20.2247 77.0743 20.2921C77.1027 20.3594 77.1169 20.4316 77.1162 20.5044V23.2183ZM76.7407 23.1944H77.0916V20.5044C77.0922 20.4347 77.0787 20.3658 77.0515 20.3013C77.0245 20.2368 76.9845 20.1783 76.9338 20.1291C76.8832 20.0799 76.823 20.041 76.7567 20.0148C76.6905 19.9885 76.6195 19.9754 76.5479 19.9762H74.3273C74.2558 19.9754 74.1848 19.9885 74.1185 20.0148C74.0523 20.041 73.992 20.0799 73.9414 20.1291C73.8907 20.1783 73.8507 20.2368 73.8237 20.3013C73.7966 20.3658 73.783 20.4347 73.7836 20.5044V23.1944H74.1345V22.0106H76.7407V23.1944ZM76.7407 21.6691H74.1345V20.5044C74.1351 20.4548 74.1557 20.4074 74.1917 20.3724C74.2277 20.3373 74.2764 20.3174 74.3273 20.3168H76.5479C76.5988 20.3174 76.6476 20.3373 76.6835 20.3724C76.7195 20.4074 76.7401 20.4548 76.7407 20.5044V21.6691ZM74.1591 21.646H76.7169V20.5044C76.7169 20.4606 76.699 20.4185 76.6672 20.3875C76.6353 20.3565 76.5921 20.3391 76.5471 20.3391H74.3273C74.2822 20.3391 74.239 20.3565 74.2072 20.3875C74.1753 20.4185 74.1574 20.4606 74.1574 20.5044L74.1591 21.646Z" fill="white"/>
<path d="M77.1395 23.2408H76.6935V22.057H74.1824V23.2408H73.7364V20.5045C73.7356 20.4285 73.7504 20.3531 73.7801 20.2828C73.8097 20.2125 73.8536 20.1486 73.909 20.095C73.9644 20.0415 74.0304 19.9993 74.1029 19.9709C74.1753 19.9426 74.2529 19.9287 74.331 19.93H76.5516C76.6297 19.9287 76.7073 19.9426 76.7798 19.9709C76.8523 19.9993 76.9182 20.0415 76.9737 20.095C77.0291 20.1486 77.0729 20.2125 77.1026 20.2828C77.1322 20.3531 77.1471 20.4285 77.1463 20.5045L77.1395 23.2408ZM76.7648 23.1721H77.0681V20.5045C77.0694 20.4378 77.0568 20.3715 77.0311 20.3096C77.0055 20.2477 76.9672 20.1915 76.9187 20.1443C76.8701 20.0972 76.8123 20.06 76.7486 20.0351C76.685 20.0103 76.6168 19.9981 76.5482 19.9994H74.3276C74.2591 19.9981 74.1908 20.0103 74.1273 20.0351C74.0636 20.06 74.0058 20.0972 73.9572 20.1443C73.9087 20.1915 73.8704 20.2477 73.8447 20.3096C73.819 20.3715 73.8065 20.4378 73.8077 20.5045V23.1721H74.1118V21.9876H76.7648V23.1721ZM76.7648 21.6925H74.1118V20.5045C74.1127 20.4491 74.1357 20.3962 74.176 20.357C74.2163 20.3178 74.2706 20.2954 74.3276 20.2945H76.5482C76.6052 20.2954 76.6597 20.3178 76.7002 20.3569C76.7405 20.3961 76.7638 20.4491 76.7648 20.5045V21.6925ZM74.1824 21.6231H76.6935V20.5045C76.6929 20.4673 76.6773 20.4318 76.6502 20.4056C76.6231 20.3794 76.5864 20.3645 76.5482 20.364H74.3276C74.2893 20.3645 74.2528 20.3794 74.2257 20.4056C74.1986 20.4318 74.183 20.4673 74.1824 20.5045V21.6231Z" fill="white"/>
<path d="M81.1111 19.9644C81.1843 19.9637 81.2567 19.9772 81.3243 20.0041C81.392 20.0309 81.4535 20.0707 81.5052 20.1209C81.5569 20.1712 81.5979 20.231 81.6256 20.2967C81.6533 20.3625 81.6673 20.4331 81.6667 20.5041V22.6659C81.6673 22.737 81.6533 22.8076 81.6256 22.8734C81.5979 22.9392 81.557 22.9991 81.5052 23.0494C81.4536 23.0997 81.392 23.1395 81.3244 23.1665C81.2568 23.1934 81.1843 23.207 81.1111 23.2065H78.335V19.9644H81.1111ZM81.2921 20.5041C81.2912 20.4578 81.2718 20.4136 81.238 20.3809C81.2043 20.3481 81.1588 20.3295 81.1111 20.3289H78.8905C78.8429 20.3295 78.7974 20.3481 78.7636 20.3809C78.7299 20.4136 78.7104 20.4578 78.7096 20.5041V22.6659C78.7104 22.7122 78.7299 22.7564 78.7636 22.7891C78.7974 22.8219 78.8429 22.8405 78.8905 22.8411H81.1111C81.1588 22.8405 81.2043 22.8219 81.238 22.7891C81.2718 22.7564 81.2912 22.7122 81.2921 22.6659V20.5041Z" fill="white"/>
<path d="M81.1109 23.229H78.3076V19.9439H81.1109C81.1872 19.9429 81.2629 19.9569 81.3335 19.9849C81.4042 20.0129 81.4683 20.0543 81.5223 20.1067C81.5763 20.1592 81.619 20.2216 81.6478 20.2903C81.6767 20.3589 81.6911 20.4326 81.6903 20.5068V22.6685C81.6907 22.7425 81.676 22.8159 81.6471 22.8843C81.6181 22.9527 81.5754 23.0148 81.5214 23.067C81.4675 23.1192 81.4034 23.1604 81.333 23.1882C81.2624 23.216 81.187 23.2299 81.1109 23.229ZM78.3577 23.1835H81.1109C81.181 23.1843 81.2506 23.1714 81.3155 23.1457C81.3804 23.12 81.4395 23.0819 81.4891 23.0337C81.5387 22.9855 81.5779 22.9282 81.6044 22.8651C81.631 22.8019 81.6442 22.7342 81.6436 22.666V20.5044C81.6442 20.4361 81.631 20.3685 81.6044 20.3053C81.5779 20.2422 81.5387 20.1848 81.4891 20.1366C81.4395 20.0885 81.3804 20.0503 81.3155 20.0247C81.2506 19.9989 81.181 19.9861 81.1109 19.9869H78.3577V23.1835ZM81.1109 22.8645H78.8904C78.8365 22.8638 78.785 22.8427 78.7469 22.8056C78.7088 22.7685 78.6871 22.7184 78.6865 22.666V20.5044C78.6871 20.4519 78.7088 20.4018 78.7469 20.3647C78.785 20.3277 78.8365 20.3066 78.8904 20.3059H81.1109C81.1648 20.3066 81.2163 20.3277 81.2544 20.3647C81.2924 20.4018 81.3142 20.4519 81.3148 20.5044V22.666C81.3142 22.7184 81.2924 22.7685 81.2544 22.8056C81.2163 22.8427 81.1648 22.8638 81.1109 22.8645ZM78.8904 20.3514C78.849 20.3524 78.8097 20.3689 78.7805 20.3973C78.7511 20.4258 78.7342 20.4641 78.7332 20.5044V22.666C78.7342 22.7063 78.7511 22.7445 78.7805 22.773C78.8097 22.8015 78.849 22.8179 78.8904 22.819H81.1109C81.1523 22.8179 81.1916 22.8015 81.2209 22.773C81.2501 22.7445 81.2671 22.7063 81.2681 22.666V20.5044C81.2671 20.4641 81.2501 20.4258 81.2209 20.3973C81.1916 20.3689 81.1523 20.3524 81.1109 20.3514H78.8904Z" fill="white"/>
<path d="M81.1114 23.2183H78.3232V19.9522H81.1114C81.1861 19.9514 81.2603 19.9652 81.3295 19.9927C81.3987 20.0201 81.4615 20.0608 81.5144 20.1122C81.5673 20.1636 81.609 20.2248 81.6373 20.2922C81.6655 20.3595 81.6797 20.4317 81.6789 20.5044V22.6661C81.6797 22.7389 81.6655 22.811 81.6373 22.8783C81.609 22.9456 81.5673 23.0068 81.5144 23.0583C81.4615 23.1097 81.3987 23.1504 81.3295 23.1778C81.2603 23.2053 81.1861 23.2191 81.1114 23.2183ZM78.347 23.1944H81.1114C81.183 23.1952 81.2539 23.1822 81.3203 23.156C81.3866 23.1297 81.4469 23.0909 81.4975 23.0417C81.5482 22.9924 81.5882 22.9339 81.6153 22.8694C81.6423 22.8049 81.6559 22.7357 81.6551 22.6661V20.5044C81.6557 20.4347 81.6422 20.3658 81.615 20.3013C81.5879 20.2368 81.5479 20.1783 81.4973 20.1291C81.4467 20.0799 81.3865 20.041 81.3201 20.0148C81.2539 19.9885 81.1829 19.9754 81.1114 19.9762H78.347V23.1944ZM81.1114 22.8538H78.8908C78.8398 22.8531 78.7912 22.8332 78.7551 22.7981C78.7191 22.763 78.6986 22.7156 78.6979 22.6661V20.5044C78.6986 20.4548 78.7191 20.4074 78.7551 20.3724C78.7912 20.3373 78.8398 20.3174 78.8908 20.3168H81.1114C81.1623 20.3174 81.2109 20.3373 81.247 20.3724C81.283 20.4074 81.3035 20.4548 81.3042 20.5044V22.6661C81.3035 22.7156 81.283 22.763 81.247 22.7981C81.2109 22.8332 81.1623 22.8531 81.1114 22.8538ZM78.8908 20.3407C78.8457 20.3407 78.8025 20.3581 78.7706 20.3892C78.7387 20.4202 78.7208 20.4622 78.7208 20.5061V22.6678C78.7208 22.7116 78.7387 22.7537 78.7706 22.7847C78.8025 22.8156 78.8457 22.8331 78.8908 22.8331H81.1114C81.1564 22.8331 81.1996 22.8156 81.2315 22.7847C81.2634 22.7537 81.2813 22.7116 81.2813 22.6678V20.5044C81.2813 20.4606 81.2634 20.4185 81.2315 20.3875C81.1996 20.3565 81.1564 20.3391 81.1114 20.3391L78.8908 20.3407Z" fill="white"/>
<path d="M81.1107 23.2408H78.2988V19.93H81.1107C81.1888 19.9287 81.2664 19.9426 81.3389 19.9709C81.4114 19.9993 81.4773 20.0415 81.5328 20.095C81.5882 20.1486 81.632 20.2125 81.6617 20.2828C81.6913 20.3531 81.7062 20.4285 81.7054 20.5045V22.6663C81.7062 22.7423 81.6913 22.8177 81.6617 22.888C81.632 22.9583 81.5882 23.0222 81.5328 23.0758C81.4773 23.1293 81.4114 23.1715 81.3389 23.1999C81.2664 23.2282 81.1888 23.2421 81.1107 23.2408ZM78.3702 23.1721H81.1107C81.1792 23.1728 81.2471 23.1602 81.3105 23.135C81.3739 23.1098 81.4314 23.0726 81.4799 23.0255C81.5282 22.9784 81.5665 22.9224 81.5925 22.8607C81.6183 22.7989 81.6313 22.7329 81.6307 22.6663V20.5045C81.6319 20.4378 81.6193 20.3715 81.5936 20.3096C81.568 20.2477 81.5297 20.1915 81.4811 20.1443C81.4326 20.0972 81.3748 20.06 81.3111 20.0351C81.2474 20.0103 81.1793 19.9981 81.1107 19.9994H78.3702V23.1721ZM81.1107 22.8763H78.8901C78.833 22.8756 78.7784 22.8533 78.7379 22.814C78.6975 22.7749 78.6743 22.7218 78.6735 22.6663V20.5045C78.6746 20.4491 78.6977 20.3961 78.7382 20.3569C78.7786 20.3178 78.833 20.2954 78.8901 20.2945H81.1107C81.1677 20.2954 81.2222 20.3178 81.2627 20.3569C81.3031 20.3961 81.3262 20.4491 81.3273 20.5045V22.6663C81.3264 22.7218 81.3034 22.7749 81.2628 22.814C81.2224 22.8533 81.1678 22.8756 81.1107 22.8763ZM78.8901 20.364C78.8518 20.3645 78.8153 20.3794 78.7881 20.4056C78.7611 20.4318 78.7455 20.4673 78.7449 20.5045V22.6663C78.7455 22.7035 78.761 22.7391 78.7881 22.7655C78.8152 22.7918 78.8518 22.807 78.8901 22.8076H81.1107C81.149 22.807 81.1856 22.7918 81.2127 22.7655C81.2399 22.7391 81.2553 22.7035 81.256 22.6663V20.5045C81.2553 20.4673 81.2398 20.4318 81.2127 20.4056C81.1855 20.3794 81.1489 20.3645 81.1107 20.364H78.8901Z" fill="white"/>
<path d="M85.9292 20.3292H83.2642V21.4039H85.4067V21.7733H83.2642V22.848H85.9292V23.2134H82.8896V19.9646H85.9292V20.3292Z" fill="white"/>
<path d="M85.9523 23.2289H82.8652V19.9438H85.9523V20.3572H83.2866V21.3839H85.429V21.7972H83.2866V22.8239H85.9523V23.2289ZM82.9119 23.1835H85.9056V22.8644H83.2398V21.7468H85.3823V21.4236H83.2398V20.3059H85.9056V19.9868H82.9119V23.1835Z" fill="white"/>
<path d="M85.941 23.2183H82.876V19.9521H85.941V20.3407H83.2752V21.3888H85.4177V21.7815H83.2752V22.8297H85.941V23.2183ZM82.9006 23.1943H85.9164V22.8537H83.2515V21.7625H85.3939V21.417H83.2515V20.3167H85.9164V19.9761H82.8998L82.9006 23.1943Z" fill="white"/>
<path d="M85.9645 23.2407H82.8535V19.9299H85.9645V20.364H83.2995V21.3658H85.442V21.8048H83.2995V22.8075H85.9645V23.2407ZM82.9241 23.1721H85.8973V22.8762H83.2316V21.7354H85.374V21.432H83.2316V20.2912H85.8973V19.9961H82.9241V23.1721Z" fill="white"/>
<path d="M90.4461 21.4592C90.4461 21.5303 90.4319 21.6007 90.4042 21.6664C90.3766 21.7321 90.3357 21.7918 90.284 21.842C90.2323 21.8922 90.1709 21.9321 90.1032 21.9591C90.0355 21.9863 89.9634 22 89.8903 21.9999H89.3809L90.4265 23.2068H89.9313L88.8896 21.9999H87.668C87.6077 21.9972 87.5476 21.9911 87.4879 21.9817V23.2068H87.1133V19.9688H89.8895C89.9625 19.9686 90.0346 19.9824 90.1023 20.0095C90.17 20.0366 90.2315 20.0764 90.2831 20.1267C90.3348 20.1768 90.3757 20.2366 90.4034 20.3022C90.431 20.3679 90.4452 20.4383 90.4452 20.5094L90.4461 21.4592ZM89.8903 21.6303C89.9367 21.6303 89.9821 21.6123 90.015 21.5802C90.048 21.5482 90.0658 21.5047 90.0658 21.4592V20.5094C90.0667 20.4635 90.048 20.4193 90.015 20.3864C89.9821 20.3535 89.9376 20.3344 89.8903 20.3334H87.6689C87.6212 20.3342 87.5758 20.353 87.5422 20.3859C87.5085 20.4187 87.4894 20.463 87.4888 20.5094V21.4592C87.4898 21.505 87.5093 21.5485 87.543 21.5805C87.5767 21.6125 87.6218 21.6303 87.6689 21.6303H89.8903Z" fill="white"/>
<path d="M90.4783 23.2289H89.9217L88.8813 22.0221H87.6699C87.6175 22.0205 87.5653 22.0154 87.5136 22.0072V23.2289H87.0889V19.9438H89.8923C90.0455 19.9438 90.1924 20.0031 90.3011 20.1088C90.4097 20.2143 90.4712 20.3575 90.4712 20.5068V21.4566C90.4712 21.6059 90.4097 21.7491 90.3011 21.8547C90.1924 21.9603 90.0455 22.0196 89.8923 22.0196H89.4336L90.4783 23.2289ZM89.9439 23.1835H90.3768L89.3303 21.9766H89.8896C90.0303 21.9764 90.1657 21.9218 90.2655 21.8248C90.3652 21.7278 90.4213 21.5963 90.4213 21.4591V20.5093C90.4213 20.3721 90.3652 20.2404 90.2655 20.1434C90.1657 20.0463 90.0303 19.9918 89.8896 19.9918H87.1364V23.1835H87.4652V21.9559L87.5128 21.9617C87.5643 21.9695 87.6162 21.9744 87.6682 21.9766H88.9008L89.9439 23.1835ZM89.8914 21.6533H87.6699C87.6167 21.6532 87.5657 21.6327 87.5278 21.5965C87.4898 21.5602 87.468 21.5109 87.4669 21.4591V20.5093C87.4673 20.4569 87.4888 20.4068 87.5268 20.3697C87.5647 20.3326 87.6161 20.3116 87.6699 20.3109H89.8914C89.9448 20.3122 89.9956 20.3336 90.033 20.3707C90.0695 20.4077 90.0909 20.4574 90.0909 20.5093V21.4591C90.0909 21.5106 90.0695 21.5598 90.0321 21.5962C89.9947 21.6326 89.9439 21.6532 89.8914 21.6533ZM87.6699 20.3572C87.6287 20.3582 87.5894 20.3748 87.5603 20.4032C87.5311 20.4317 87.5145 20.47 87.5136 20.5101V21.4599C87.5148 21.4996 87.5317 21.5372 87.5609 21.5649C87.5901 21.5925 87.6292 21.6079 87.6699 21.6079H89.8914C89.9315 21.6079 89.9707 21.5923 89.9992 21.5646C90.0277 21.5369 90.0437 21.4992 90.0437 21.4599V20.5093C90.0437 20.4695 90.0277 20.4313 89.9992 20.4027C89.9707 20.3741 89.9324 20.3574 89.8914 20.3564L87.6699 20.3572Z" fill="white"/>
<path d="M90.4534 23.2185H89.9262V23.2143L88.8856 22.0108H87.6691C87.6156 22.0086 87.5623 22.0037 87.5094 21.9959H87.5008V23.2193H87.1016V19.9573H89.8906C90.0411 19.9575 90.1854 20.0158 90.2914 20.1193C90.3982 20.2228 90.4579 20.3631 90.4579 20.5095V21.4594C90.4579 21.6058 90.3982 21.7461 90.2914 21.8496C90.1854 21.9531 90.0411 22.0114 89.8906 22.0115H89.4079L90.4534 23.2185ZM89.9378 23.1945H90.4009L89.3562 21.9876H89.8915C90.0357 21.9876 90.1738 21.9319 90.2753 21.8328C90.3769 21.7338 90.4339 21.5994 90.4339 21.4594V20.5095C90.4339 20.3694 90.3769 20.2349 90.2753 20.1357C90.1738 20.0365 90.0357 19.9807 89.8915 19.9804H87.1271V23.1945H87.4779V21.9686L87.5128 21.9727C87.5649 21.9804 87.6173 21.9854 87.67 21.9876H88.8974L89.9378 23.1945ZM89.8906 21.6421H87.6691C87.6188 21.6421 87.5707 21.6229 87.5348 21.5888C87.4989 21.5546 87.4782 21.5082 87.4771 21.4594V20.5095C87.4775 20.46 87.4979 20.4127 87.5338 20.3776C87.5697 20.3425 87.6182 20.3225 87.6691 20.3219H89.8906C89.9404 20.3232 89.9885 20.3435 90.0233 20.3786C90.0589 20.4136 90.0785 20.4606 90.0785 20.5095V21.4594C90.0785 21.4833 90.0732 21.5071 90.0642 21.5292C90.0544 21.5514 90.0411 21.5715 90.0233 21.5885C90.0055 21.6055 89.985 21.6189 89.9627 21.6281C89.9396 21.6373 89.9155 21.6421 89.8906 21.6421ZM87.6691 20.3458C87.624 20.3458 87.5808 20.3632 87.5489 20.3942C87.517 20.4253 87.4991 20.4673 87.4991 20.5112V21.461C87.5007 21.5038 87.5193 21.5444 87.551 21.5742C87.5827 21.6039 87.625 21.6206 87.6691 21.6206H89.8906C89.9342 21.6203 89.9752 21.6034 90.0064 21.5736C90.0366 21.5437 90.0544 21.5032 90.0544 21.461V20.5095C90.0544 20.4666 90.0375 20.4254 90.0072 20.3946C89.9761 20.3637 89.9342 20.3457 89.8906 20.3442L87.6691 20.3458Z" fill="white"/>
<path d="M90.5046 23.2407H89.9168L88.875 22.0338H87.6695C87.6211 22.0323 87.5729 22.0281 87.525 22.0214V23.2407H87.0791V19.9341H89.891C90.0486 19.9341 90.2 19.995 90.3114 20.1035C90.4227 20.2121 90.4859 20.3593 90.4859 20.5128V21.4625C90.4841 21.6153 90.4218 21.7614 90.3096 21.8691C90.1982 21.9766 90.0477 22.037 89.891 22.037H89.4581L90.5046 23.2407ZM89.9498 23.172H90.3514L89.3058 21.9652H89.891C90.029 21.9649 90.1608 21.9116 90.2579 21.8167C90.3559 21.7219 90.4102 21.5933 90.4111 21.4592V20.5094C90.4102 20.3753 90.3559 20.2468 90.2579 20.152C90.1608 20.0571 90.029 20.0038 89.891 20.0035H87.1479V23.172H87.4512V21.9428L87.5132 21.9503C87.5641 21.9578 87.6154 21.9628 87.6669 21.9652H88.9055L88.9124 21.9734L89.9498 23.172ZM89.891 21.6651H87.6695C87.613 21.6649 87.559 21.6432 87.5186 21.6048C87.4784 21.5664 87.455 21.5142 87.4537 21.4592V20.5094C87.4546 20.454 87.4776 20.401 87.5179 20.3619C87.5582 20.3227 87.6126 20.3003 87.6695 20.2995H89.891C89.9471 20.3008 90.0014 20.3234 90.0406 20.3626C90.0798 20.4018 90.1021 20.4545 90.1021 20.5094V21.4592C90.1021 21.5138 90.0798 21.566 90.0406 21.6046C90.0005 21.6431 89.9471 21.6649 89.891 21.6651ZM87.6695 20.368C87.6314 20.3691 87.5951 20.3844 87.5682 20.4107C87.5414 20.437 87.5259 20.4724 87.525 20.5094V21.4592C87.5262 21.4958 87.5419 21.5305 87.5689 21.556C87.5958 21.5814 87.6319 21.5957 87.6695 21.5957H89.891C89.9284 21.5957 89.964 21.5813 89.9898 21.5557C90.0166 21.5301 90.0308 21.4954 90.0308 21.4592V20.5094C90.0317 20.4727 90.0166 20.4374 89.9907 20.4109C89.964 20.3846 89.9284 20.3691 89.891 20.368H87.6695Z" fill="white"/>
<path d="M94.7941 21.5085C94.8511 21.5596 94.8965 21.6214 94.9285 21.6904C94.9606 21.7593 94.9775 21.8339 94.9784 21.9094V22.6659C94.9793 22.7369 94.9651 22.8074 94.9375 22.8732C94.9098 22.9389 94.8689 22.9987 94.8181 23.0491C94.7665 23.0994 94.705 23.1391 94.6373 23.1662C94.5696 23.1932 94.4975 23.2069 94.4244 23.2065H91.6475V19.9644H94.2802C94.3532 19.9638 94.4262 19.9774 94.4939 20.0043C94.5607 20.0313 94.6222 20.071 94.6738 20.1212C94.7255 20.1714 94.7665 20.2312 94.7941 20.2969C94.8217 20.3627 94.8359 20.4331 94.835 20.5041V21.1936C94.835 21.2764 94.8137 21.358 94.7754 21.4316L94.7941 21.5085ZM92.2023 20.3289C92.1551 20.3298 92.1097 20.3485 92.0758 20.3811C92.042 20.4137 92.0224 20.4579 92.0215 20.5041V21.1936C92.0224 21.2398 92.042 21.284 92.0758 21.3166C92.1097 21.3493 92.1551 21.3679 92.2023 21.3688H94.2802C94.3274 21.3678 94.3719 21.3488 94.4049 21.316C94.4378 21.2833 94.4565 21.2393 94.4565 21.1936V20.5041C94.4565 20.4584 94.4378 20.4144 94.4049 20.3817C94.3719 20.3489 94.3274 20.3299 94.2802 20.3289H92.2023ZM94.6044 21.9094C94.6035 21.8631 94.5848 21.8188 94.5509 21.7859C94.5171 21.7531 94.4717 21.7342 94.4244 21.7334H92.2023C92.1551 21.7342 92.1097 21.7531 92.0758 21.7859C92.042 21.8187 92.0224 21.8631 92.0215 21.9094V22.6659C92.0224 22.7121 92.042 22.7563 92.0758 22.7889C92.1097 22.8215 92.1551 22.8402 92.2023 22.8411H94.4244C94.4717 22.8402 94.5171 22.8215 94.5509 22.7888C94.5839 22.7562 94.6035 22.7121 94.6044 22.6659V21.9094Z" fill="white"/>
<path d="M94.4219 23.2291H91.6182V19.9439H94.2749C94.3506 19.9432 94.4263 19.9571 94.4967 19.9852C94.5679 20.0132 94.6321 20.0546 94.6855 20.1071C94.7389 20.1595 94.7817 20.2219 94.8111 20.2905C94.8396 20.3592 94.8538 20.4328 94.8529 20.5069V21.1963C94.852 21.2801 94.8324 21.3627 94.7941 21.4377L94.8093 21.4997C94.8672 21.5528 94.9135 21.6168 94.9464 21.6878C94.9785 21.7588 94.9954 21.8354 94.9963 21.913V22.6694C94.9972 22.7429 94.9821 22.8159 94.9536 22.884C94.9251 22.952 94.8823 23.0139 94.8289 23.0659C94.7754 23.1179 94.7122 23.1591 94.6418 23.1871C94.5724 23.2151 94.4976 23.2294 94.4219 23.2291ZM91.668 23.1836H94.4219C94.4913 23.1843 94.5608 23.1715 94.6258 23.1458C94.6908 23.12 94.7496 23.082 94.7995 23.0337C94.8494 22.9855 94.8885 22.9282 94.9144 22.8651C94.9411 22.8019 94.9545 22.7343 94.9536 22.6661V21.9097C94.9527 21.8372 94.9358 21.7658 94.9055 21.6997C94.8752 21.6335 94.8307 21.5742 94.7754 21.5253L94.7701 21.5212L94.7478 21.4294V21.422C94.7852 21.3513 94.8048 21.2733 94.8057 21.1938V20.5043C94.8066 20.4362 94.7933 20.3685 94.7665 20.3054C94.7407 20.2423 94.7015 20.185 94.6516 20.1367C94.6018 20.0885 94.543 20.0505 94.478 20.0247C94.413 19.999 94.3435 19.9861 94.274 19.9869H91.6645L91.668 23.1836ZM94.4219 22.8645H92.1997C92.1463 22.8638 92.0947 22.8427 92.0564 22.8057C92.019 22.7686 91.9967 22.7185 91.9967 22.6661V21.9097C91.9967 21.8573 92.019 21.8072 92.0564 21.7701C92.0947 21.733 92.1463 21.712 92.1997 21.7113H94.4219C94.4753 21.712 94.527 21.7331 94.5644 21.7702C94.6027 21.8073 94.624 21.8574 94.6249 21.9097V22.6661C94.624 22.7184 94.6027 22.7685 94.5644 22.8056C94.527 22.8427 94.4753 22.8638 94.4219 22.8645ZM92.1997 21.7568C92.1588 21.7576 92.1196 21.774 92.0902 21.8025C92.0608 21.831 92.0439 21.8694 92.043 21.9097V22.6661C92.0439 22.7063 92.0608 22.7446 92.0902 22.7731C92.1196 22.8015 92.1588 22.818 92.1997 22.819H94.4219C94.4628 22.8177 94.502 22.8013 94.5314 22.7728C94.5599 22.7443 94.5768 22.7062 94.5777 22.6661V21.9097C94.5768 21.8695 94.5599 21.8312 94.5314 21.8028C94.502 21.7743 94.4628 21.7578 94.4219 21.7568H92.1997ZM94.2785 21.3922H92.1997C92.1463 21.3916 92.0947 21.3705 92.0564 21.3334C92.019 21.2963 91.9967 21.2462 91.9967 21.1938V20.5043C91.9967 20.452 92.019 20.4019 92.0564 20.3648C92.0947 20.3277 92.1463 20.3067 92.1997 20.306H94.2785C94.331 20.3073 94.3818 20.3288 94.4192 20.3659C94.4557 20.4029 94.4771 20.4526 94.4771 20.5043V21.1938C94.4771 21.2456 94.4557 21.2954 94.4192 21.3324C94.3818 21.3695 94.331 21.3909 94.2785 21.3922ZM92.1997 20.3515C92.1588 20.3525 92.1196 20.369 92.0902 20.3974C92.0608 20.4258 92.0439 20.4641 92.043 20.5043V21.1938C92.0439 21.2341 92.0608 21.2723 92.0902 21.3008C92.1196 21.3292 92.1588 21.3457 92.1997 21.3467H94.2785C94.3185 21.3454 94.3577 21.3288 94.3862 21.3002C94.4138 21.2717 94.4299 21.2336 94.4299 21.1938V20.5043C94.4299 20.4647 94.4138 20.4265 94.3862 20.3979C94.3577 20.3694 94.3185 20.3528 94.2785 20.3515H92.1997Z" fill="white"/>
<path d="M94.4223 23.2183H91.6328V19.9522H94.2789C94.3528 19.9515 94.4276 19.9653 94.4962 19.9928C94.5657 20.0204 94.628 20.061 94.6814 20.1124C94.734 20.1638 94.7759 20.225 94.8044 20.2923C94.8329 20.3596 94.8462 20.4317 94.8462 20.5044V21.1938C94.8453 21.2771 94.8248 21.3591 94.7865 21.4336L94.8026 21.5021C94.8605 21.5543 94.9068 21.6173 94.9388 21.6873C94.9709 21.7574 94.9878 21.833 94.9887 21.9097V22.6661C94.9896 22.7388 94.9754 22.8109 94.9469 22.8781C94.9192 22.9454 94.8774 23.0066 94.8248 23.058C94.7714 23.1094 94.7091 23.1501 94.6396 23.1776C94.571 23.2051 94.4971 23.219 94.4223 23.2183ZM91.6569 23.1943H94.4223C94.4935 23.1951 94.5648 23.182 94.6307 23.1557C94.6966 23.1295 94.7572 23.0905 94.8079 23.0413C94.8587 22.9921 94.8979 22.9336 94.9255 22.8691C94.9522 22.8047 94.9656 22.7357 94.9647 22.6661V21.9097C94.9638 21.8358 94.9469 21.7628 94.9157 21.6954C94.8845 21.628 94.8391 21.5676 94.783 21.5179V21.5146L94.7634 21.4319V21.4278C94.8017 21.3556 94.8213 21.2757 94.8222 21.1946V20.5052C94.8231 20.4357 94.8097 20.3667 94.7821 20.3023C94.7554 20.2379 94.7153 20.1794 94.6645 20.1302C94.6138 20.081 94.5541 20.0421 94.4882 20.0159C94.4214 19.9895 94.351 19.9764 94.2798 19.977H91.6578L91.6569 23.1943ZM94.4223 22.8538H92.2001C92.1494 22.8531 92.1013 22.8331 92.0648 22.798C92.0291 22.763 92.0087 22.7156 92.0078 22.6661V21.9097C92.0087 21.8601 92.0291 21.8127 92.0648 21.7777C92.1013 21.7427 92.1494 21.7227 92.2001 21.7221H94.4223C94.473 21.7227 94.5211 21.7427 94.5576 21.7778C94.5933 21.8128 94.6138 21.8602 94.6138 21.9097V22.6661C94.6138 22.7156 94.5933 22.7629 94.5576 22.798C94.5211 22.8331 94.473 22.8531 94.4223 22.8538ZM92.2001 21.746C92.1556 21.746 92.112 21.7634 92.0808 21.7944C92.0487 21.8255 92.0309 21.8675 92.0309 21.9114V22.6678C92.0309 22.7116 92.0487 22.7537 92.0808 22.7846C92.112 22.8156 92.1556 22.8331 92.2001 22.8331H94.4223C94.4668 22.8331 94.5105 22.8156 94.5425 22.7846C94.5737 22.7537 94.5924 22.7116 94.5924 22.6678V21.9114C94.5924 21.8675 94.5737 21.8255 94.5425 21.7944C94.5105 21.7634 94.4668 21.746 94.4223 21.746H92.2001ZM94.2789 21.3806H92.2001C92.1494 21.3802 92.1013 21.3604 92.0648 21.3255C92.0291 21.2906 92.0087 21.2433 92.0078 21.1938V20.5044C92.0087 20.4548 92.0291 20.4074 92.0648 20.3724C92.1013 20.3373 92.1494 20.3174 92.2001 20.3167H94.2789C94.3288 20.318 94.3769 20.3384 94.4116 20.3735C94.4463 20.4085 94.4659 20.4554 94.4659 20.5044V21.1938C94.4659 21.2426 94.4463 21.2895 94.4116 21.3245C94.3769 21.3594 94.3288 21.3796 94.2789 21.3806ZM92.2001 20.3407C92.1556 20.3407 92.112 20.3581 92.0808 20.3891C92.0487 20.4202 92.0309 20.4622 92.0309 20.5061V21.1955C92.0309 21.2393 92.0487 21.2814 92.0808 21.3124C92.112 21.3433 92.1556 21.3608 92.2001 21.3608H94.2789C94.3225 21.3591 94.3635 21.3409 94.3947 21.3101C94.4249 21.2793 94.4419 21.2382 94.4419 21.1955V20.5061C94.4419 20.4633 94.4249 20.4223 94.3947 20.3914C94.3635 20.3605 94.3225 20.3424 94.2789 20.3407H92.2001Z" fill="white"/>
<path d="M94.422 23.2403H91.6094V19.9295H94.2786C94.356 19.9282 94.4335 19.9419 94.5066 19.9703C94.5787 19.9986 94.6446 20.0407 94.7007 20.0944C94.7559 20.1479 94.7996 20.2118 94.829 20.2822C94.8593 20.3526 94.8735 20.428 94.8726 20.5041V21.1935C94.8726 21.2775 94.853 21.3602 94.8147 21.4357L94.8281 21.4903C94.886 21.5444 94.9332 21.6093 94.9652 21.6813C94.9982 21.7533 95.0151 21.8308 95.016 21.9094V22.6658C95.0169 22.7418 95.0026 22.8172 94.9724 22.8876C94.943 22.9578 94.8993 23.0217 94.8441 23.0753C94.788 23.1288 94.7221 23.171 94.65 23.1994C94.5778 23.2277 94.4994 23.2417 94.422 23.2403ZM91.6806 23.1717H94.422C94.4905 23.173 94.5582 23.1607 94.6224 23.1357C94.6856 23.1107 94.7435 23.0735 94.7916 23.0262C94.8405 22.979 94.8788 22.9227 94.9038 22.8608C94.9296 22.7988 94.9421 22.7325 94.9412 22.6658V21.9094C94.9403 21.8389 94.9252 21.7692 94.8958 21.7047C94.8664 21.6402 94.8236 21.5821 94.7711 21.5341L94.7657 21.5291L94.7613 21.52L94.7381 21.4275V21.4208C94.7755 21.3505 94.796 21.2726 94.796 21.1935V20.5041C94.7978 20.4374 94.7853 20.3712 94.7595 20.3093C94.7337 20.2475 94.6954 20.1914 94.6473 20.1442C94.5983 20.0971 94.5413 20.0599 94.4772 20.0349C94.4139 20.01 94.3454 19.9977 94.2777 19.999H91.6797L91.6806 23.1717ZM94.422 22.8758H92.1999C92.1429 22.8752 92.0885 22.8528 92.0485 22.8136C92.0075 22.7744 91.9843 22.7213 91.9834 22.6658V21.9094C91.9843 21.8538 92.0075 21.8008 92.0485 21.7616C92.0885 21.7224 92.1429 21.7001 92.1999 21.6994H94.422C94.479 21.7003 94.5333 21.7227 94.5734 21.7618C94.6134 21.8011 94.6366 21.854 94.6375 21.9094V22.6658C94.6366 22.7212 94.6134 22.7741 94.5734 22.8133C94.5333 22.8525 94.479 22.8749 94.422 22.8758ZM92.1999 21.7681C92.1625 21.7691 92.1259 21.7843 92.0983 21.8106C92.0716 21.8369 92.0565 21.8723 92.0547 21.9094V22.6658C92.0565 22.703 92.0716 22.7383 92.0983 22.7646C92.1259 22.7908 92.1625 22.8061 92.1999 22.8071H94.422C94.4603 22.8065 94.4968 22.7914 94.5235 22.765C94.5502 22.7386 94.5654 22.703 94.5662 22.6658V21.9094C94.5654 21.8723 94.5502 21.837 94.5226 21.8106C94.4959 21.7844 94.4603 21.7691 94.422 21.7681H92.1999ZM94.2786 21.4035H92.1999C92.1429 21.4026 92.0885 21.3803 92.0485 21.3411C92.0075 21.3019 91.9843 21.249 91.9834 21.1935V20.5041C91.9843 20.4486 92.0075 20.3956 92.0485 20.3565C92.0885 20.3173 92.1429 20.2949 92.1999 20.2941H94.2786C94.3347 20.2954 94.3881 20.3181 94.4273 20.3573C94.4665 20.3966 94.4888 20.4493 94.4888 20.5041V21.1935C94.4888 21.2483 94.4665 21.301 94.4273 21.3403C94.3881 21.3795 94.3347 21.4022 94.2786 21.4035ZM92.1999 20.3636C92.1625 20.3643 92.1259 20.3794 92.0992 20.4056C92.0716 20.4318 92.0565 20.467 92.0547 20.5041V21.1935C92.0565 21.2306 92.0716 21.2659 92.0992 21.292C92.1259 21.3182 92.1625 21.3332 92.1999 21.3341H94.2786C94.316 21.3329 94.3516 21.3177 94.3774 21.2914C94.4033 21.2652 94.4184 21.2301 94.4184 21.1935V20.5041C94.4184 20.4675 94.4033 20.4324 94.3774 20.4061C94.3516 20.3799 94.316 20.3646 94.2786 20.3636H92.1999Z" fill="white"/>
<path d="M98.943 19.9644C99.016 19.9637 99.0882 19.9772 99.1559 20.0041C99.2235 20.0309 99.285 20.0707 99.3367 20.1209C99.3892 20.1712 99.4293 20.231 99.4578 20.2967C99.4854 20.3625 99.4988 20.4331 99.4988 20.5041V22.6659C99.4988 22.737 99.4854 22.8076 99.4578 22.8734C99.4302 22.9392 99.3892 22.9991 99.3375 23.0494C99.285 23.0997 99.2235 23.1395 99.1559 23.1665C99.0891 23.1934 99.016 23.207 98.943 23.2065H96.7218C96.6488 23.207 96.5757 23.1934 96.508 23.1665C96.4404 23.1395 96.3789 23.0997 96.3273 23.0494C96.2756 22.9991 96.2346 22.9392 96.207 22.8734C96.1794 22.8076 96.1652 22.737 96.1661 22.6659V20.5041C96.1652 20.4331 96.1794 20.3625 96.207 20.2967C96.2346 20.231 96.2756 20.1712 96.3273 20.1209C96.3789 20.0707 96.4404 20.0309 96.508 20.0041C96.5757 19.9772 96.6488 19.9637 96.7218 19.9644H98.943ZM98.943 22.8411C98.9902 22.8402 99.0356 22.8215 99.0695 22.7889C99.1033 22.7562 99.122 22.7121 99.1229 22.6659V20.5041C99.122 20.4579 99.1033 20.4138 99.0695 20.3812C99.0356 20.3485 98.9902 20.3298 98.943 20.3289H96.7218C96.6737 20.3298 96.6292 20.3485 96.5953 20.3812C96.5615 20.4138 96.5428 20.4579 96.5419 20.5041V22.6659C96.5428 22.7121 96.5615 22.7562 96.5953 22.7889C96.6292 22.8215 96.6737 22.8402 96.7218 22.8411H98.943Z" fill="white"/>
<path d="M98.9427 23.2291H96.7215C96.6449 23.2298 96.5692 23.2158 96.4989 23.1878C96.4285 23.1598 96.3644 23.1183 96.3101 23.0659C96.2566 23.0135 96.2139 22.9511 96.1854 22.8825C96.156 22.8138 96.1417 22.7403 96.1426 22.6661V20.5044C96.1417 20.4302 96.156 20.3567 96.1854 20.288C96.2139 20.2194 96.2566 20.1571 96.3101 20.1046C96.3644 20.0522 96.4285 20.0108 96.4989 19.9827C96.5692 19.9547 96.6449 19.9407 96.7215 19.9414H98.9427C99.0193 19.9407 99.0941 19.9547 99.1654 19.9827C99.2357 20.0108 99.2999 20.0522 99.3533 20.1046C99.4076 20.1571 99.4504 20.2194 99.4789 20.288C99.5074 20.3567 99.5216 20.4302 99.5216 20.5044V22.6661C99.5216 22.7403 99.5074 22.8138 99.4789 22.8825C99.4504 22.9511 99.4076 23.0135 99.3533 23.0659C99.2999 23.1183 99.2357 23.1598 99.1654 23.1878C99.0941 23.2158 99.0193 23.2298 98.9427 23.2291ZM96.7215 19.9869C96.6512 19.9862 96.5817 19.999 96.5167 20.0247C96.4517 20.0505 96.3929 20.0885 96.3439 20.1368C96.294 20.185 96.2548 20.2423 96.2281 20.3054C96.2023 20.3686 96.1889 20.4362 96.1898 20.5044V22.6661C96.1889 22.7343 96.2023 22.802 96.2281 22.8651C96.2548 22.9281 96.294 22.9855 96.3439 23.0338C96.3929 23.082 96.4517 23.12 96.5167 23.1458C96.5817 23.1715 96.6512 23.1843 96.7215 23.1836H98.9427C99.0131 23.1843 99.0826 23.1715 99.1476 23.1458C99.2117 23.12 99.2714 23.082 99.3204 23.0338C99.3702 22.9855 99.4094 22.9281 99.4352 22.8651C99.462 22.802 99.4753 22.7343 99.4744 22.6661V20.5044C99.4753 20.4362 99.462 20.3686 99.4352 20.3054C99.4094 20.2423 99.3702 20.185 99.3204 20.1368C99.2714 20.0885 99.2117 20.0505 99.1476 20.0247C99.0826 19.999 99.0131 19.9862 98.9427 19.9869H96.7215ZM98.9427 22.8645H96.7215C96.6672 22.8638 96.6155 22.8428 96.5781 22.8057C96.5398 22.7686 96.5185 22.7185 96.5176 22.6661V20.5044C96.5185 20.452 96.5398 20.4019 96.5781 20.3648C96.6155 20.3278 96.6672 20.3067 96.7215 20.306H98.9427C98.9962 20.3067 99.0478 20.3278 99.0861 20.3648C99.1244 20.4019 99.1458 20.452 99.1467 20.5044V22.6661C99.1458 22.7185 99.1244 22.7686 99.0861 22.8057C99.0478 22.8428 98.9962 22.8638 98.9427 22.8645ZM96.7215 20.3515C96.6797 20.3527 96.6405 20.3692 96.612 20.3977C96.5826 20.4261 96.5657 20.4642 96.5639 20.5044V22.6661C96.5657 22.7063 96.5826 22.7444 96.612 22.7728C96.6405 22.8013 96.6797 22.8178 96.7215 22.819H98.9427C98.9837 22.8178 99.0229 22.8013 99.0523 22.7728C99.0817 22.7444 99.0986 22.7063 99.0995 22.6661V20.5044C99.0986 20.4642 99.0817 20.4261 99.0523 20.3977C99.0229 20.3692 98.9837 20.3527 98.9427 20.3515H96.7215Z" fill="white"/>
<path d="M98.9429 23.2183H96.7217C96.6469 23.219 96.5729 23.2051 96.5035 23.1777C96.434 23.1501 96.3716 23.1094 96.3191 23.0581C96.2657 23.0067 96.2238 22.9455 96.1962 22.8782C96.1677 22.8109 96.1534 22.7388 96.1543 22.6661V20.5044C96.1534 20.4317 96.1677 20.3596 96.1962 20.2923C96.2238 20.225 96.2657 20.1639 96.3191 20.1124C96.3716 20.061 96.434 20.0204 96.5035 19.9929C96.5729 19.9654 96.6469 19.9516 96.7217 19.9522H98.9429C99.0177 19.9514 99.0916 19.9652 99.1611 19.9927C99.2306 20.0201 99.2929 20.0608 99.3463 20.1122C99.3989 20.1636 99.4408 20.2248 99.4693 20.2922C99.4969 20.3595 99.5111 20.4317 99.5102 20.5044V22.6661C99.5111 22.7389 99.4969 22.811 99.4693 22.8783C99.4408 22.9456 99.3989 23.0068 99.3463 23.0583C99.2929 23.1097 99.2306 23.1504 99.1611 23.1778C99.0916 23.2053 99.0177 23.2191 98.9429 23.2183ZM96.7217 19.9762C96.6504 19.9755 96.5792 19.9888 96.5133 20.015C96.4465 20.0414 96.3868 20.0802 96.336 20.1294C96.2853 20.1786 96.2452 20.2371 96.2185 20.3014C96.1917 20.3658 96.1784 20.4348 96.1784 20.5044V22.6661C96.1775 22.7357 96.1917 22.8047 96.2185 22.8692C96.2452 22.9336 96.2853 22.9922 96.336 23.0413C96.3868 23.0906 96.4465 23.1295 96.5124 23.1557C96.5792 23.182 96.6495 23.1951 96.7217 23.1944H98.9429C99.0141 23.1952 99.0854 23.1822 99.1522 23.1559C99.2181 23.1297 99.2787 23.0908 99.3285 23.0416C99.3793 22.9924 99.4194 22.9338 99.4461 22.8693C99.4737 22.8048 99.4871 22.7357 99.4862 22.6661V20.5044C99.4862 20.4348 99.4728 20.3658 99.4461 20.3014C99.4194 20.2369 99.3793 20.1784 99.3285 20.1292C99.2778 20.0799 99.2181 20.0411 99.1513 20.0148C99.0854 19.9885 99.0141 19.9754 98.9429 19.9762H96.7217ZM98.9429 22.8538H96.7217C96.6709 22.8531 96.6219 22.8331 96.5863 22.7981C96.5507 22.763 96.5302 22.7156 96.5293 22.6661V20.5044C96.5302 20.4549 96.5507 20.4075 96.5863 20.3725C96.6219 20.3374 96.6709 20.3174 96.7217 20.3168H98.9429C98.9937 20.3174 99.0426 20.3373 99.0783 20.3724C99.1148 20.4074 99.1353 20.4548 99.1362 20.5044V22.6661C99.1353 22.7156 99.1148 22.763 99.0783 22.7981C99.0426 22.8332 98.9937 22.8531 98.9429 22.8538ZM96.7217 20.3407C96.6762 20.3407 96.6335 20.3581 96.6014 20.3892C96.5694 20.4202 96.5516 20.4622 96.5516 20.5061V22.6678C96.5516 22.7116 96.5694 22.7537 96.6014 22.7847C96.6335 22.8156 96.6762 22.8331 96.7217 22.8331H98.9429C98.9883 22.8331 99.0311 22.8156 99.0631 22.7847C99.0952 22.7537 99.113 22.7116 99.113 22.6678V20.5044C99.113 20.4606 99.0952 20.4185 99.0631 20.3875C99.0311 20.3565 98.9883 20.3391 98.9429 20.3391L96.7217 20.3407Z" fill="white"/>
<path d="M98.9432 23.2403H96.7219C96.6436 23.2418 96.5661 23.2279 96.493 23.1996C96.4209 23.1713 96.355 23.1291 96.2998 23.0755C96.2437 23.0219 96.2 22.958 96.1706 22.8876C96.1413 22.8173 96.1261 22.7419 96.127 22.6658V20.5041C96.1261 20.428 96.1413 20.3526 96.1706 20.2822C96.2 20.2118 96.2437 20.1479 96.2998 20.0944C96.355 20.0407 96.4209 19.9986 96.493 19.9703C96.5661 19.9419 96.6436 19.9282 96.7219 19.9295H98.9432C99.0215 19.9282 99.099 19.9419 99.1712 19.9703C99.2442 19.9986 99.3101 20.0407 99.3653 20.0944C99.4205 20.1479 99.4651 20.2118 99.4945 20.2822C99.5238 20.3526 99.539 20.428 99.5381 20.5041V22.6658C99.539 22.7419 99.5238 22.8173 99.4945 22.8876C99.4651 22.958 99.4205 23.0219 99.3653 23.0755C99.3101 23.1291 99.2442 23.1713 99.1712 23.1996C99.099 23.2279 99.0215 23.2418 98.9432 23.2403ZM96.7219 19.999C96.6534 19.9977 96.5848 20.0098 96.5215 20.0347C96.4574 20.0595 96.3995 20.0967 96.3514 20.1439C96.3024 20.191 96.2641 20.2473 96.2392 20.3091C96.2134 20.371 96.2009 20.4373 96.2018 20.5041V22.6658C96.2009 22.7324 96.2143 22.7985 96.2401 22.8602C96.2659 22.9219 96.3042 22.9779 96.3523 23.025C96.4013 23.0721 96.4583 23.1093 96.5215 23.1346C96.5857 23.1597 96.6534 23.1723 96.7219 23.1717H98.9432C99.0117 23.1723 99.0794 23.1597 99.1427 23.1346C99.2068 23.1093 99.2638 23.0721 99.3128 23.025C99.3609 22.9779 99.3992 22.9219 99.425 22.8602C99.4508 22.7985 99.4642 22.7324 99.4633 22.6658V20.5041C99.4642 20.4373 99.4517 20.371 99.4259 20.3091C99.4 20.2473 99.3617 20.191 99.3137 20.1439C99.2647 20.0967 99.2077 20.0595 99.1435 20.0347C99.0803 20.0098 99.0117 19.9977 98.9432 19.999H96.7219ZM98.9432 22.8758H96.7219C96.6649 22.8749 96.6106 22.8525 96.5705 22.8133C96.5296 22.7741 96.5064 22.7212 96.5055 22.6658V20.5041C96.5064 20.4487 96.5296 20.3957 96.5705 20.3565C96.6106 20.3174 96.6649 20.2949 96.7219 20.2941H98.9432C99.0002 20.2949 99.0545 20.3174 99.0946 20.3565C99.1346 20.3957 99.1578 20.4487 99.1587 20.5041V22.6658C99.1587 22.7212 99.1355 22.7743 99.0955 22.8135C99.0545 22.8528 99.0002 22.8751 98.9432 22.8758ZM96.7219 20.3636C96.6836 20.364 96.6471 20.3789 96.6204 20.4052C96.5928 20.4314 96.5777 20.467 96.5777 20.5041V22.6658C96.5777 22.703 96.5928 22.7386 96.6204 22.765C96.6471 22.7914 96.6836 22.8065 96.7219 22.8071H98.9432C98.9814 22.8065 99.018 22.7914 99.0456 22.765C99.0723 22.7387 99.0874 22.703 99.0883 22.6658V20.5041C99.0874 20.4669 99.0723 20.4313 99.0447 20.4052C99.018 20.3789 98.9814 20.364 98.9432 20.3636H96.7219Z" fill="white"/>
<path d="M103.488 19.9644C103.561 19.9637 103.633 19.9772 103.701 20.0041C103.768 20.0309 103.83 20.0707 103.882 20.1209C103.934 20.1712 103.975 20.231 104.003 20.2967C104.03 20.3625 104.045 20.4331 104.044 20.5041V23.2065H103.668V22.0219H101.087V23.2065H100.711V20.5041C100.71 20.4331 100.724 20.3625 100.752 20.2967C100.78 20.231 100.821 20.1712 100.872 20.1209C100.924 20.0707 100.985 20.0309 101.053 20.0041C101.121 19.9772 101.194 19.9637 101.267 19.9644H103.488ZM103.668 21.6573V20.5C103.667 20.4538 103.648 20.4098 103.614 20.377C103.581 20.3443 103.535 20.3256 103.488 20.3247H101.267C101.219 20.3256 101.174 20.3443 101.14 20.377C101.106 20.4098 101.088 20.4538 101.087 20.5V21.6573H103.668Z" fill="white"/>
<path d="M104.067 23.2289H103.642V22.0451H101.107V23.2289H100.682V20.501C100.681 20.4268 100.695 20.3532 100.724 20.2846C100.753 20.216 100.795 20.1536 100.849 20.1012C100.903 20.0488 100.967 20.0074 101.038 19.9793C101.108 19.9513 101.184 19.9372 101.26 19.938H103.481C103.558 19.9372 103.633 19.9513 103.704 19.9793C103.774 20.0074 103.838 20.0488 103.892 20.1012C103.946 20.1536 103.989 20.216 104.017 20.2846C104.046 20.3532 104.061 20.4268 104.06 20.501L104.067 23.2289ZM103.692 23.1835H104.02V20.5043C104.021 20.4361 104.007 20.3685 103.981 20.3053C103.955 20.2422 103.916 20.1848 103.866 20.1367C103.817 20.0884 103.757 20.0503 103.693 20.0246C103.628 19.9989 103.558 19.986 103.488 19.9868H101.267C101.196 19.986 101.127 19.9989 101.062 20.0246C100.997 20.0503 100.938 20.0884 100.889 20.1367C100.839 20.1848 100.8 20.2422 100.773 20.3053C100.748 20.3685 100.734 20.4361 100.735 20.5043V23.1835H101.063V21.9997H103.696L103.692 23.1835ZM103.692 21.6798H101.058V20.5043C101.059 20.4519 101.081 20.4018 101.119 20.3647C101.157 20.3277 101.209 20.3065 101.262 20.3059H103.484C103.538 20.3065 103.59 20.3277 103.627 20.3647C103.665 20.4018 103.687 20.4519 103.688 20.5043L103.692 21.6798ZM101.109 21.6344H103.646V20.5043C103.644 20.4641 103.627 20.426 103.598 20.3975C103.568 20.3691 103.529 20.3526 103.488 20.3513H101.267C101.225 20.3526 101.186 20.3691 101.157 20.3975C101.128 20.426 101.111 20.4641 101.109 20.5043V21.6344Z" fill="white"/>
<path d="M104.052 23.2183H103.653V22.0337H101.095V23.2183H100.696V20.5044C100.695 20.4317 100.71 20.3596 100.738 20.2923C100.766 20.225 100.808 20.1639 100.861 20.1124C100.914 20.061 100.977 20.0204 101.045 19.9929C101.115 19.9654 101.189 19.9516 101.264 19.9522H103.485C103.56 19.9514 103.634 19.9652 103.703 19.9927C103.773 20.0201 103.835 20.0608 103.888 20.1122C103.941 20.1636 103.983 20.2248 104.011 20.2922C104.039 20.3595 104.053 20.4317 104.052 20.5044V23.2183ZM103.678 23.1944H104.028V20.5044C104.029 20.4348 104.015 20.3658 103.988 20.3014C103.961 20.2369 103.921 20.1784 103.871 20.1292C103.82 20.0799 103.76 20.0411 103.693 20.0148C103.627 19.9885 103.556 19.9754 103.485 19.9762H101.266C101.195 19.9755 101.124 19.9888 101.058 20.015C100.991 20.0414 100.931 20.0802 100.881 20.1294C100.83 20.1786 100.79 20.2371 100.763 20.3014C100.736 20.3658 100.723 20.4348 100.723 20.5044V23.1944H101.074V22.0106H103.681L103.678 23.1944ZM103.678 21.6691H101.071V20.5044C101.072 20.4549 101.093 20.4075 101.128 20.3725C101.164 20.3374 101.213 20.3174 101.264 20.3168H103.485C103.536 20.3174 103.585 20.3373 103.62 20.3724C103.657 20.4074 103.677 20.4548 103.678 20.5044V21.6691ZM101.095 21.646H103.653V20.5044C103.653 20.4606 103.635 20.4185 103.603 20.3875C103.571 20.3565 103.529 20.3391 103.483 20.3391H101.266C101.221 20.3391 101.178 20.3565 101.146 20.3875C101.114 20.4185 101.096 20.4606 101.096 20.5044L101.095 21.646Z" fill="white"/>
<path d="M104.079 23.2403H103.634V22.0565H101.123V23.2403H100.677V20.5041C100.676 20.428 100.69 20.3526 100.72 20.2822C100.75 20.2118 100.793 20.1479 100.849 20.0944C100.905 20.0407 100.971 19.9986 101.043 19.9703C101.116 19.9419 101.193 19.9282 101.272 19.9295H103.493C103.571 19.9282 103.649 19.9419 103.721 19.9703C103.794 19.9986 103.86 20.0407 103.915 20.0944C103.97 20.1479 104.014 20.2118 104.044 20.2822C104.074 20.3526 104.089 20.428 104.087 20.5041L104.079 23.2403ZM103.704 23.1717H104.009V20.5041C104.01 20.4373 103.997 20.371 103.971 20.3091C103.945 20.2473 103.907 20.191 103.859 20.1439C103.81 20.0967 103.752 20.0595 103.689 20.0347C103.626 20.0098 103.557 19.9977 103.489 19.999H101.267C101.199 19.9977 101.13 20.0098 101.067 20.0347C101.003 20.0595 100.945 20.0967 100.897 20.1439C100.848 20.191 100.809 20.2473 100.785 20.3091C100.759 20.371 100.746 20.4373 100.747 20.5041V23.1717H101.051V21.9871H103.704V23.1717ZM103.704 21.692H101.051V20.5041C101.052 20.4487 101.075 20.3957 101.116 20.3565C101.156 20.3174 101.21 20.2949 101.267 20.2941H103.489C103.546 20.2949 103.6 20.3174 103.64 20.3565C103.68 20.3957 103.703 20.4487 103.704 20.5041V21.692ZM101.123 21.6226H103.634V20.5041C103.633 20.4669 103.618 20.4313 103.59 20.4052C103.563 20.3789 103.527 20.364 103.489 20.3636H101.267C101.229 20.364 101.192 20.3789 101.166 20.4052C101.138 20.4314 101.123 20.467 101.123 20.5041V21.6226Z" fill="white"/>
<path d="M108.592 21.4592C108.592 21.5303 108.578 21.6007 108.551 21.6664C108.522 21.7321 108.481 21.7918 108.429 21.842C108.378 21.8922 108.317 21.9321 108.25 21.9591C108.182 21.9863 108.11 22 108.037 21.9999H107.527L108.573 23.2068H108.078L107.037 21.9999H105.815C105.754 21.9972 105.693 21.9911 105.634 21.9817V23.2068H105.26V19.9688H108.036C108.109 19.9686 108.181 19.9824 108.249 20.0095C108.316 20.0366 108.378 20.0764 108.429 20.1267C108.48 20.1768 108.521 20.2366 108.55 20.3022C108.577 20.3679 108.592 20.4383 108.592 20.5094L108.592 21.4592ZM108.037 21.6303C108.083 21.6303 108.128 21.6123 108.161 21.5802C108.193 21.5482 108.212 21.5047 108.212 21.4592V20.5094C108.213 20.4635 108.194 20.4193 108.161 20.3864C108.128 20.3535 108.084 20.3344 108.037 20.3334H105.816C105.767 20.3342 105.722 20.353 105.688 20.3859C105.655 20.4187 105.636 20.463 105.635 20.5094V21.4592C105.636 21.505 105.655 21.5485 105.689 21.5805C105.723 21.6125 105.768 21.6303 105.816 21.6303H108.037Z" fill="white"/>
<path d="M108.624 23.2289H108.067L107.026 22.0221H105.815C105.762 22.0205 105.71 22.0154 105.658 22.0072V23.2289H105.233V19.9438H108.037C108.19 19.9438 108.337 20.0031 108.446 20.1088C108.555 20.2143 108.615 20.3575 108.615 20.5068V21.4566C108.615 21.6059 108.555 21.7491 108.446 21.8547C108.337 21.9603 108.19 22.0196 108.037 22.0196H107.578L108.624 23.2289ZM108.09 23.1835H108.523L107.478 21.9766H108.037C108.178 21.9764 108.313 21.9218 108.413 21.8248C108.513 21.7278 108.569 21.5963 108.569 21.4591V20.5093C108.569 20.3721 108.513 20.2404 108.413 20.1434C108.313 20.0463 108.178 19.9918 108.037 19.9918H105.283V23.1835H105.613V21.9559L105.661 21.9617C105.712 21.9694 105.763 21.9744 105.816 21.9766H107.048L108.09 23.1835ZM108.037 21.6533H105.816C105.762 21.6532 105.712 21.6327 105.673 21.5965C105.635 21.5602 105.614 21.5109 105.613 21.4591V20.5093C105.613 20.4569 105.634 20.4068 105.672 20.3697C105.71 20.3326 105.762 20.3116 105.816 20.3109H108.037C108.091 20.3122 108.141 20.3336 108.178 20.3707C108.215 20.4077 108.237 20.4574 108.237 20.5093V21.4591C108.237 21.5106 108.215 21.5598 108.178 21.5962C108.14 21.6326 108.09 21.6532 108.037 21.6533ZM105.816 20.3572C105.774 20.3582 105.735 20.3748 105.705 20.4032C105.677 20.4317 105.66 20.47 105.659 20.5101V21.4599C105.66 21.4996 105.677 21.5372 105.706 21.5649C105.736 21.5925 105.775 21.6079 105.816 21.6079H108.037C108.077 21.6079 108.116 21.5923 108.145 21.5646C108.173 21.5369 108.189 21.4993 108.19 21.4599V20.5093C108.19 20.4694 108.174 20.4312 108.146 20.4026C108.116 20.3741 108.078 20.3574 108.037 20.3564L105.816 20.3572Z" fill="white"/>
<path d="M108.6 23.2185H108.073V23.2143L107.032 22.0108H105.816C105.763 22.0086 105.709 22.0037 105.656 21.9959H105.648V23.2193H105.249V19.9573H108.038C108.188 19.9575 108.332 20.0158 108.438 20.1193C108.545 20.2228 108.605 20.3631 108.605 20.5095V21.4594C108.605 21.6058 108.545 21.7461 108.438 21.8496C108.332 21.9531 108.188 22.0114 108.038 22.0115H107.555L108.6 23.2185ZM108.085 23.1945H108.548L107.502 21.9876H108.038C108.109 21.9876 108.179 21.9739 108.245 21.9474C108.311 21.9208 108.371 21.8819 108.421 21.8328C108.471 21.7838 108.511 21.7256 108.539 21.6615C108.567 21.5974 108.58 21.5287 108.58 21.4594V20.5095C108.58 20.3694 108.523 20.2349 108.421 20.1357C108.32 20.0365 108.182 19.9807 108.038 19.9804H105.273V23.1945H105.624V21.9686L105.66 21.9727C105.711 21.9804 105.764 21.9855 105.816 21.9876H107.044L108.085 23.1945ZM108.038 21.6421H105.816C105.766 21.6421 105.717 21.6229 105.682 21.5888C105.646 21.5546 105.625 21.5082 105.624 21.4594V20.5095C105.625 20.46 105.644 20.4127 105.681 20.3776C105.717 20.3425 105.765 20.3225 105.816 20.3219H108.038C108.087 20.3232 108.136 20.3435 108.17 20.3786C108.206 20.4136 108.225 20.4606 108.225 20.5095V21.4594C108.225 21.4833 108.22 21.5071 108.211 21.5292C108.201 21.5514 108.187 21.5715 108.17 21.5885C108.152 21.6055 108.132 21.6189 108.11 21.6281C108.087 21.6373 108.063 21.6421 108.038 21.6421ZM105.816 20.3458C105.771 20.3458 105.727 20.3632 105.696 20.3942C105.664 20.4253 105.646 20.4673 105.646 20.5112V21.461C105.648 21.5038 105.666 21.5444 105.698 21.5742C105.73 21.6039 105.772 21.6206 105.816 21.6206H108.038C108.081 21.6203 108.122 21.6034 108.153 21.5736C108.184 21.5437 108.201 21.5032 108.201 21.461V20.5095C108.201 20.4666 108.185 20.4254 108.153 20.3946C108.123 20.3637 108.081 20.3457 108.038 20.3442L105.816 20.3458Z" fill="white"/>
<path d="M108.651 23.2407H108.062L107.021 22.0338H105.816C105.767 22.0323 105.719 22.0281 105.671 22.0214V23.2407H105.226V19.9341H108.037C108.195 19.9341 108.346 19.995 108.458 20.1035C108.569 20.2121 108.632 20.3593 108.632 20.5128V21.4625C108.63 21.6153 108.567 21.7614 108.456 21.8691C108.345 21.9766 108.194 22.037 108.037 22.037H107.604L108.651 23.2407ZM108.096 23.172H108.498L107.451 21.9652H108.036C108.174 21.9649 108.306 21.9116 108.403 21.8167C108.501 21.7219 108.556 21.5933 108.557 21.4592V20.5094C108.557 20.3752 108.501 20.2466 108.404 20.1517C108.306 20.0568 108.174 20.0035 108.036 20.0035H105.296V23.172H105.599V21.9428L105.661 21.9503C105.712 21.9578 105.764 21.9628 105.815 21.9652H107.053L107.06 21.9734L108.096 23.172ZM108.037 21.6651H105.816C105.759 21.6649 105.705 21.6432 105.665 21.6048C105.625 21.5664 105.601 21.5142 105.6 21.4592V20.5094C105.601 20.454 105.624 20.401 105.664 20.3619C105.705 20.3227 105.759 20.3003 105.816 20.2995H108.037C108.093 20.3008 108.147 20.3234 108.187 20.3626C108.226 20.4018 108.248 20.4545 108.248 20.5094V21.4592C108.248 21.5138 108.226 21.566 108.187 21.6046C108.147 21.6431 108.093 21.6649 108.037 21.6651ZM105.816 20.368C105.778 20.3691 105.741 20.3844 105.715 20.4107C105.688 20.437 105.672 20.4724 105.671 20.5094V21.4592C105.673 21.4958 105.688 21.5305 105.715 21.556C105.742 21.5814 105.778 21.5957 105.816 21.5957H108.037C108.075 21.5957 108.11 21.5813 108.136 21.5557C108.163 21.5301 108.177 21.4954 108.177 21.4592V20.5094C108.177 20.4727 108.163 20.4374 108.137 20.4109C108.11 20.3846 108.075 20.3691 108.037 20.368H105.816Z" fill="white"/>
<path d="M112.563 19.9644C112.636 19.9637 112.708 19.9772 112.776 20.0041C112.844 20.0309 112.905 20.0707 112.957 20.1209C113.009 20.1712 113.049 20.231 113.077 20.2967C113.106 20.3625 113.119 20.4331 113.119 20.5041V22.6659C113.119 22.737 113.106 22.8076 113.077 22.8734C113.049 22.9392 113.009 22.9991 112.957 23.0494C112.905 23.0997 112.844 23.1395 112.776 23.1665C112.708 23.1934 112.636 23.207 112.563 23.2065H109.787V19.9644H112.563ZM112.744 20.5041C112.743 20.4578 112.724 20.4136 112.69 20.3809C112.656 20.3481 112.61 20.3295 112.563 20.3289H110.339C110.291 20.3295 110.246 20.3481 110.212 20.3809C110.178 20.4136 110.159 20.4578 110.159 20.5041V22.6659C110.159 22.7122 110.178 22.7564 110.212 22.7891C110.246 22.8219 110.291 22.8405 110.339 22.8411H112.56C112.608 22.8405 112.653 22.8219 112.687 22.7891C112.72 22.7564 112.74 22.7122 112.74 22.6659L112.744 20.5041Z" fill="white"/>
<path d="M112.563 23.229H109.76V19.9439H112.563C112.639 19.9429 112.715 19.9569 112.786 19.9849C112.856 20.0129 112.921 20.0543 112.975 20.1067C113.028 20.1592 113.071 20.2216 113.1 20.2903C113.129 20.3589 113.143 20.4326 113.142 20.5068V22.6685C113.143 22.7425 113.128 22.8159 113.1 22.8843C113.07 22.9527 113.027 23.0148 112.974 23.067C112.92 23.1192 112.856 23.1604 112.785 23.1882C112.715 23.216 112.639 23.2299 112.563 23.229ZM109.811 23.1835H112.563C112.634 23.1843 112.703 23.1714 112.768 23.1457C112.832 23.12 112.892 23.0819 112.941 23.0337C112.991 22.9855 113.03 22.9282 113.057 22.8651C113.084 22.8019 113.097 22.7342 113.096 22.666V20.5044C113.097 20.4361 113.084 20.3685 113.057 20.3053C113.03 20.2422 112.991 20.1848 112.941 20.1366C112.892 20.0885 112.832 20.0503 112.768 20.0247C112.703 19.9989 112.634 19.9861 112.563 19.9869H109.811V23.1835ZM112.563 22.8645H110.34C110.285 22.8638 110.234 22.8427 110.196 22.8056C110.158 22.7685 110.136 22.7184 110.136 22.666V20.5044C110.136 20.4519 110.158 20.4018 110.196 20.3647C110.234 20.3277 110.285 20.3066 110.34 20.3059H112.56C112.614 20.3066 112.665 20.3277 112.703 20.3647C112.742 20.4018 112.763 20.4519 112.764 20.5044V22.666C112.763 22.7179 112.742 22.7675 112.704 22.8045C112.668 22.8414 112.617 22.8629 112.563 22.8645ZM110.34 20.3514C110.298 20.3524 110.259 20.3689 110.229 20.3973C110.2 20.4258 110.183 20.4641 110.182 20.5044V22.666C110.183 22.7063 110.2 22.7445 110.229 22.773C110.259 22.8015 110.298 22.8179 110.34 22.819H112.56C112.601 22.8179 112.641 22.8015 112.669 22.773C112.699 22.7445 112.716 22.7063 112.718 22.666V20.5044C112.716 20.4641 112.699 20.4258 112.669 20.3973C112.641 20.3689 112.601 20.3524 112.56 20.3514H110.34Z" fill="white"/>
<path d="M112.563 23.2183H109.774V19.9522H112.563C112.638 19.9514 112.712 19.9652 112.781 19.9927C112.85 20.0201 112.913 20.0608 112.965 20.1122C113.019 20.1636 113.061 20.2248 113.088 20.2922C113.117 20.3595 113.131 20.4317 113.13 20.5044V22.6661C113.131 22.7389 113.117 22.811 113.088 22.8783C113.061 22.9456 113.019 23.0068 112.965 23.0583C112.913 23.1097 112.85 23.1504 112.781 23.1778C112.712 23.2053 112.638 23.2191 112.563 23.2183ZM109.798 23.1944H112.563C112.634 23.1952 112.705 23.1822 112.771 23.156C112.838 23.1297 112.899 23.0909 112.949 23.0417C112.999 22.9924 113.039 22.9339 113.067 22.8694C113.094 22.8049 113.107 22.7357 113.106 22.6661V20.5044C113.107 20.4347 113.094 20.3658 113.066 20.3013C113.039 20.2368 112.999 20.1783 112.949 20.1291C112.898 20.0799 112.838 20.041 112.771 20.0148C112.705 19.9885 112.634 19.9754 112.563 19.9762H109.798V23.1944ZM112.563 22.8538H110.339C110.288 22.8531 110.239 22.8332 110.203 22.7981C110.167 22.763 110.147 22.7156 110.146 22.6661V20.5044C110.147 20.4548 110.167 20.4074 110.203 20.3724C110.239 20.3373 110.288 20.3174 110.339 20.3168H112.559C112.61 20.3174 112.659 20.3373 112.695 20.3724C112.731 20.4074 112.752 20.4548 112.753 20.5044V22.6661C112.752 22.7151 112.731 22.762 112.697 22.7969C112.661 22.8319 112.613 22.8523 112.563 22.8538ZM110.339 20.3407C110.294 20.3407 110.251 20.3581 110.219 20.3892C110.187 20.4202 110.169 20.4622 110.169 20.5061V22.6678C110.169 22.7116 110.187 22.7537 110.219 22.7847C110.251 22.8156 110.294 22.8331 110.339 22.8331H112.559C112.605 22.8331 112.648 22.8156 112.68 22.7847C112.712 22.7537 112.729 22.7116 112.729 22.6678V20.5044C112.729 20.4606 112.712 20.4185 112.68 20.3875C112.648 20.3565 112.605 20.3391 112.559 20.3391L110.339 20.3407Z" fill="white"/>
<path d="M112.564 23.2408H109.752V19.93H112.564C112.642 19.9287 112.72 19.9426 112.792 19.9709C112.864 19.9993 112.93 20.0415 112.986 20.095C113.041 20.1486 113.085 20.2125 113.114 20.2828C113.144 20.3531 113.159 20.4285 113.159 20.5045V22.6663C113.159 22.7423 113.144 22.8177 113.114 22.888C113.085 22.9583 113.041 23.0222 112.986 23.0758C112.93 23.1293 112.864 23.1715 112.792 23.1999C112.72 23.2282 112.642 23.2421 112.564 23.2408ZM109.823 23.1721H112.564C112.632 23.1729 112.7 23.1603 112.763 23.1352C112.827 23.1101 112.884 23.0728 112.933 23.0258C112.981 22.9786 113.02 22.9225 113.045 22.8607C113.071 22.799 113.085 22.7329 113.084 22.6663V20.5045C113.085 20.4378 113.072 20.3715 113.046 20.3096C113.021 20.2477 112.982 20.1915 112.934 20.1443C112.885 20.0972 112.827 20.06 112.764 20.0351C112.7 20.0103 112.632 19.9981 112.564 19.9994H109.823V23.1721ZM112.564 22.8763H110.34C110.283 22.8756 110.228 22.8533 110.187 22.814C110.146 22.7749 110.124 22.7218 110.123 22.6663V20.5045C110.124 20.4491 110.147 20.3961 110.187 20.3569C110.228 20.3178 110.283 20.2954 110.34 20.2945H112.56C112.617 20.2954 112.671 20.3178 112.712 20.3569C112.752 20.3961 112.776 20.4491 112.777 20.5045V22.6663C112.776 22.7213 112.753 22.7738 112.713 22.8129C112.674 22.8521 112.62 22.8748 112.564 22.8763ZM110.34 20.364C110.301 20.3645 110.265 20.3794 110.237 20.4056C110.211 20.4318 110.195 20.4673 110.195 20.5045V22.6663C110.195 22.7035 110.211 22.7391 110.237 22.7655C110.265 22.7918 110.301 22.807 110.34 22.8076H112.56C112.598 22.807 112.635 22.7918 112.663 22.7655C112.689 22.7391 112.704 22.7035 112.705 22.6663V20.5045C112.704 20.4673 112.689 20.4318 112.663 20.4056C112.635 20.3794 112.598 20.3645 112.56 20.364H110.34Z" fill="white"/>
</svg>