<svg width="26" height="26" viewBox="0 0 26 26" fill="none" xmlns="http://www.w3.org/2000/svg">
<rect x="0.640137" width="25.0697" height="25.0697" rx="12.5349" fill="white"/>
<path d="M18.8008 7.49424C20.6274 10.1378 21.5295 13.1197 21.1923 16.5525C21.1909 16.567 21.1832 16.5803 21.1711 16.5891C19.7878 17.5889 18.4476 18.1956 17.1261 18.598C17.1158 18.6011 17.1048 18.6009 17.0947 18.5975C17.0845 18.5942 17.0756 18.5877 17.0693 18.5791C16.764 18.161 16.4867 17.7202 16.2436 17.2573C16.2297 17.2301 16.2424 17.1972 16.2711 17.1865C16.7117 17.0231 17.1306 16.8273 17.5335 16.5955C17.5653 16.5772 17.5673 16.5324 17.538 16.5109C17.4524 16.4484 17.3677 16.3827 17.2867 16.3171C17.2715 16.3049 17.2511 16.3025 17.2339 16.3107C14.618 17.4997 11.7523 17.4997 9.10545 16.3107C9.08827 16.3031 9.06785 16.3057 9.05309 16.3177C8.97222 16.3833 8.88731 16.4484 8.80259 16.5109C8.77328 16.5324 8.7757 16.5772 8.80765 16.5955C9.21058 16.8229 9.62949 17.0231 10.0694 17.1873C10.0979 17.198 10.1115 17.2301 10.0973 17.2573C9.85956 17.7208 9.58218 18.1616 9.27124 18.5797C9.25769 18.5966 9.23545 18.6044 9.21442 18.598C7.89928 18.1956 6.55906 17.5889 5.17578 16.5891C5.16425 16.5803 5.15596 16.5664 5.15475 16.5519C4.87292 13.5825 5.4473 10.576 7.54405 7.49364C7.54911 7.48548 7.55679 7.47911 7.56569 7.47533C8.59739 7.00927 9.70268 6.66638 10.8579 6.47057C10.8789 6.46738 10.9 6.47693 10.9109 6.49524C11.0536 6.744 11.2168 7.063 11.3272 7.32369C12.5449 7.14061 13.7816 7.14061 15.0247 7.32369C15.1351 7.06857 15.2926 6.744 15.4347 6.49524C15.4398 6.48616 15.4476 6.47888 15.4572 6.47445C15.4667 6.47002 15.4774 6.46866 15.4877 6.47057C16.6435 6.66698 17.7488 7.00986 18.7797 7.47533C18.7888 7.47911 18.7963 7.48548 18.8008 7.49424ZM11.9462 13.14C11.959 12.2622 11.3088 11.5358 10.4926 11.5358C9.68307 11.5358 9.03914 12.2558 9.03914 13.14C9.03914 14.0239 9.6958 14.7439 10.4926 14.7439C11.3023 14.7439 11.9462 14.0239 11.9462 13.14ZM17.3204 13.14C17.3332 12.2622 16.683 11.5358 15.867 11.5358C15.0573 11.5358 14.4134 12.2558 14.4134 13.14C14.4134 14.0239 15.07 14.7439 15.867 14.7439C16.683 14.7439 17.3204 14.0239 17.3204 13.14Z" fill="#034F59"/>
</svg>
