<svg width="26" height="26" viewBox="0 0 26 26" fill="none" xmlns="http://www.w3.org/2000/svg">
<rect width="25.0697" height="25.0697" rx="12.5349" fill="white"/>
<path d="M8.95747 8.89575C11.225 8.89575 13.0629 10.5252 13.0629 12.535C13.0629 14.5448 11.2248 16.1741 8.95747 16.1741C6.69028 16.1741 4.85205 14.5448 4.85205 12.535C4.85205 10.5252 6.69011 8.89575 8.95747 8.89575ZM15.5136 9.10891C16.6474 9.10891 17.5664 10.6427 17.5664 12.535H17.5666C17.5666 14.4268 16.6475 15.961 15.5139 15.961C14.3802 15.961 13.4611 14.4268 13.4611 12.535C13.4611 10.6432 14.38 9.10891 15.5137 9.10891H15.5136ZM18.6867 9.46579C19.0854 9.46579 19.4087 10.8399 19.4087 12.535C19.4087 14.2296 19.0855 15.6042 18.6867 15.6042C18.2879 15.6042 17.9649 14.23 17.9649 12.535C17.9649 10.84 18.2881 9.46579 18.6867 9.46579Z" fill="#034F59"/>
</svg>
