<svg width="26" height="26" viewBox="0 0 26 26" fill="none" xmlns="http://www.w3.org/2000/svg">
<g clip-path="url(#clip0_1168_76)">
<rect x="0.279785" width="25.0697" height="25.0697" rx="12.5349" fill="white"/>
<path d="M10.5187 19.4088C16.0118 19.4088 19.0162 14.4302 19.0162 10.1129C19.0162 9.97142 19.0162 9.83065 19.0075 9.68988C19.592 9.22759 20.0965 8.65517 20.4975 7.99942C19.9525 8.26364 19.3743 8.43692 18.7822 8.51347C19.4056 8.10518 19.8722 7.46299 20.0952 6.70644C19.5089 7.08698 18.8676 7.35517 18.1987 7.49942C17.7484 6.97564 17.1529 6.62881 16.5043 6.5126C15.8556 6.39639 15.1901 6.51728 14.6106 6.85656C14.0311 7.19584 13.57 7.7346 13.2985 8.38946C13.0271 9.04433 12.9606 9.77879 13.1092 10.4792C11.9218 10.4141 10.7602 10.0765 9.69983 9.48842C8.63943 8.90033 7.70394 8.07486 6.95408 7.06561C6.57217 7.78484 6.45519 8.63627 6.62696 9.44655C6.79874 10.2568 7.24634 10.965 7.87865 11.4269C7.40339 11.4115 6.93849 11.2713 6.52318 11.018V11.0594C6.52336 11.8137 6.76206 12.5447 7.19877 13.1285C7.63549 13.7122 8.24334 14.1127 8.91923 14.2621C8.47954 14.3933 8.01821 14.4124 7.57069 14.3181C7.76153 14.9673 8.13307 15.535 8.63336 15.9418C9.13364 16.3487 9.73765 16.5742 10.3609 16.587C9.30335 17.4963 7.99693 17.9899 6.65186 17.9884C6.41424 17.9879 6.17685 17.9721 5.94092 17.9412C7.3067 18.9001 8.89587 19.4086 10.5187 19.4063" fill="#034F59"/>
</g>
<defs>
<clipPath id="clip0_1168_76">
<rect width="25.0697" height="25.0697" fill="white" transform="translate(0.279785)"/>
</clipPath>
</defs>
</svg>
