<svg width="26" height="25" viewBox="0 0 26 25" fill="none" xmlns="http://www.w3.org/2000/svg">
<path d="M13.3865 24.9332C20.2716 24.9332 25.8531 19.3517 25.8531 12.4666C25.8531 5.58149 20.2716 0 13.3865 0C6.50141 0 0.919922 5.58149 0.919922 12.4666C0.919922 19.3517 6.50141 24.9332 13.3865 24.9332ZM11.3132 15.0023L17.0937 9.78577C17.3475 9.5606 17.0383 9.4508 16.7015 9.65504L9.56722 14.156L6.48558 13.1942C5.82008 12.9904 5.8153 12.5331 6.63499 12.2043L18.6434 7.57391C19.1919 7.32491 19.7213 7.70564 19.5119 8.54508L17.4669 18.1821C17.324 18.8669 16.9103 19.0307 16.337 18.7144L13.2217 16.4128L11.7243 17.8688C11.5504 18.0379 11.4127 18.1805 11.101 18.1805L11.3132 15.0023Z" fill="white"/>
</svg>
