<svg width="47" height="45" viewBox="0 0 47 45" fill="none" xmlns="http://www.w3.org/2000/svg">
<path d="M23.11 44.3146C35.8046 44.3146 46.0955 34.4023 46.0955 22.1748C46.0955 9.94726 35.8046 0.0349121 23.11 0.0349121C10.4155 0.0349121 0.124512 9.94726 0.124512 22.1748C0.124512 34.4023 10.4155 44.3146 23.11 44.3146Z" fill="#F3BA2F"/>
<path d="M18.4881 20.3463L23.1102 15.8943L27.7343 20.3482L30.424 17.7574L23.1102 10.7126L15.7983 17.7555L18.4881 20.3463ZM11.21 22.1751L13.8997 19.5842L16.5895 22.1751L13.8997 24.7659L11.21 22.1751ZM18.4881 24.0048L23.1102 28.4568L27.7343 24.0029L30.425 26.5918L30.424 26.5927L23.1102 33.6375L15.7983 26.5946L15.7944 26.5908L18.4881 24.0048ZM29.6319 22.176L32.3217 19.5852L35.0114 22.176L32.3217 24.7668L29.6319 22.176Z" fill="white"/>
<path d="M25.8378 22.1737L25.8388 22.1737L23.1093 19.5447L21.0927 21.4871L20.8607 21.7105L20.3829 22.1708L20.3789 22.1746L20.3829 22.1785L23.1093 24.8046L25.8388 22.1756L25.8398 22.1737L25.8378 22.1737Z" fill="white"/>
</svg>
