<svg width="38" height="39" viewBox="0 0 38 39" fill="none" xmlns="http://www.w3.org/2000/svg">
<rect x="1" y="1.03711" width="36" height="36.7014" rx="9" stroke="white" stroke-width="2"/>
<path d="M19.5 19.897C18.1938 19.897 17.0755 19.4233 16.1453 18.476C15.2151 17.5286 14.75 16.3897 14.75 15.0594C14.75 13.729 15.2151 12.5901 16.1453 11.6427C17.0755 10.6954 18.1938 10.2217 19.5 10.2217C20.8062 10.2217 21.9245 10.6954 22.8547 11.6427C23.7849 12.5901 24.25 13.729 24.25 15.0594C24.25 16.3897 23.7849 17.5286 22.8547 18.476C21.9245 19.4233 20.8062 19.897 19.5 19.897ZM10 29.5724V26.186C10 25.5007 10.1734 24.8706 10.5201 24.2957C10.8661 23.7216 11.326 23.2834 11.9 22.9811C13.1271 22.3562 14.374 21.8873 15.6406 21.5745C16.9073 21.2625 18.1938 21.1065 19.5 21.1065C20.8062 21.1065 22.0927 21.2625 23.3594 21.5745C24.626 21.8873 25.8729 22.3562 27.1 22.9811C27.674 23.2834 28.1339 23.7216 28.4799 24.2957C28.8266 24.8706 29 25.5007 29 26.186V29.5724H10Z" fill="white"/>
</svg>
