<svg width="85" height="85" viewBox="0 0 85 85" fill="none" xmlns="http://www.w3.org/2000/svg">
<g filter="url(#filter0_i_1273_830)">
<rect width="85" height="85" rx="15" fill="url(#paint0_linear_1273_830)" fill-opacity="0.25"/>
</g>
<rect x="0.5" y="0.5" width="84" height="84" rx="14.5" stroke="url(#paint1_linear_1273_830)"/>
<path d="M39.35 46.55L34.5125 41.7125C34.1 41.3 33.575 41.0937 32.9375 41.0937C32.3 41.0937 31.775 41.3 31.3625 41.7125C30.95 42.125 30.7437 42.65 30.7437 43.2875C30.7437 43.925 30.95 44.45 31.3625 44.8625L37.775 51.275C38.225 51.725 38.75 51.95 39.35 51.95C39.95 51.95 40.475 51.725 40.925 51.275L53.6375 38.5625C54.05 38.15 54.2562 37.625 54.2562 36.9875C54.2562 36.35 54.05 35.825 53.6375 35.4125C53.225 35 52.7 34.7937 52.0625 34.7937C51.425 34.7937 50.9 35 50.4875 35.4125L39.35 46.55ZM42.5 65C39.3875 65 36.4625 64.409 33.725 63.227C30.9875 62.045 28.6062 60.4422 26.5812 58.4187C24.5563 56.3937 22.9535 54.0125 21.773 51.275C20.5925 48.5375 20.0015 45.6125 20 42.5C20 39.3875 20.591 36.4625 21.773 33.725C22.955 30.9875 24.5577 28.6062 26.5812 26.5812C28.6062 24.5563 30.9875 22.9535 33.725 21.773C36.4625 20.5925 39.3875 20.0015 42.5 20C45.6125 20 48.5375 20.591 51.275 21.773C54.0125 22.955 56.3937 24.5577 58.4187 26.5812C60.4437 28.6062 62.0472 30.9875 63.2292 33.725C64.4112 36.4625 65.0015 39.3875 65 42.5C65 45.6125 64.409 48.5375 63.227 51.275C62.045 54.0125 60.4422 56.3937 58.4187 58.4187C56.3937 60.4437 54.0125 62.0472 51.275 63.2292C48.5375 64.4112 45.6125 65.0015 42.5 65Z" fill="url(#paint2_linear_1273_830)"/>
<defs>
<filter id="filter0_i_1273_830" x="0" y="0" width="85" height="85" filterUnits="userSpaceOnUse" color-interpolation-filters="sRGB">
<feFlood flood-opacity="0" result="BackgroundImageFix"/>
<feBlend mode="normal" in="SourceGraphic" in2="BackgroundImageFix" result="shape"/>
<feColorMatrix in="SourceAlpha" type="matrix" values="0 0 0 0 0 0 0 0 0 0 0 0 0 0 0 0 0 0 127 0" result="hardAlpha"/>
<feOffset/>
<feGaussianBlur stdDeviation="5"/>
<feComposite in2="hardAlpha" operator="arithmetic" k2="-1" k3="1"/>
<feColorMatrix type="matrix" values="0 0 0 0 0.754167 0 0 0 0 1 0 0 0 0 0.95575 0 0 0 0.4 0"/>
<feBlend mode="normal" in2="shape" result="effect1_innerShadow_1273_830"/>
</filter>
<linearGradient id="paint0_linear_1273_830" x1="85" y1="85" x2="22.6954" y2="-0.627742" gradientUnits="userSpaceOnUse">
<stop stop-color="#2D7EC8"/>
<stop offset="1" stop-color="#B5FFD3"/>
</linearGradient>
<linearGradient id="paint1_linear_1273_830" x1="0" y1="0" x2="84.9995" y2="85.0005" gradientUnits="userSpaceOnUse">
<stop stop-color="#00C5D3"/>
<stop offset="0.495235" stop-color="#96E0DA" stop-opacity="0"/>
<stop offset="1" stop-color="#00C5D3"/>
</linearGradient>
<linearGradient id="paint2_linear_1273_830" x1="34.0302" y1="65" x2="34.0307" y2="22.4216" gradientUnits="userSpaceOnUse">
<stop stop-color="#00C5D3"/>
<stop offset="1" stop-color="#42EECF"/>
</linearGradient>
</defs>
</svg>
