<svg width="85" height="85" viewBox="0 0 85 85" fill="none" xmlns="http://www.w3.org/2000/svg">
<g filter="url(#filter0_i_1273_814)">
<rect width="85" height="85" rx="15" fill="url(#paint0_linear_1273_814)" fill-opacity="0.25"/>
</g>
<rect x="0.5" y="0.5" width="84" height="84" rx="14.5" stroke="url(#paint1_linear_1273_814)"/>
<path d="M65 27.0312C65 28.6133 63.7432 30.0723 61.625 31.25C59.0674 32.665 55.2529 33.667 50.876 33.9658C50.5508 33.8076 50.2256 33.6582 49.8828 33.5264C46.4199 32.0762 41.8145 31.25 36.875 31.25C36.1455 31.25 35.4336 31.2676 34.7217 31.3027L34.625 31.25C32.5068 30.0723 31.25 28.6133 31.25 27.0312C31.25 23.1465 38.8086 20 48.125 20C57.4414 20 65 23.1465 65 27.0312ZM34.124 34.1592C35.0205 34.0977 35.9434 34.0625 36.875 34.0625C42.3418 34.0625 47.1934 35.1436 50.2783 36.8223C52.458 38.0088 53.75 39.4854 53.75 41.0938C53.75 41.4453 53.6885 41.7881 53.5654 42.1221C53.1611 43.2822 52.0713 44.3457 50.4893 45.2422C50.4805 45.251 50.4629 45.251 50.4541 45.2598C50.4277 45.2773 50.4014 45.2861 50.375 45.3037C47.2988 47.0088 42.3945 48.1162 36.875 48.1162C31.6367 48.1162 26.9521 47.123 23.8496 45.5586C23.6826 45.4795 23.5244 45.3916 23.3662 45.3037C21.2568 44.1348 20 42.6758 20 41.0938C20 38.0352 24.6934 35.4248 31.25 34.4668C32.1729 34.335 33.1309 34.2295 34.124 34.1592ZM56.5625 41.0938C56.5625 39.1689 55.6309 37.5869 54.4443 36.4004C56.9316 36.0137 59.208 35.3984 61.1416 34.5986C62.5742 34.001 63.9102 33.2627 65 32.3574V35.4688C65 37.165 63.5498 38.7295 61.1504 39.9424C59.8672 40.5928 58.3027 41.1465 56.5449 41.5684C56.5537 41.4102 56.5625 41.2607 56.5625 41.1025V41.0938ZM53.75 49.5312C53.75 51.1133 52.4932 52.5723 50.375 53.75C50.2168 53.8379 50.0586 53.917 49.8916 54.0049C46.7979 55.5693 42.1133 56.5625 36.875 56.5625C31.3555 56.5625 26.4512 55.4551 23.375 53.75C21.2568 52.5723 20 51.1133 20 49.5312V46.4199C21.0986 47.3252 22.4258 48.0635 23.8584 48.6611C27.3301 50.1113 31.9355 50.9375 36.875 50.9375C41.8145 50.9375 46.4199 50.1113 49.8916 48.6611C50.5771 48.3799 51.2363 48.0547 51.8604 47.7031C52.3965 47.4043 52.8975 47.0703 53.3721 46.7188C53.5039 46.6221 53.627 46.5166 53.75 46.4199V49.5312ZM56.5625 49.5312V44.4424C58.2324 44.0732 59.7705 43.6074 61.1416 43.0361C62.5742 42.4385 63.9102 41.7002 65 40.7949V43.9062C65 44.8291 64.5605 45.752 63.6904 46.6221C62.2578 48.0547 59.7354 49.2324 56.5449 49.9971C56.5537 49.8477 56.5625 49.6895 56.5625 49.5312ZM36.875 59.375C41.8145 59.375 46.4199 58.5488 49.8916 57.0986C51.3242 56.501 52.6602 55.7627 53.75 54.8574V57.9688C53.75 61.8535 46.1914 65 36.875 65C27.5586 65 20 61.8535 20 57.9688V54.8574C21.0986 55.7627 22.4258 56.501 23.8584 57.0986C27.3301 58.5488 31.9355 59.375 36.875 59.375Z" fill="url(#paint2_linear_1273_814)"/>
<defs>
<filter id="filter0_i_1273_814" x="0" y="0" width="85" height="85" filterUnits="userSpaceOnUse" color-interpolation-filters="sRGB">
<feFlood flood-opacity="0" result="BackgroundImageFix"/>
<feBlend mode="normal" in="SourceGraphic" in2="BackgroundImageFix" result="shape"/>
<feColorMatrix in="SourceAlpha" type="matrix" values="0 0 0 0 0 0 0 0 0 0 0 0 0 0 0 0 0 0 127 0" result="hardAlpha"/>
<feOffset/>
<feGaussianBlur stdDeviation="5"/>
<feComposite in2="hardAlpha" operator="arithmetic" k2="-1" k3="1"/>
<feColorMatrix type="matrix" values="0 0 0 0 0.754167 0 0 0 0 1 0 0 0 0 0.95575 0 0 0 0.4 0"/>
<feBlend mode="normal" in2="shape" result="effect1_innerShadow_1273_814"/>
</filter>
<linearGradient id="paint0_linear_1273_814" x1="85" y1="85" x2="22.6954" y2="-0.627742" gradientUnits="userSpaceOnUse">
<stop stop-color="#2D7EC8"/>
<stop offset="1" stop-color="#B5FFD3"/>
</linearGradient>
<linearGradient id="paint1_linear_1273_814" x1="0" y1="0" x2="84.9995" y2="85.0005" gradientUnits="userSpaceOnUse">
<stop stop-color="#00C5D3"/>
<stop offset="0.495235" stop-color="#96E0DA" stop-opacity="0"/>
<stop offset="1" stop-color="#00C5D3"/>
</linearGradient>
<linearGradient id="paint2_linear_1273_814" x1="34.0302" y1="65" x2="34.0307" y2="22.4216" gradientUnits="userSpaceOnUse">
<stop stop-color="#00C5D3"/>
<stop offset="1" stop-color="#42EECF"/>
</linearGradient>
</defs>
</svg>
