<svg width="583" height="867" viewBox="0 0 583 867" fill="none" xmlns="http://www.w3.org/2000/svg">
<g filter="url(#filter0_f_1280_202)">
<path opacity="0.6" d="M266.187 815.917L72.2547 703.972C58.515 696.089 60.0917 682.124 76.0838 672.889L262.358 565.449C278.35 556.214 302.451 555.313 316.19 563.197L510.123 675.141C523.863 683.025 522.286 696.99 506.294 706.225L320.02 813.665C304.027 822.899 279.927 823.8 266.187 815.917Z" fill="#0C0F38"/>
<path d="M289.388 847C278.576 847 268.441 844.748 260.782 840.468L32.163 708.477C24.2796 703.972 20 697.665 20 690.683C20 682.349 26.0815 674.015 36.6678 667.934L256.052 541.348C275.423 530.086 304.93 528.96 321.823 538.645L550.217 670.411C558.1 674.916 562.38 681.223 562.38 688.205C562.38 696.539 556.298 704.873 545.712 710.955L326.327 837.54C315.741 843.847 302.227 847 289.388 847ZM262.81 836.414C278.351 845.423 305.831 844.297 323.85 833.711L543.234 707.126C552.469 701.945 557.65 694.963 557.65 688.431C557.65 683.025 554.271 678.069 547.739 674.466L319.345 542.475C303.803 533.465 276.324 534.591 258.305 545.177L38.9202 671.763C29.6853 676.943 24.5048 683.926 24.5048 690.458C24.5048 695.864 27.8834 700.819 34.4154 704.423L262.81 836.414Z" fill="url(#paint0_linear_1280_202)"/>
<path d="M519.361 575.81H423.183L316.193 514.094C302.454 506.211 278.353 507.112 262.361 516.347L159.201 576.036H63.0228V640.68C62.5723 646.085 65.7257 651.266 72.2576 655.095L266.19 767.04C279.93 774.923 304.03 774.022 320.022 764.787L506.297 657.347C514.631 652.617 518.91 646.536 519.361 640.68V575.81Z" fill="url(#paint1_linear_1280_202)"/>
<path d="M506.297 652.617L320.022 760.057C304.03 769.292 279.93 770.193 266.19 762.31L72.2576 650.365C65.7257 646.536 62.5723 641.355 63.0228 635.949V640.454C62.5723 645.86 65.7257 651.041 72.2576 654.87L266.19 766.814C279.93 774.698 304.03 773.797 320.022 764.562L506.297 657.122C514.631 652.392 518.91 646.311 519.361 640.454V635.949C518.91 641.806 514.631 647.887 506.297 652.617Z" fill="#09D3BF"/>
<path d="M69.1043 644.959V580.315H165.282L268.442 520.626C284.434 511.391 308.535 510.49 322.275 518.374L429.264 580.09H519.361V575.585H423.183L316.193 513.869C302.454 505.986 278.353 506.887 262.361 516.121L159.201 575.81H63.0228V640.454C62.5723 645.86 65.7257 651.041 72.2576 654.87L73.3838 655.545C70.2305 652.167 68.879 648.563 69.1043 644.959Z" fill="#09D3BF"/>
<path d="M513.954 580.991V645.184C513.729 648.563 512.152 651.942 509.449 655.095C515.756 650.59 519.135 645.41 519.585 640.454V576.486C517.558 577.837 515.531 579.189 513.954 580.991Z" fill="#6EE8FC"/>
<path d="M266.187 702.171L72.2547 590.226C58.515 582.342 60.0917 568.377 76.0838 559.143L262.358 451.703C278.35 442.468 302.451 441.567 316.19 449.45L510.123 561.395C523.863 569.278 522.286 583.243 506.294 592.478L320.02 699.918C304.027 709.153 279.927 710.279 266.187 702.171Z" fill="url(#paint2_linear_1280_202)"/>
<path d="M510.123 561.395L316.191 449.45C308.983 445.396 299.072 443.594 288.937 444.27C296.37 444.72 303.127 446.522 308.533 449.45L502.465 561.395C516.205 569.278 514.628 583.243 498.636 592.478L312.362 699.918C304.703 704.423 295.018 706.9 285.783 707.351C297.496 708.027 310.334 705.549 320.02 699.918L506.294 592.478C522.286 583.243 523.863 569.278 510.123 561.395Z" fill="#6EE8FC"/>
<path d="M272.499 669.961L128.119 586.622C117.758 580.766 119.11 570.405 131.048 563.422L269.796 483.462C281.734 476.704 299.528 475.803 309.889 481.885L454.268 565.224C464.629 571.08 463.278 581.441 451.34 588.424L312.592 668.384C300.879 675.142 282.86 675.817 272.499 669.961Z" fill="url(#paint3_linear_1280_202)"/>
<path d="M277.676 644.058L173.165 583.694C165.732 579.414 166.633 571.981 175.192 567.026L275.649 509.139C284.208 504.184 297.272 503.733 304.705 508.013L409.217 568.377C416.65 572.657 415.749 580.09 407.19 585.045L306.732 642.932C298.173 647.662 285.109 648.338 277.676 644.058Z" fill="#6DE0F6"/>
<path d="M274.971 702.17L81.039 590.226C67.2994 582.342 68.876 568.377 84.8681 559.142L271.142 451.703C278.8 447.423 288.035 444.945 297.27 444.27C285.332 443.369 272.269 446.072 262.358 451.703L76.0838 559.142C60.0917 568.377 58.515 582.342 72.2547 590.226L266.187 702.17C273.395 706.45 283.531 708.027 293.666 707.351C286.684 706.9 280.152 705.098 274.971 702.17Z" fill="#09D3BF"/>
<mask id="mask0_1280_202" style="mask-type:luminance" maskUnits="userSpaceOnUse" x="168" y="505" width="247" height="142">
<path d="M277.668 644.058L173.157 583.694C165.724 579.414 166.625 571.981 175.184 567.026L275.641 509.139C284.2 504.184 297.264 503.733 304.697 508.013L409.209 568.377C416.642 572.657 415.741 580.09 407.182 585.045L306.724 642.932C298.165 647.662 285.101 648.338 277.668 644.058Z" fill="white"/>
</mask>
<g mask="url(#mask0_1280_202)">
<path d="M175.183 574.909L275.641 516.797C284.2 511.842 297.264 511.391 304.697 515.671L409.434 576.035C411.01 576.936 412.362 578.063 413.037 579.414C415.515 575.36 414.389 570.855 409.434 567.927L304.697 507.562C297.264 503.283 284.2 503.733 275.641 508.688L175.183 566.8C168.426 570.63 166.624 576.035 169.552 580.315C170.453 578.513 172.48 576.486 175.183 574.909Z" fill="#267FE5"/>
</g>
<mask id="mask1_1280_202" style="mask-type:luminance" maskUnits="userSpaceOnUse" x="168" y="505" width="247" height="142">
<path d="M277.668 644.058L173.157 583.694C165.724 579.414 166.625 571.981 175.184 567.026L275.641 509.139C284.2 504.184 297.264 503.733 304.697 508.013L409.209 568.377C416.642 572.657 415.741 580.09 407.182 585.045L306.724 642.932C298.165 647.662 285.101 648.338 277.668 644.058Z" fill="white"/>
</mask>
<g mask="url(#mask1_1280_202)">
<path d="M175.186 584.82L275.644 526.708C284.203 521.752 297.267 521.302 304.7 525.581L409.437 585.946C410.788 586.622 411.689 587.523 412.59 588.424C415.969 584.144 415.068 579.189 409.437 576.035L304.7 515.896C297.267 511.616 284.203 512.067 275.644 517.022L175.186 575.134C168.204 579.189 166.402 585.045 170.006 589.325C171.132 587.748 172.934 586.171 175.186 584.82Z" fill="#25BFEC"/>
</g>
<mask id="mask2_1280_202" style="mask-type:luminance" maskUnits="userSpaceOnUse" x="168" y="505" width="247" height="142">
<path d="M277.668 644.058L173.157 583.694C165.724 579.414 166.625 571.981 175.184 567.026L275.641 509.139C284.2 504.184 297.264 503.733 304.697 508.013L409.209 568.377C416.642 572.657 415.741 580.09 407.182 585.045L306.724 642.932C298.165 647.662 285.101 648.338 277.668 644.058Z" fill="white"/>
</mask>
<g mask="url(#mask2_1280_202)">
<path d="M170.909 600.136C172.035 599.01 173.387 597.884 174.963 596.983L275.421 538.871C283.98 533.915 297.044 533.465 304.477 537.744L409.214 598.109C410.115 598.559 410.565 599.01 411.241 599.686C415.746 595.181 415.07 589.55 409.214 586.171L304.702 525.581C297.269 521.302 284.205 521.752 275.646 526.708L175.188 584.82C167.53 589.325 165.954 595.856 170.909 600.136Z" fill="#18D0F7"/>
</g>
<path opacity="0.2" d="M414.795 20H167.795V584.917C167.795 587.297 169.375 589.678 172.762 591.265L277.522 644.424C284.973 648.193 298.068 647.796 306.648 643.432L407.344 592.455C411.86 590.273 414.118 587.297 414.343 584.521V20H414.795Z" fill="url(#paint4_linear_1280_202)"/>
<path d="M314.841 374.67C314.841 378.274 311.913 381.202 308.309 381.202C304.705 381.202 301.777 378.274 301.777 374.67C301.777 371.066 304.705 368.138 308.309 368.138C311.913 368.138 314.841 371.066 314.841 374.67Z" fill="#6DE0F6"/>
<path d="M273.623 334.577C276.235 334.577 278.353 332.46 278.353 329.847C278.353 327.235 276.235 325.117 273.623 325.117C271.01 325.117 268.893 327.235 268.893 329.847C268.893 332.46 271.01 334.577 273.623 334.577Z" fill="#6DE0F6"/>
<path d="M312.363 279.844C312.363 285.7 307.633 290.655 301.552 290.655C295.696 290.655 290.74 285.925 290.74 279.844C290.74 273.762 295.47 269.032 301.552 269.032C307.408 269.032 312.363 273.762 312.363 279.844Z" fill="#6DE0F6"/>
<path d="M276.099 199.433C276.099 202.136 273.846 204.163 271.369 204.163C268.891 204.163 266.639 201.91 266.639 199.433C266.639 196.73 268.891 194.703 271.369 194.703C273.846 194.703 276.099 196.73 276.099 199.433Z" fill="#6DE0F6"/>
<path d="M312.359 425.8C314.971 425.8 317.089 423.682 317.089 421.07C317.089 418.457 314.971 416.34 312.359 416.34C309.747 416.34 307.629 418.457 307.629 421.07C307.629 423.682 309.747 425.8 312.359 425.8Z" fill="#6DE0F6"/>
<path d="M311.009 135.915C311.009 137.717 309.432 139.293 307.631 139.293C305.829 139.293 304.252 137.717 304.252 135.915C304.252 134.113 305.829 132.536 307.631 132.536C309.432 132.536 311.009 133.888 311.009 135.915Z" fill="#6DE0F6"/>
<path d="M273.399 92.4434C274.27 92.4434 274.976 91.7375 274.976 90.8667C274.976 89.9959 274.27 89.29 273.399 89.29C272.528 89.29 271.822 89.9959 271.822 90.8667C271.822 91.7375 272.528 92.4434 273.399 92.4434Z" fill="#6DE0F6"/>
<path d="M276.549 361.831C282.023 361.831 286.46 357.394 286.46 351.921C286.46 346.447 282.023 342.01 276.549 342.01C271.076 342.01 266.639 346.447 266.639 351.921C266.639 357.394 271.076 361.831 276.549 361.831Z" fill="#6DE0F6"/>
<path d="M276.099 230.516C276.099 233.219 273.846 235.246 271.369 235.246C268.891 235.246 266.639 232.994 266.639 230.516C266.639 227.813 268.891 225.786 271.369 225.786C273.846 225.786 276.099 228.038 276.099 230.516Z" fill="#6DE0F6"/>
<path d="M284.209 213.848C284.209 214.974 283.308 215.875 282.181 215.875C281.055 215.875 280.154 214.974 280.154 213.848C280.154 212.722 281.055 211.821 282.181 211.821C283.308 211.821 284.209 212.722 284.209 213.848Z" fill="#6DE0F6"/>
<path d="M304.479 299.89C304.479 302.142 302.677 304.17 300.199 304.17C297.947 304.17 295.92 302.368 295.92 299.89C295.92 297.412 297.722 295.61 300.199 295.61C302.677 295.836 304.479 297.638 304.479 299.89Z" fill="#6DE0F6"/>
</g>
<path opacity="0.6" d="M266.187 815.917L72.2547 703.972C58.515 696.089 60.0917 682.124 76.0838 672.889L262.358 565.449C278.35 556.214 302.451 555.313 316.19 563.197L510.123 675.141C523.863 683.025 522.286 696.99 506.294 706.225L320.02 813.665C304.027 822.899 279.927 823.8 266.187 815.917Z" fill="#0C0F38"/>
<path d="M289.388 847C278.576 847 268.441 844.748 260.782 840.468L32.163 708.477C24.2796 703.972 20 697.665 20 690.683C20 682.349 26.0815 674.015 36.6678 667.934L256.052 541.348C275.423 530.086 304.93 528.96 321.823 538.645L550.217 670.411C558.1 674.916 562.38 681.223 562.38 688.205C562.38 696.539 556.298 704.873 545.712 710.955L326.327 837.54C315.741 843.847 302.227 847 289.388 847ZM262.81 836.414C278.351 845.423 305.831 844.297 323.85 833.711L543.234 707.126C552.469 701.945 557.65 694.963 557.65 688.431C557.65 683.025 554.271 678.069 547.739 674.466L319.345 542.475C303.803 533.465 276.324 534.591 258.305 545.177L38.9202 671.763C29.6853 676.943 24.5048 683.926 24.5048 690.458C24.5048 695.864 27.8834 700.819 34.4154 704.423L262.81 836.414Z" fill="url(#paint5_linear_1280_202)"/>
<path d="M519.361 575.81H423.183L316.193 514.094C302.454 506.211 278.353 507.112 262.361 516.347L159.201 576.036H63.0228V640.68C62.5723 646.085 65.7257 651.266 72.2576 655.095L266.19 767.04C279.93 774.923 304.03 774.022 320.022 764.787L506.297 657.347C514.631 652.617 518.91 646.536 519.361 640.68V575.81Z" fill="url(#paint6_linear_1280_202)"/>
<path d="M506.297 652.617L320.022 760.057C304.03 769.292 279.93 770.193 266.19 762.31L72.2576 650.365C65.7257 646.536 62.5723 641.355 63.0228 635.949V640.454C62.5723 645.86 65.7257 651.041 72.2576 654.87L266.19 766.814C279.93 774.698 304.03 773.797 320.022 764.562L506.297 657.122C514.631 652.392 518.91 646.311 519.361 640.454V635.949C518.91 641.806 514.631 647.887 506.297 652.617Z" fill="#09D3BF"/>
<path d="M69.1043 644.959V580.315H165.282L268.442 520.626C284.434 511.391 308.535 510.49 322.275 518.374L429.264 580.09H519.361V575.585H423.183L316.193 513.869C302.454 505.986 278.353 506.887 262.361 516.121L159.201 575.81H63.0228V640.454C62.5723 645.86 65.7257 651.041 72.2576 654.87L73.3838 655.545C70.2305 652.167 68.879 648.563 69.1043 644.959Z" fill="#09D3BF"/>
<path d="M513.954 580.991V645.184C513.729 648.563 512.152 651.942 509.449 655.095C515.756 650.59 519.135 645.41 519.585 640.454V576.486C517.558 577.837 515.531 579.189 513.954 580.991Z" fill="#6EE8FC"/>
<path d="M266.187 702.171L72.2547 590.226C58.515 582.342 60.0917 568.377 76.0838 559.143L262.358 451.703C278.35 442.468 302.451 441.567 316.19 449.45L510.123 561.395C523.863 569.278 522.286 583.243 506.294 592.478L320.02 699.918C304.027 709.153 279.927 710.279 266.187 702.171Z" fill="url(#paint7_linear_1280_202)"/>
<path d="M510.123 561.395L316.191 449.45C308.983 445.396 299.072 443.594 288.937 444.27C296.37 444.72 303.127 446.522 308.533 449.45L502.465 561.395C516.205 569.278 514.628 583.243 498.636 592.478L312.362 699.918C304.703 704.423 295.018 706.9 285.783 707.351C297.496 708.027 310.334 705.549 320.02 699.918L506.294 592.478C522.286 583.243 523.863 569.278 510.123 561.395Z" fill="#6EE8FC"/>
<path d="M272.499 669.961L128.119 586.622C117.758 580.766 119.11 570.405 131.048 563.422L269.796 483.462C281.734 476.704 299.528 475.803 309.889 481.885L454.268 565.224C464.629 571.08 463.278 581.441 451.34 588.424L312.592 668.384C300.879 675.142 282.86 675.817 272.499 669.961Z" fill="url(#paint8_linear_1280_202)"/>
<path d="M277.676 644.058L173.165 583.694C165.732 579.414 166.633 571.981 175.192 567.026L275.649 509.139C284.208 504.184 297.272 503.733 304.705 508.013L409.217 568.377C416.65 572.657 415.749 580.09 407.19 585.045L306.732 642.932C298.173 647.662 285.109 648.338 277.676 644.058Z" fill="#6DE0F6"/>
<path d="M274.971 702.17L81.039 590.226C67.2994 582.342 68.876 568.377 84.8681 559.142L271.142 451.703C278.8 447.423 288.035 444.945 297.27 444.27C285.332 443.369 272.269 446.072 262.358 451.703L76.0838 559.142C60.0917 568.377 58.515 582.342 72.2547 590.226L266.187 702.17C273.395 706.45 283.531 708.027 293.666 707.351C286.684 706.9 280.152 705.098 274.971 702.17Z" fill="#09D3BF"/>
<mask id="mask3_1280_202" style="mask-type:luminance" maskUnits="userSpaceOnUse" x="168" y="505" width="247" height="142">
<path d="M277.668 644.058L173.157 583.694C165.724 579.414 166.625 571.981 175.184 567.026L275.641 509.139C284.2 504.184 297.264 503.733 304.697 508.013L409.209 568.377C416.642 572.657 415.741 580.09 407.182 585.045L306.724 642.932C298.165 647.662 285.101 648.338 277.668 644.058Z" fill="white"/>
</mask>
<g mask="url(#mask3_1280_202)">
<path d="M175.183 574.909L275.641 516.797C284.2 511.842 297.264 511.391 304.697 515.671L409.434 576.035C411.01 576.936 412.362 578.063 413.037 579.414C415.515 575.36 414.389 570.855 409.434 567.927L304.697 507.562C297.264 503.283 284.2 503.733 275.641 508.688L175.183 566.8C168.426 570.63 166.624 576.035 169.552 580.315C170.453 578.513 172.48 576.486 175.183 574.909Z" fill="#267FE5"/>
</g>
<mask id="mask4_1280_202" style="mask-type:luminance" maskUnits="userSpaceOnUse" x="168" y="505" width="247" height="142">
<path d="M277.668 644.058L173.157 583.694C165.724 579.414 166.625 571.981 175.184 567.026L275.641 509.139C284.2 504.184 297.264 503.733 304.697 508.013L409.209 568.377C416.642 572.657 415.741 580.09 407.182 585.045L306.724 642.932C298.165 647.662 285.101 648.338 277.668 644.058Z" fill="white"/>
</mask>
<g mask="url(#mask4_1280_202)">
<path d="M175.186 584.82L275.644 526.708C284.203 521.752 297.267 521.302 304.7 525.581L409.437 585.946C410.788 586.622 411.689 587.523 412.59 588.424C415.969 584.144 415.068 579.189 409.437 576.035L304.7 515.896C297.267 511.616 284.203 512.067 275.644 517.022L175.186 575.134C168.204 579.189 166.402 585.045 170.006 589.325C171.132 587.748 172.934 586.171 175.186 584.82Z" fill="#25BFEC"/>
</g>
<mask id="mask5_1280_202" style="mask-type:luminance" maskUnits="userSpaceOnUse" x="168" y="505" width="247" height="142">
<path d="M277.668 644.058L173.157 583.694C165.724 579.414 166.625 571.981 175.184 567.026L275.641 509.139C284.2 504.184 297.264 503.733 304.697 508.013L409.209 568.377C416.642 572.657 415.741 580.09 407.182 585.045L306.724 642.932C298.165 647.662 285.101 648.338 277.668 644.058Z" fill="white"/>
</mask>
<g mask="url(#mask5_1280_202)">
<path d="M170.909 600.136C172.035 599.01 173.387 597.884 174.963 596.983L275.421 538.871C283.98 533.915 297.044 533.465 304.477 537.744L409.214 598.109C410.115 598.559 410.565 599.01 411.241 599.686C415.746 595.181 415.07 589.55 409.214 586.171L304.702 525.581C297.269 521.302 284.205 521.752 275.646 526.708L175.188 584.82C167.53 589.325 165.954 595.856 170.909 600.136Z" fill="#18D0F7"/>
</g>
<path opacity="0.2" d="M414.795 20H167.795V584.917C167.795 587.297 169.375 589.678 172.762 591.265L277.522 644.424C284.973 648.193 298.068 647.796 306.648 643.432L407.344 592.455C411.86 590.273 414.118 587.297 414.343 584.521V20H414.795Z" fill="url(#paint9_linear_1280_202)"/>
<path d="M314.841 374.67C314.841 378.274 311.913 381.202 308.309 381.202C304.705 381.202 301.777 378.274 301.777 374.67C301.777 371.066 304.705 368.138 308.309 368.138C311.913 368.138 314.841 371.066 314.841 374.67Z" fill="#6DE0F6"/>
<path d="M273.623 334.577C276.235 334.577 278.353 332.46 278.353 329.847C278.353 327.235 276.235 325.117 273.623 325.117C271.01 325.117 268.893 327.235 268.893 329.847C268.893 332.46 271.01 334.577 273.623 334.577Z" fill="#6DE0F6"/>
<path d="M312.363 279.844C312.363 285.7 307.633 290.655 301.552 290.655C295.696 290.655 290.74 285.925 290.74 279.844C290.74 273.762 295.47 269.032 301.552 269.032C307.408 269.032 312.363 273.762 312.363 279.844Z" fill="#6DE0F6"/>
<path d="M276.099 199.433C276.099 202.136 273.846 204.163 271.369 204.163C268.891 204.163 266.639 201.91 266.639 199.433C266.639 196.73 268.891 194.703 271.369 194.703C273.846 194.703 276.099 196.73 276.099 199.433Z" fill="#6DE0F6"/>
<path d="M312.359 425.8C314.971 425.8 317.089 423.682 317.089 421.07C317.089 418.457 314.971 416.34 312.359 416.34C309.747 416.34 307.629 418.457 307.629 421.07C307.629 423.682 309.747 425.8 312.359 425.8Z" fill="#6DE0F6"/>
<path d="M311.009 135.915C311.009 137.717 309.432 139.293 307.631 139.293C305.829 139.293 304.252 137.717 304.252 135.915C304.252 134.113 305.829 132.536 307.631 132.536C309.432 132.536 311.009 133.888 311.009 135.915Z" fill="#6DE0F6"/>
<path d="M273.399 92.4434C274.27 92.4434 274.976 91.7375 274.976 90.8667C274.976 89.9959 274.27 89.29 273.399 89.29C272.528 89.29 271.822 89.9959 271.822 90.8667C271.822 91.7375 272.528 92.4434 273.399 92.4434Z" fill="#6DE0F6"/>
<path d="M276.549 361.831C282.023 361.831 286.46 357.394 286.46 351.921C286.46 346.447 282.023 342.01 276.549 342.01C271.076 342.01 266.639 346.447 266.639 351.921C266.639 357.394 271.076 361.831 276.549 361.831Z" fill="#6DE0F6"/>
<path d="M276.099 230.516C276.099 233.219 273.846 235.246 271.369 235.246C268.891 235.246 266.639 232.994 266.639 230.516C266.639 227.813 268.891 225.786 271.369 225.786C273.846 225.786 276.099 228.038 276.099 230.516Z" fill="#6DE0F6"/>
<path d="M284.209 213.848C284.209 214.974 283.308 215.875 282.181 215.875C281.055 215.875 280.154 214.974 280.154 213.848C280.154 212.722 281.055 211.821 282.181 211.821C283.308 211.821 284.209 212.722 284.209 213.848Z" fill="#6DE0F6"/>
<path d="M304.479 299.89C304.479 302.142 302.677 304.17 300.199 304.17C297.947 304.17 295.92 302.368 295.92 299.89C295.92 297.412 297.722 295.61 300.199 295.61C302.677 295.836 304.479 297.638 304.479 299.89Z" fill="#6DE0F6"/>
<defs>
<filter id="filter0_f_1280_202" x="0" y="0" width="582.379" height="867" filterUnits="userSpaceOnUse" color-interpolation-filters="sRGB">
<feFlood flood-opacity="0" result="BackgroundImageFix"/>
<feBlend mode="normal" in="SourceGraphic" in2="BackgroundImageFix" result="shape"/>
<feGaussianBlur stdDeviation="10" result="effect1_foregroundBlur_1280_202"/>
</filter>
<linearGradient id="paint0_linear_1280_202" x1="266.747" y1="535.097" x2="315.633" y2="843.749" gradientUnits="userSpaceOnUse">
<stop stop-color="#6EE8FC"/>
<stop offset="0.2204" stop-color="#6EE8FC"/>
<stop offset="0.4892" stop-color="#6EE1F8"/>
<stop offset="0.7742" stop-color="#08A1D4"/>
<stop offset="1" stop-color="#08D4B9"/>
</linearGradient>
<linearGradient id="paint1_linear_1280_202" x1="19.7909" y1="640.399" x2="575.929" y2="640.399" gradientUnits="userSpaceOnUse">
<stop stop-color="#1FA99D"/>
<stop offset="0.0311559" stop-color="#1B9A9B"/>
<stop offset="0.1021" stop-color="#137D96"/>
<stop offset="0.178" stop-color="#0D6692"/>
<stop offset="0.2601" stop-color="#095690"/>
<stop offset="0.3527" stop-color="#074D8E"/>
<stop offset="0.4785" stop-color="#064A8E"/>
<stop offset="0.6647" stop-color="#1258AA"/>
<stop offset="1" stop-color="#2C75E4"/>
</linearGradient>
<linearGradient id="paint2_linear_1280_202" x1="59.2221" y1="575.827" x2="487.369" y2="681.769" gradientUnits="userSpaceOnUse">
<stop stop-color="#139B9B"/>
<stop offset="0.2103" stop-color="#1697A3"/>
<stop offset="0.5457" stop-color="#1D8CBB"/>
<stop offset="0.9623" stop-color="#287BE0"/>
<stop offset="1" stop-color="#2979E4"/>
</linearGradient>
<linearGradient id="paint3_linear_1280_202" x1="118.495" y1="575.825" x2="437.25" y2="654.699" gradientUnits="userSpaceOnUse">
<stop stop-color="#068992"/>
<stop offset="0.2146" stop-color="#098194"/>
<stop offset="0.5568" stop-color="#126999"/>
<stop offset="0.9819" stop-color="#2044A1"/>
<stop offset="1" stop-color="#2142A1"/>
</linearGradient>
<linearGradient id="paint4_linear_1280_202" x1="291.295" y1="646.926" x2="291.295" y2="19.9161" gradientUnits="userSpaceOnUse">
<stop offset="0.0107527" stop-color="#25BFEC"/>
<stop offset="0.0453451" stop-color="#24B4E1" stop-opacity="0.965"/>
<stop offset="0.2186" stop-color="#1F83B0" stop-opacity="0.7899"/>
<stop offset="0.3902" stop-color="#1B5A86" stop-opacity="0.6165"/>
<stop offset="0.5567" stop-color="#173A66" stop-opacity="0.4481"/>
<stop offset="0.7168" stop-color="#152350" stop-opacity="0.2863"/>
<stop offset="0.8678" stop-color="#131642" stop-opacity="0.1337"/>
<stop offset="1" stop-color="#13113D" stop-opacity="0"/>
</linearGradient>
<linearGradient id="paint5_linear_1280_202" x1="266.747" y1="535.097" x2="315.633" y2="843.749" gradientUnits="userSpaceOnUse">
<stop stop-color="#6EE8FC"/>
<stop offset="0.2204" stop-color="#6EE8FC"/>
<stop offset="0.4892" stop-color="#6EE1F8"/>
<stop offset="0.7742" stop-color="#08A1D4"/>
<stop offset="1" stop-color="#08D4B9"/>
</linearGradient>
<linearGradient id="paint6_linear_1280_202" x1="19.7909" y1="640.399" x2="575.929" y2="640.399" gradientUnits="userSpaceOnUse">
<stop stop-color="#1FA99D"/>
<stop offset="0.0311559" stop-color="#1B9A9B"/>
<stop offset="0.1021" stop-color="#137D96"/>
<stop offset="0.178" stop-color="#0D6692"/>
<stop offset="0.2601" stop-color="#095690"/>
<stop offset="0.3527" stop-color="#074D8E"/>
<stop offset="0.4785" stop-color="#064A8E"/>
<stop offset="0.6647" stop-color="#1258AA"/>
<stop offset="1" stop-color="#2C75E4"/>
</linearGradient>
<linearGradient id="paint7_linear_1280_202" x1="59.2221" y1="575.827" x2="487.369" y2="681.769" gradientUnits="userSpaceOnUse">
<stop stop-color="#139B9B"/>
<stop offset="0.2103" stop-color="#1697A3"/>
<stop offset="0.5457" stop-color="#1D8CBB"/>
<stop offset="0.9623" stop-color="#287BE0"/>
<stop offset="1" stop-color="#2979E4"/>
</linearGradient>
<linearGradient id="paint8_linear_1280_202" x1="118.495" y1="575.825" x2="437.25" y2="654.699" gradientUnits="userSpaceOnUse">
<stop stop-color="#068992"/>
<stop offset="0.2146" stop-color="#098194"/>
<stop offset="0.5568" stop-color="#126999"/>
<stop offset="0.9819" stop-color="#2044A1"/>
<stop offset="1" stop-color="#2142A1"/>
</linearGradient>
<linearGradient id="paint9_linear_1280_202" x1="291.295" y1="646.926" x2="291.295" y2="19.9161" gradientUnits="userSpaceOnUse">
<stop offset="0.0107527" stop-color="#25BFEC"/>
<stop offset="0.0453451" stop-color="#24B4E1" stop-opacity="0.965"/>
<stop offset="0.2186" stop-color="#1F83B0" stop-opacity="0.7899"/>
<stop offset="0.3902" stop-color="#1B5A86" stop-opacity="0.6165"/>
<stop offset="0.5567" stop-color="#173A66" stop-opacity="0.4481"/>
<stop offset="0.7168" stop-color="#152350" stop-opacity="0.2863"/>
<stop offset="0.8678" stop-color="#131642" stop-opacity="0.1337"/>
<stop offset="1" stop-color="#13113D" stop-opacity="0"/>
</linearGradient>
</defs>
</svg>
