<svg width="50" height="50" viewBox="0 0 50 50" fill="none" xmlns="http://www.w3.org/2000/svg">
<path d="M25 50C11.1925 50 0 38.8075 0 25C0 11.1925 11.1925 0 25 0C38.8075 0 50 11.1925 50 25C50 38.8075 38.8075 50 25 50ZM16.25 30V35H22.5V40H27.5V35H30C31.6576 35 33.2473 34.3415 34.4194 33.1694C35.5915 31.9973 36.25 30.4076 36.25 28.75C36.25 27.0924 35.5915 25.5027 34.4194 24.3306C33.2473 23.1585 31.6576 22.5 30 22.5H20C19.6685 22.5 19.3505 22.3683 19.1161 22.1339C18.8817 21.8995 18.75 21.5815 18.75 21.25C18.75 20.9185 18.8817 20.6005 19.1161 20.3661C19.3505 20.1317 19.6685 20 20 20H33.75V15H27.5V10H22.5V15H20C18.3424 15 16.7527 15.6585 15.5806 16.8306C14.4085 18.0027 13.75 19.5924 13.75 21.25C13.75 22.9076 14.4085 24.4973 15.5806 25.6694C16.7527 26.8415 18.3424 27.5 20 27.5H30C30.3315 27.5 30.6495 27.6317 30.8839 27.8661C31.1183 28.1005 31.25 28.4185 31.25 28.75C31.25 29.0815 31.1183 29.3995 30.8839 29.6339C30.6495 29.8683 30.3315 30 30 30H16.25Z" fill="url(#paint0_linear_1273_919)"/>
<defs>
<linearGradient id="paint0_linear_1273_919" x1="15.5892" y1="50" x2="15.5897" y2="2.69061" gradientUnits="userSpaceOnUse">
<stop stop-color="#00C5D3"/>
<stop offset="1" stop-color="#42EECF"/>
</linearGradient>
</defs>
</svg>
