<svg width="50" height="60" viewBox="0 0 50 60" fill="none" xmlns="http://www.w3.org/2000/svg">
<path d="M50 52.77V20.49C50 18.9 49.3438 17.37 48.1562 16.26L33.0625 1.77C31.9062 0.63 30.3125 0 28.6562 0H6.25C2.8125 0 0.0312507 2.7 0.0312507 6L0 54C0 57.3 2.78125 60 6.21875 60H43.75C45.1562 60 46.4062 59.55 47.4688 58.8L33.625 45.51C30.9375 47.19 27.7188 48.15 24.25 47.97C16.8438 47.64 10.5 42.09 9.5 35.04C9.16997 32.6968 9.42013 30.3119 10.2302 28.0789C11.0402 25.8459 12.3873 23.8277 14.1621 22.1882C15.9369 20.5487 18.0894 19.334 20.4449 18.6428C22.8004 17.9516 25.2924 17.8033 27.7188 18.21C33.8125 19.2 38.875 23.76 40.2188 29.55C41.25 33.93 40.25 38.01 38.0312 41.25L50 52.77ZM15.625 33C15.625 37.98 19.8125 42 25 42C30.1875 42 34.375 37.98 34.375 33C34.375 28.02 30.1875 24 25 24C19.8125 24 15.625 28.02 15.625 33Z" fill="url(#paint0_linear_1273_939)"/>
<defs>
<linearGradient id="paint0_linear_1273_939" x1="15.5892" y1="60" x2="15.5899" y2="3.22874" gradientUnits="userSpaceOnUse">
<stop stop-color="#00C5D3"/>
<stop offset="1" stop-color="#42EECF"/>
</linearGradient>
</defs>
</svg>
