<svg width="80" height="80" viewBox="0 0 80 80" fill="none" xmlns="http://www.w3.org/2000/svg">
<circle cx="40" cy="39.9995" r="39.5" stroke="url(#paint0_linear_432_1252)"/>
<path d="M23.3151 24.5341H55.8865C56.267 24.5339 56.6471 24.558 57.0245 24.6063C56.8965 23.7084 56.5881 22.8456 56.1177 22.07C55.6473 21.2945 55.0248 20.6222 54.2875 20.0938C53.5503 19.5653 52.7137 19.1917 51.8282 18.9953C50.9427 18.7989 50.0265 18.7839 49.135 18.9511L22.3481 23.5244H22.3176C20.6361 23.8459 19.1409 24.7972 18.1372 26.184C19.6494 25.1085 21.4595 24.5317 23.3151 24.5341ZM55.8865 26.9769H23.3151C21.5879 26.9788 19.9321 27.6657 18.7109 28.887C17.4896 30.1083 16.8027 31.7641 16.8008 33.4912V53.0341C16.8027 54.7612 17.4896 56.417 18.7109 57.6383C19.9321 58.8595 21.5879 59.5465 23.3151 59.5484H55.8865C57.6136 59.5465 59.2695 58.8595 60.4907 57.6383C61.712 56.417 62.3989 54.7612 62.4008 53.0341V33.4912C62.3989 31.7641 61.712 30.1083 60.4907 28.887C59.2695 27.6657 57.6136 26.9788 55.8865 26.9769ZM51.0517 46.5198C50.4075 46.5198 49.7777 46.3288 49.2421 45.9709C48.7065 45.613 48.289 45.1043 48.0425 44.5091C47.7959 43.9139 47.7314 43.259 47.8571 42.6272C47.9828 41.9954 48.293 41.415 48.7485 40.9595C49.204 40.504 49.7844 40.1938 50.4162 40.0681C51.0481 39.9424 51.703 40.0069 52.2981 40.2534C52.8933 40.5 53.402 40.9174 53.7599 41.4531C54.1178 41.9887 54.3088 42.6184 54.3088 43.2626C54.3088 44.1265 53.9657 44.955 53.3548 45.5658C52.744 46.1766 51.9155 46.5198 51.0517 46.5198Z" fill="url(#paint1_linear_432_1252)"/>
<defs>
<linearGradient id="paint0_linear_432_1252" x1="8.36013" y1="-116.001" x2="108.333" y2="-101.573" gradientUnits="userSpaceOnUse">
<stop stop-color="#68E6B8"/>
<stop offset="1" stop-color="#6D85DA"/>
</linearGradient>
<linearGradient id="paint1_linear_432_1252" x1="21.5661" y1="-40.1971" x2="78.2559" y2="-31.0335" gradientUnits="userSpaceOnUse">
<stop stop-color="#68E6B8"/>
<stop offset="1" stop-color="#6D85DA"/>
</linearGradient>
</defs>
</svg>
