<svg width="1092" height="396" viewBox="0 0 1092 396" fill="none" xmlns="http://www.w3.org/2000/svg">
<mask id="mask0_86_5941" style="mask-type:alpha" maskUnits="userSpaceOnUse" x="160" y="104" width="87" height="198">
<path d="M160.51 104.602L246.651 157.147V301.864L160.51 249.318V104.602Z" fill="white"/>
</mask>
<g mask="url(#mask0_86_5941)">
<path fill-rule="evenodd" clip-rule="evenodd" d="M135.139 385.099L384.138 139.515L385.348 140.742L136.349 386.326L135.139 385.099ZM391.397 146.875L142.398 392.459L143.608 393.685L392.607 148.101L391.397 146.875ZM350.264 105.171L101.265 350.755L102.475 351.981L351.474 106.397L350.264 105.171ZM103.685 353.208L352.684 107.624L353.894 108.85L104.895 354.434L103.685 353.208ZM393.816 149.328L144.817 394.912L146.027 396.139L395.026 150.555L393.816 149.328ZM106.105 355.661L355.104 110.077L356.313 111.304L107.314 356.888L106.105 355.661ZM396.236 151.781L147.237 397.365L148.446 398.592L397.445 153.008L396.236 151.781ZM108.524 358.114L357.523 112.53L358.733 113.757L109.734 359.341L108.524 358.114ZM398.655 154.234L149.656 399.818L150.866 401.045L399.865 155.461L398.655 154.234ZM110.944 360.567L359.943 114.983L361.152 116.21L112.153 361.794L110.944 360.567ZM401.075 156.688L152.076 402.272L153.286 403.498L402.285 157.914L401.075 156.688ZM113.363 363.021L362.362 117.437L363.572 118.663L114.573 364.247L113.363 363.021ZM403.494 159.141L154.495 404.725L155.705 405.951L404.704 160.367L403.494 159.141ZM115.783 365.474L364.782 119.89L365.991 121.116L116.992 366.7L115.783 365.474ZM405.914 161.594L156.915 407.178L158.125 408.405L407.124 162.821L405.914 161.594ZM118.202 367.927L367.201 122.343L368.411 123.57L119.412 369.154L118.202 367.927ZM408.333 164.047L159.334 409.631L160.544 410.858L409.543 165.274L408.333 164.047ZM120.622 370.38L369.621 124.796L370.831 126.023L121.832 371.607L120.622 370.38ZM410.753 166.5L161.754 412.084L162.964 413.311L411.963 167.727L410.753 166.5ZM123.041 372.833L372.04 127.249L373.25 128.476L124.251 374.06L123.041 372.833ZM413.173 168.954L164.174 414.538L165.383 415.764L414.382 170.18L413.173 168.954ZM125.461 375.287L374.46 129.703L375.67 130.929L126.671 376.513L125.461 375.287ZM415.592 171.407L166.593 416.991L167.803 418.217L416.802 172.633L415.592 171.407ZM98.8458 348.301L347.845 102.717L349.055 103.944L100.056 349.528L98.8458 348.301ZM418.012 173.86L169.013 419.444L170.222 420.671L419.221 175.087L418.012 173.86ZM127.88 377.74L376.879 132.156L378.089 133.382L129.09 378.966L127.88 377.74ZM420.431 176.313L171.432 421.897L172.642 423.124L421.641 177.54L420.431 176.313ZM130.3 380.193L379.299 134.609L380.509 135.836L131.51 381.42L130.3 380.193ZM422.851 178.766L173.852 424.351L175.062 425.577L424.061 179.993L422.851 178.766ZM132.72 382.646L381.719 137.062L382.928 138.289L133.929 383.873L132.72 382.646ZM425.27 181.22L176.271 426.804L177.481 428.03L426.48 182.446L425.27 181.22ZM427.69 183.673L178.691 429.257L179.901 430.484L428.9 184.899L427.69 183.673ZM137.559 387.552L386.558 141.968L387.767 143.195L138.768 388.779L137.559 387.552ZM430.109 186.126L181.11 431.71L182.32 432.937L431.319 187.353L430.109 186.126ZM139.978 390.006L388.977 144.422L390.187 145.648L141.188 391.232L139.978 390.006ZM432.529 188.579L183.53 434.163L184.74 435.39L433.739 189.806L432.529 188.579ZM14.1617 262.44L263.161 16.8556L264.37 18.0822L15.3714 263.666L14.1617 262.44ZM304.293 58.5599L55.2941 304.144L56.5039 305.371L305.503 59.7865L304.293 58.5599ZM16.5812 264.893L265.58 19.3088L266.79 20.5354L17.791 266.12L16.5812 264.893ZM306.712 61.0131L57.7134 306.597L58.9232 307.824L307.922 62.2397L306.712 61.0131ZM19.0008 267.346L268 21.762L269.21 22.9886L20.2106 268.573L19.0008 267.346ZM309.132 63.4663L60.133 309.05L61.3428 310.277L310.342 64.6929L309.132 63.4663ZM21.4203 269.799L270.419 24.2152L271.629 25.4418L22.6301 271.026L21.4203 269.799ZM311.552 65.9195L62.5525 311.504L63.7623 312.73L312.761 67.1461L311.552 65.9195ZM23.8399 272.253L272.839 26.6684L274.049 27.895L25.0497 273.479L23.8399 272.253ZM313.971 68.3727L64.9721 313.957L66.1819 315.183L315.181 69.5993L313.971 68.3727ZM26.2594 274.706L275.258 29.1216L276.468 30.3482L27.4692 275.932L26.2594 274.706ZM316.391 70.8259L67.3916 316.41L68.6014 317.637L317.6 72.0525L316.391 70.8259ZM28.679 277.159L277.678 31.5749L278.888 32.8014L29.8888 278.386L28.679 277.159ZM318.81 73.2791L69.8112 318.863L71.021 320.09L320.02 74.5057L318.81 73.2791ZM31.0985 279.612L280.098 34.0281L281.307 35.2546L32.3083 280.839L31.0985 279.612ZM321.23 75.7323L72.2307 321.316L73.4405 322.543L322.44 76.9589L321.23 75.7323ZM33.5181 282.065L282.517 36.4813L283.727 37.7079L34.7279 283.292L33.5181 282.065ZM323.649 78.1855L74.6503 323.77L75.8601 324.996L324.859 79.4121L323.649 78.1855ZM35.9377 284.519L284.937 38.9345L286.146 40.1611L37.1474 285.745L35.9377 284.519ZM326.069 80.6387L77.0699 326.223L78.2796 327.449L327.279 81.8653L326.069 80.6387ZM38.3572 286.972L287.356 41.3874L288.566 42.614L39.567 288.198L38.3572 286.972ZM328.488 83.0919L79.4894 328.676L80.6992 329.903L329.698 84.3185L328.488 83.0919ZM11.7421 259.987L260.741 14.4024L261.951 15.629L12.9519 261.213L11.7421 259.987ZM330.908 85.5451L81.909 331.129L83.1187 332.356L332.118 86.7717L330.908 85.5451ZM40.7768 289.425L289.776 43.8407L290.986 45.0672L41.9865 290.651L40.7768 289.425ZM333.328 87.9983L84.3285 333.582L85.5383 334.809L334.537 89.2249L333.328 87.9983ZM43.1963 291.878L292.195 46.2939L293.405 47.5205L44.4061 293.105L43.1963 291.878ZM335.747 90.4513L86.7481 336.035L87.9578 337.262L336.957 91.6779L335.747 90.4513ZM45.6159 294.331L294.615 48.7471L295.825 49.9737L46.8256 295.558L45.6159 294.331ZM338.167 92.9045L89.1676 338.489L90.3774 339.715L339.376 94.1311L338.167 92.9045ZM48.0354 296.784L297.034 51.2003L298.244 52.4269L49.2452 298.011L48.0354 296.784ZM340.586 95.3577L91.5872 340.942L92.797 342.168L341.796 96.5843L340.586 95.3577ZM50.455 299.238L299.454 53.6535L300.664 54.8801L51.6648 300.464L50.455 299.238ZM343.006 97.8109L94.0067 343.395L95.2165 344.622L344.216 99.0375L343.006 97.8109ZM52.8745 301.691L301.874 56.1067L303.083 57.3333L54.0843 302.917L52.8745 301.691ZM345.425 100.264L96.4263 345.848L97.6361 347.075L346.635 101.491L345.425 100.264Z" fill="white"/>
</g>
<mask id="mask1_86_5941" style="mask-type:alpha" maskUnits="userSpaceOnUse" x="277" y="101" width="28" height="24">
<path d="M277.661 124.846V101.157L304.365 117.524L277.661 124.846Z" fill="white"/>
</mask>
<g mask="url(#mask1_86_5941)">
<path fill-rule="evenodd" clip-rule="evenodd" d="M243.677 384.239L492.676 138.655L493.886 139.881L244.887 385.466L243.677 384.239ZM499.935 146.014L250.936 391.599L252.146 392.825L501.145 147.241L499.935 146.014ZM458.802 104.31L209.803 349.894L211.013 351.121L460.012 105.537L458.802 104.31ZM212.223 352.347L461.222 106.763L462.432 107.99L213.433 353.574L212.223 352.347ZM502.354 148.468L253.355 394.052L254.565 395.278L503.564 149.694L502.354 148.468ZM214.643 354.801L463.642 109.217L464.851 110.443L215.852 356.027L214.643 354.801ZM504.774 150.921L255.775 396.505L256.985 397.732L505.984 152.147L504.774 150.921ZM217.062 357.254L466.061 111.67L467.271 112.896L218.272 358.48L217.062 357.254ZM507.193 153.374L258.194 398.958L259.404 400.185L508.403 154.601L507.193 153.374ZM219.482 359.707L468.481 114.123L469.69 115.35L220.691 360.934L219.482 359.707ZM509.613 155.827L260.614 401.411L261.824 402.638L510.823 157.054L509.613 155.827ZM221.901 362.16L470.9 116.576L472.11 117.803L223.111 363.387L221.901 362.16ZM512.032 158.28L263.033 403.865L264.243 405.091L513.242 159.507L512.032 158.28ZM224.321 364.614L473.32 119.029L474.53 120.256L225.531 365.84L224.321 364.614ZM514.452 160.734L265.453 406.318L266.663 407.544L515.662 161.96L514.452 160.734ZM226.74 367.067L475.739 121.483L476.949 122.709L227.95 368.293L226.74 367.067ZM516.872 163.187L267.873 408.771L269.082 409.998L518.081 164.413L516.872 163.187ZM229.16 369.52L478.159 123.936L479.369 125.162L230.37 370.747L229.16 369.52ZM519.291 165.64L270.292 411.224L271.502 412.451L520.501 166.867L519.291 165.64ZM231.579 371.973L480.578 126.389L481.788 127.616L232.789 373.2L231.579 371.973ZM521.711 168.093L272.712 413.677L273.921 414.904L522.92 169.32L521.711 168.093ZM233.999 374.426L482.998 128.842L484.208 130.069L235.209 375.653L233.999 374.426ZM524.13 170.546L275.131 416.131L276.341 417.357L525.34 171.773L524.13 170.546ZM207.384 347.441L456.383 101.857L457.593 103.084L208.594 348.668L207.384 347.441ZM526.55 173L277.551 418.584L278.761 419.81L527.76 174.226L526.55 173ZM236.419 376.88L485.418 131.295L486.627 132.522L237.628 378.106L236.419 376.88ZM528.969 175.453L279.97 421.037L281.18 422.264L530.179 176.679L528.969 175.453ZM238.838 379.333L487.837 133.749L489.047 134.975L240.048 380.559L238.838 379.333ZM531.389 177.906L282.39 423.49L283.6 424.717L532.599 179.133L531.389 177.906ZM241.258 381.786L490.257 136.202L491.466 137.428L242.467 383.013L241.258 381.786ZM533.808 180.359L284.809 425.943L286.019 427.17L535.018 181.586L533.808 180.359ZM536.228 182.812L287.229 428.397L288.439 429.623L537.438 184.039L536.228 182.812ZM246.097 386.692L495.096 141.108L496.306 142.335L247.307 387.919L246.097 386.692ZM538.648 185.266L289.649 430.85L290.858 432.076L539.857 186.492L538.648 185.266ZM248.516 389.145L497.515 143.561L498.725 144.788L249.726 390.372L248.516 389.145ZM541.067 187.719L292.068 433.303L293.278 434.529L542.277 188.945L541.067 187.719ZM122.7 261.579L371.699 15.9953L372.909 17.2219L123.91 262.806L122.7 261.579ZM412.831 57.6995L163.832 303.284L165.042 304.51L414.041 58.9261L412.831 57.6995ZM125.119 264.033L374.118 18.4485L375.328 19.6751L126.329 265.259L125.119 264.033ZM415.251 60.1527L166.252 305.737L167.461 306.963L416.46 61.3793L415.251 60.1527ZM127.539 266.486L376.538 20.9017L377.748 22.1283L128.749 267.712L127.539 266.486ZM417.67 62.6059L168.671 308.19L169.881 309.417L418.88 63.8325L417.67 62.6059ZM129.958 268.939L378.957 23.3549L380.167 24.5815L131.168 270.166L129.958 268.939ZM420.09 65.0591L171.091 310.643L172.3 311.87L421.299 66.2857L420.09 65.0591ZM132.378 271.392L381.377 25.8081L382.587 27.0347L133.588 272.619L132.378 271.392ZM422.509 67.5123L173.51 313.096L174.72 314.323L423.719 68.7389L422.509 67.5123ZM134.798 273.845L383.797 28.2613L385.006 29.4879L136.007 275.072L134.798 273.845ZM424.929 69.9655L175.93 315.55L177.139 316.776L426.139 71.1921L424.929 69.9655ZM137.217 276.299L386.216 30.7145L387.426 31.9411L138.427 277.525L137.217 276.299ZM427.348 72.4187L178.349 318.003L179.559 319.229L428.558 73.6453L427.348 72.4187ZM139.637 278.752L388.636 33.1677L389.845 34.3943L140.846 279.978L139.637 278.752ZM429.768 74.8719L180.769 320.456L181.979 321.683L430.978 76.0985L429.768 74.8719ZM142.056 281.205L391.055 35.6209L392.265 36.8475L143.266 282.432L142.056 281.205ZM432.187 77.3251L183.188 322.909L184.398 324.136L433.397 78.5517L432.187 77.3251ZM144.476 283.658L393.475 38.0741L394.685 39.3007L145.686 284.885L144.476 283.658ZM434.607 79.7783L185.608 325.362L186.818 326.589L435.817 81.0049L434.607 79.7783ZM146.895 286.111L395.894 40.5271L397.104 41.7537L148.105 287.338L146.895 286.111ZM437.027 82.2315L188.028 327.816L189.237 329.042L438.236 83.4581L437.027 82.2315ZM120.28 259.126L369.279 13.5421L370.489 14.7687L121.49 260.353L120.28 259.126ZM439.446 84.6847L190.447 330.269L191.657 331.495L440.656 85.9113L439.446 84.6847ZM149.315 288.564L398.314 42.9803L399.524 44.2069L150.525 289.791L149.315 288.564ZM441.866 87.1379L192.867 332.722L194.076 333.949L443.075 88.3645L441.866 87.1379ZM151.734 291.018L400.733 45.4335L401.943 46.6601L152.944 292.244L151.734 291.018ZM444.285 89.5909L195.286 335.175L196.496 336.402L445.495 90.8175L444.285 89.5909ZM154.154 293.471L403.153 47.8867L404.363 49.1133L155.364 294.697L154.154 293.471ZM446.705 92.0441L197.706 337.628L198.915 338.855L447.914 93.2707L446.705 92.0441ZM156.574 295.924L405.573 50.3399L406.782 51.5665L157.783 297.151L156.574 295.924ZM449.124 94.4973L200.125 340.081L201.335 341.308L450.334 95.7239L449.124 94.4973ZM158.993 298.377L407.992 52.7931L409.202 54.0197L160.203 299.604L158.993 298.377ZM451.544 96.9505L202.545 342.535L203.755 343.761L452.754 98.1771L451.544 96.9505ZM161.413 300.83L410.412 55.2463L411.621 56.4729L162.622 302.057L161.413 300.83ZM453.963 99.4038L204.964 344.988L206.174 346.214L455.173 100.63L453.963 99.4038Z" fill="white"/>
</g>
<mask id="mask2_86_5941" style="mask-type:alpha" maskUnits="userSpaceOnUse" x="290" y="194" width="57" height="130">
<path d="M290.152 290.235V194.188L318.579 210.986V258.363L346.575 276.022L345.713 323.4L290.152 290.235Z" fill="white"/>
</mask>
<g mask="url(#mask2_86_5941)">
<path fill-rule="evenodd" clip-rule="evenodd" d="M256.599 477.269L505.598 231.685L506.808 232.912L257.809 478.496L256.599 477.269ZM512.857 239.045L263.858 484.629L265.068 485.855L514.067 240.271L512.857 239.045ZM471.724 197.34L222.725 442.925L223.935 444.151L472.934 198.567L471.724 197.34ZM225.145 445.378L474.144 199.794L475.354 201.02L226.355 446.604L225.145 445.378ZM515.276 241.498L266.277 487.082L267.487 488.309L516.486 242.724L515.276 241.498ZM227.564 447.831L476.563 202.247L477.773 203.473L228.774 449.058L227.564 447.831ZM517.696 243.951L268.697 489.535L269.906 490.762L518.905 245.178L517.696 243.951ZM229.984 450.284L478.983 204.7L480.193 205.927L231.194 451.511L229.984 450.284ZM520.115 246.404L271.116 491.988L272.326 493.215L521.325 247.631L520.115 246.404ZM232.404 452.737L481.403 207.153L482.612 208.38L233.613 453.964L232.404 452.737ZM522.535 248.857L273.536 494.442L274.746 495.668L523.745 250.084L522.535 248.857ZM234.823 455.191L483.822 209.606L485.032 210.833L236.033 456.417L234.823 455.191ZM524.954 251.311L275.955 496.895L277.165 498.121L526.164 252.537L524.954 251.311ZM237.243 457.644L486.242 212.06L487.451 213.286L238.452 458.87L237.243 457.644ZM527.374 253.764L278.375 499.348L279.585 500.575L528.584 254.99L527.374 253.764ZM239.662 460.097L488.661 214.513L489.871 215.739L240.872 461.324L239.662 460.097ZM529.793 256.217L280.794 501.801L282.004 503.028L531.003 257.444L529.793 256.217ZM242.082 462.55L491.081 216.966L492.291 218.193L243.292 463.777L242.082 462.55ZM532.213 258.67L283.214 504.254L284.424 505.481L533.423 259.897L532.213 258.67ZM244.501 465.003L493.5 219.419L494.71 220.646L245.711 466.23L244.501 465.003ZM534.633 261.123L285.634 506.708L286.843 507.934L535.842 262.35L534.633 261.123ZM246.921 467.457L495.92 221.872L497.13 223.099L248.131 468.683L246.921 467.457ZM537.052 263.577L288.053 509.161L289.263 510.387L538.262 264.803L537.052 263.577ZM220.306 440.471L469.305 194.887L470.515 196.114L221.516 441.698L220.306 440.471ZM539.472 266.03L290.473 511.614L291.682 512.841L540.681 267.256L539.472 266.03ZM249.34 469.91L498.339 224.326L499.549 225.552L250.55 471.136L249.34 469.91ZM541.891 268.483L292.892 514.067L294.102 515.294L543.101 269.71L541.891 268.483ZM251.76 472.363L500.759 226.779L501.969 228.005L252.97 473.59L251.76 472.363ZM544.311 270.936L295.312 516.52L296.522 517.747L545.521 272.163L544.311 270.936ZM254.18 474.816L503.179 229.232L504.388 230.459L255.389 476.043L254.18 474.816ZM546.73 273.389L297.731 518.974L298.941 520.2L547.94 274.616L546.73 273.389ZM549.15 275.843L300.151 521.427L301.361 522.653L550.36 277.069L549.15 275.843ZM259.019 479.722L508.018 234.138L509.227 235.365L260.228 480.949L259.019 479.722ZM551.569 278.296L302.57 523.88L303.78 525.107L552.779 279.522L551.569 278.296ZM261.438 482.176L510.437 236.591L511.647 237.818L262.648 483.402L261.438 482.176ZM553.989 280.749L304.99 526.333L306.2 527.56L555.199 281.975L553.989 280.749ZM135.622 354.61L384.621 109.026L385.83 110.252L136.831 355.836L135.622 354.61ZM425.753 150.73L176.754 396.314L177.964 397.541L426.963 151.956L425.753 150.73ZM138.041 357.063L387.04 111.479L388.25 112.705L139.251 358.289L138.041 357.063ZM428.172 153.183L179.173 398.767L180.383 399.994L429.382 154.41L428.172 153.183ZM140.461 359.516L389.46 113.932L390.67 115.159L141.671 360.743L140.461 359.516ZM430.592 155.636L181.593 401.22L182.803 402.447L431.802 156.863L430.592 155.636ZM142.88 361.969L391.879 116.385L393.089 117.612L144.09 363.196L142.88 361.969ZM433.011 158.089L184.012 403.674L185.222 404.9L434.221 159.316L433.011 158.089ZM145.3 364.422L394.299 118.838L395.509 120.065L146.51 365.649L145.3 364.422ZM435.431 160.543L186.432 406.127L187.642 407.353L436.641 161.769L435.431 160.543ZM147.719 366.876L396.718 121.292L397.928 122.518L148.929 368.102L147.719 366.876ZM437.851 162.996L188.852 408.58L190.061 409.807L439.06 164.222L437.851 162.996ZM150.139 369.329L399.138 123.745L400.348 124.971L151.349 370.556L150.139 369.329ZM440.27 165.449L191.271 411.033L192.481 412.26L441.48 166.676L440.27 165.449ZM152.559 371.782L401.558 126.198L402.767 127.425L153.768 373.009L152.559 371.782ZM442.69 167.902L193.691 413.486L194.9 414.713L443.899 169.129L442.69 167.902ZM154.978 374.235L403.977 128.651L405.187 129.878L156.188 375.462L154.978 374.235ZM445.109 170.355L196.11 415.94L197.32 417.166L446.319 171.582L445.109 170.355ZM157.398 376.689L406.397 131.104L407.606 132.331L158.607 377.915L157.398 376.689ZM447.529 172.809L198.53 418.393L199.74 419.619L448.739 174.035L447.529 172.809ZM159.817 379.142L408.816 133.557L410.026 134.784L161.027 380.368L159.817 379.142ZM449.948 175.262L200.949 420.846L202.159 422.073L451.158 176.488L449.948 175.262ZM133.202 352.156L382.201 106.572L383.411 107.799L134.412 353.383L133.202 352.156ZM452.368 177.715L203.369 423.299L204.579 424.526L453.578 178.942L452.368 177.715ZM162.237 381.595L411.236 136.011L412.445 137.237L163.446 382.821L162.237 381.595ZM454.787 180.168L205.788 425.752L206.998 426.979L455.997 181.395L454.787 180.168ZM164.656 384.048L413.655 138.464L414.865 139.69L165.866 385.275L164.656 384.048ZM457.207 182.621L208.208 428.205L209.418 429.432L458.417 183.848L457.207 182.621ZM167.076 386.501L416.075 140.917L417.285 142.144L168.286 387.728L167.076 386.501ZM459.627 185.074L210.628 430.659L211.837 431.885L460.836 186.301L459.627 185.074ZM169.495 388.954L418.494 143.37L419.704 144.597L170.705 390.181L169.495 388.954ZM462.046 187.528L213.047 433.112L214.257 434.338L463.256 188.754L462.046 187.528ZM171.915 391.408L420.914 145.823L422.124 147.05L173.125 392.634L171.915 391.408ZM464.466 189.981L215.467 435.565L216.676 436.792L465.675 191.207L464.466 189.981ZM174.334 393.861L423.333 148.277L424.543 149.503L175.544 395.087L174.334 393.861ZM466.885 192.434L217.886 438.018L219.096 439.245L468.095 193.661L466.885 192.434Z" fill="white"/>
</g>
<path fill-rule="evenodd" clip-rule="evenodd" d="M158.965 102.039L157 102.524L157 104.548L157 249.425L157 250.895L158.262 251.646L244.127 302.756L245.069 303.317L246.127 303.03L288.121 291.614L343.938 325.607L344.852 326.164L345.892 325.911L390.254 315.144L392.229 314.664V312.632V263.532V262.137L391.062 261.372L379.396 253.716V123.935V122.495L378.171 121.737L350.946 104.902L350.883 104.657L350.647 104.717L293.81 69.5712L292.886 69L291.832 69.2601L158.965 102.039ZM343.708 106.503L319.111 91.2932L280.644 101.192L305.391 116.363L343.708 106.503ZM315.048 88.7808L276.557 98.6858L252.906 84.1868L292.015 74.5383L315.048 88.7808ZM271.913 99.8807L248.206 85.3465L209.562 94.8803L233.535 109.756L271.913 99.8807ZM228.916 110.945L204.886 96.0339L165.926 105.646L190.582 120.809L228.916 110.945ZM232.969 113.46L257.506 128.685L219.353 138.503L194.661 123.318L232.969 113.46ZM262.125 127.497L237.588 112.271L275.939 102.403V123.942L262.125 127.497ZM261.559 131.2L223.431 141.012L247.357 155.726L285.151 145.84L261.559 131.2ZM289.748 144.637L266.178 130.012L304.835 120.064L328.418 134.522L289.748 144.637ZM287.568 148.769L249.235 158.796V202.644L287.568 193.093V148.769ZM287.568 196.644L249.235 206.195V249.837L287.568 240.623V196.644ZM245.79 206.187V250.056L220.809 234.866V190.998L245.79 206.187ZM245.325 253.806L220.809 238.899V282.483H220.173L245.79 297.731V254.088L245.325 253.806ZM217.363 188.903V232.771L190.229 216.272V172.404L217.363 188.903ZM217.363 236.804L190.229 220.305V264.659L217.363 280.81V236.804ZM186.783 170.309V214.177L162.168 199.211L162.168 155.342L186.783 170.309ZM186.783 218.21L162.168 203.243L162.168 247.956L186.783 262.608V218.21ZM287.568 244.166L249.235 253.381V296.829L287.568 286.408V244.166ZM291.013 287.323V243.957C291.124 244.019 291.24 244.085 291.362 244.154C292.514 244.808 294.115 245.74 296.063 246.89C299.956 249.188 305.21 252.337 310.991 255.823C312.762 256.89 314.581 257.989 316.425 259.105V302.8L291.013 287.323ZM319.871 304.898L344.421 319.85V276.127C337.695 272.019 328.671 266.522 319.871 261.19V304.898ZM319.871 256.376L359.065 246.674V202.211L319.871 212.03V256.376ZM318.078 208.927L356.192 199.378L333.503 185.197L294.9 194.817L318.078 208.927ZM291.013 196.485V240.055C291.057 240.074 291.093 240.092 291.119 240.104L291.123 240.106C291.265 240.174 291.432 240.259 291.616 240.357C291.985 240.552 292.474 240.823 293.062 241.157C294.241 241.826 295.861 242.77 297.814 243.923C301.722 246.229 306.987 249.384 312.771 252.872C313.969 253.595 315.189 254.331 316.425 255.078V211.954L291.013 196.485ZM361.701 198.758L338.151 184.039L374.228 175.05V218.783L362.51 221.796V200.219V199.264L361.701 198.758ZM362.51 245.744V225.354L374.228 222.341V252.565L362.51 245.744ZM362.076 249.478L374.844 256.91L385.037 263.599C378.456 265.449 370.279 267.696 363.118 269.621C358.649 270.823 354.582 271.897 351.548 272.671C350.031 273.058 348.78 273.367 347.871 273.579C347.586 273.645 347.34 273.701 347.132 273.746L347.042 273.691C340.597 269.752 331.811 264.399 323.109 259.124L362.076 249.478ZM347.866 277.113V320.113L387.06 310.6V266.609C380.292 268.517 371.584 270.913 364.013 272.949C359.538 274.152 355.454 275.231 352.4 276.009C350.874 276.399 349.597 276.715 348.653 276.935C348.362 277.003 348.099 277.062 347.866 277.113ZM245.79 202.154V158.807L220.809 143.444V186.965L245.79 202.154ZM217.363 184.87V141.325L190.229 124.637V168.371L217.363 184.87ZM186.783 166.276V123.123V122.518L162.169 107.38L162.168 151.531L162.267 151.369L186.783 166.276ZM374.228 171.499V126.1L334.514 136.488V181.394L374.228 171.499ZM331.069 182.253L291.013 192.234V147.868L331.069 137.39V182.253ZM300.747 117.558L279.384 104.461V123.055L300.747 117.558ZM309.479 118.869L333.038 133.313L371.003 123.382L347.771 109.016L309.479 118.869Z" fill="white"/>
<path fill-rule="evenodd" clip-rule="evenodd" d="M805.101 153.487C808.537 157.496 813.263 158.551 819.179 158.727C819.469 158.683 819.817 158.641 820.207 158.595C821.365 158.455 822.892 158.272 824.354 157.847C829.333 156.4 832.984 153.252 834.644 148.305C836.206 143.69 836.343 138.899 834.761 134.246C833.746 131.234 832.164 128.418 829.411 126.678C822.987 122.63 816.231 122.161 809.318 125.407C804.3 127.773 801.801 131.958 800.688 137.257C799.38 143.475 801.098 148.813 805.101 153.487ZM715.924 174.488C715.026 175.212 714.127 175.955 713.229 176.698C712.956 176.62 712.663 176.522 712.37 176.404V171.946C712.37 165.268 712.375 158.586 712.38 151.903C712.385 145.22 712.389 138.538 712.389 131.86C712.389 131.606 712.385 131.352 712.381 131.097C712.372 130.589 712.363 130.081 712.389 129.572C712.487 127.89 711.569 127.245 710.027 127.206C709.646 127.206 709.265 127.196 708.884 127.187C708.504 127.177 708.123 127.167 707.742 127.167H687.239C681.46 127.167 681.44 127.167 681.44 132.916C681.44 159.646 681.44 186.357 681.479 213.088C681.479 217.312 681.577 221.575 681.948 225.779C683.022 237.687 687.767 247.875 696.319 256.303C704.52 264.398 714.518 268.974 725.706 270.421C736.973 271.888 748.22 271.125 758.96 266.706C770.11 262.11 778.779 254.758 784.286 243.945C788.621 235.439 790.241 226.365 789.714 216.823C788.992 203.917 784.813 192.537 775.967 182.877C768.059 174.253 758.374 169.424 746.99 167.507C742.226 166.706 737.52 166.96 732.755 167.449C726.39 168.113 720.844 170.499 715.924 174.488ZM736.815 241.997H736.815H736.815C736.366 241.983 735.917 241.97 735.47 241.97C731.545 242.165 727.776 241.52 724.047 240.132C717.74 237.746 714.85 232.818 713.561 226.717C712.565 222.024 712.565 217.312 713.307 212.501C714.713 203.448 720.981 197.093 730.139 196.389C733.888 196.095 737.715 196.135 741.464 196.447C748.045 197.015 752.907 200.73 755.836 206.342C760.385 215.083 760.366 224.097 755.289 232.72C751.833 238.567 746.248 241.207 739.687 241.95C738.742 242.057 737.779 242.027 736.815 241.997ZM541.076 179.96C541.543 180.147 542.013 180.335 542.49 180.511C542.631 180.267 542.763 180.068 542.879 179.892L542.879 179.892C543.052 179.631 543.189 179.423 543.271 179.201C543.388 178.673 543.408 178.125 543.408 177.578C543.417 173.337 543.417 169.102 543.417 164.869V164.86C543.417 160.624 543.417 156.391 543.427 152.157C543.427 150.358 543.037 148.892 541.084 148.383C540.278 148.172 539.474 147.944 538.67 147.717C536.648 147.145 534.624 146.574 532.571 146.252C523.022 144.766 513.435 143.983 503.75 144.023C497.599 144.042 491.604 144.863 485.766 146.428C471.375 150.28 459.464 157.906 450.989 170.479C447.24 176.033 444.585 182.095 442.788 188.45C441.089 194.394 440.464 200.554 440.406 206.792C440.328 217.233 442.046 227.265 446.459 236.807C451.555 247.914 459.483 256.479 469.813 262.736C479.088 268.348 489.417 270.871 500.137 271.34C504.941 271.55 509.779 271.264 514.607 270.978L514.611 270.978C516.062 270.892 517.513 270.806 518.961 270.734C526.361 270.362 533.566 268.876 540.713 267.077C543.134 266.471 543.369 266.236 543.388 263.753C543.427 255.071 543.408 246.369 543.369 237.687C543.355 237.154 543.197 236.622 543.03 236.058C542.951 235.794 542.871 235.523 542.802 235.243C542.489 235.307 542.217 235.351 541.974 235.389C541.552 235.457 541.218 235.51 540.908 235.634C534.738 238.137 528.353 239.603 521.733 240.347C512.224 241.402 502.773 242.126 493.303 240.014C483.364 237.804 476.471 232.232 473.62 222.337C471.414 214.652 470.711 206.752 472.136 198.813C472.917 194.433 474.167 190.17 476.549 186.318C480.357 180.178 486.215 177.147 493.01 175.72C502.246 173.784 511.599 174.136 520.855 175.251C525.143 175.76 529.377 176.801 533.605 177.84C535.056 178.196 536.507 178.553 537.96 178.888C539.012 179.131 540.035 179.542 541.076 179.959L541.076 179.96ZM661.601 197.836C661.601 200.443 661.605 203.05 661.61 205.658C661.618 210.872 661.627 216.086 661.601 221.301C661.542 232.642 658.028 242.85 651.233 251.884C646.175 258.61 639.634 263.401 631.94 266.843C621.962 271.301 611.496 271.731 600.991 270.48C588.299 268.974 577.345 263.499 568.987 253.565C564.555 248.286 561.47 242.204 559.556 235.536C557.701 229.103 557.135 222.552 557.135 215.904V173.55C557.135 173.354 557.134 173.158 557.133 172.963C557.13 172.181 557.127 171.399 557.174 170.616C557.31 168.133 557.623 167.722 560.044 167.703C568.616 167.644 577.188 167.664 585.741 167.722C588.104 167.742 588.377 168.055 588.436 170.382C588.49 172.353 588.478 174.335 588.466 176.312V176.312V176.312V176.313C588.46 177.159 588.455 178.005 588.455 178.849C588.455 182.109 588.456 185.369 588.458 188.628V188.63V188.632V188.633C588.461 198.408 588.465 208.177 588.436 217.957C588.416 222.122 589.021 226.15 590.447 230.081C592.907 236.827 599.273 241.637 606.458 241.97C608.294 242.048 610.149 242.067 611.984 242.009C620.752 241.657 627.293 236.534 629.226 227.969C630.163 223.765 630.574 219.385 630.632 215.063C630.736 205.729 630.719 196.387 630.702 187.042C630.693 182.369 630.684 177.695 630.691 173.022C630.691 167.722 630.73 167.683 635.865 167.683C637.342 167.683 638.818 167.683 640.293 167.682H640.293H640.293H640.294C646.193 167.679 652.084 167.675 657.989 167.722C661.445 167.742 661.64 167.957 661.66 171.477C661.673 177.343 661.668 183.209 661.664 189.076L661.664 189.18C661.662 192.079 661.66 194.977 661.66 197.875C661.632 197.847 661.624 197.839 661.614 197.837C661.613 197.836 661.611 197.836 661.609 197.836C661.607 197.836 661.604 197.836 661.601 197.836ZM934.219 201.646L934.229 201.649C934.341 201.389 934.443 201.184 934.529 201.013C934.682 200.707 934.783 200.506 934.795 200.28C934.821 194.35 934.83 188.412 934.838 182.476V182.472V182.468L934.839 182.265C934.843 179.365 934.847 176.466 934.854 173.569C934.854 172.181 934.112 171.359 932.784 171.047C931.315 170.708 929.852 170.329 928.389 169.951L928.388 169.951C925.126 169.107 921.865 168.264 918.549 167.859C912.652 167.155 906.657 166.901 900.702 167.018C891.817 167.214 883.343 169.287 875.357 173.334C866.472 177.851 859.404 184.363 854.952 193.221C847.297 208.454 846.672 224.273 852.784 240.21C856.26 249.263 862.235 256.518 870.28 261.915C879.731 268.25 890.333 271.086 901.62 271.223C906.365 271.281 911.168 271.105 915.893 270.519C921.244 269.854 926.555 268.739 931.807 267.546C934.815 266.862 934.834 266.588 934.854 263.499C934.893 255.462 934.873 247.425 934.854 239.388C934.854 238.862 934.739 238.327 934.622 237.783L934.622 237.781C934.565 237.517 934.508 237.251 934.463 236.983C934.254 237.003 934.078 237.014 933.925 237.023C933.621 237.042 933.408 237.055 933.213 237.12C926.984 239.408 920.599 241.011 913.96 241.578C907.888 242.106 901.815 242.4 895.84 241.07C891.915 240.19 888.225 238.548 885.491 235.341C880.609 229.611 879.008 222.904 879.848 215.591C881.058 205.129 887.248 198.813 897.421 197.054C907.849 195.255 918.139 196.428 928.195 199.674C930.203 200.318 932.21 200.982 934.218 201.645L934.219 201.646ZM802.64 218.798V172.885C802.64 167.801 802.718 167.722 807.659 167.722C809.475 167.722 811.291 167.721 813.107 167.72C818.554 167.716 824.002 167.713 829.45 167.742C833.472 167.761 833.746 168.016 833.804 171.946C833.846 175.13 833.838 178.304 833.83 181.482C833.827 182.754 833.824 184.027 833.824 185.302L833.765 264.437C833.765 269.913 833.746 269.932 828.435 269.952H828.43C821.382 269.971 814.335 269.991 807.288 269.952C802.875 269.932 802.679 269.737 802.66 265.376C802.647 255.025 802.651 244.675 802.655 234.324L802.656 234.139C802.658 229.025 802.66 223.912 802.66 218.798H802.64Z" fill="white"/>
</svg>
