<svg width="164" height="39" viewBox="0 0 164 39" fill="none" xmlns="http://www.w3.org/2000/svg">
<path fill-rule="evenodd" clip-rule="evenodd" d="M31.0399 22.0118C29.9818 22.313 28.8648 22.4743 27.7102 22.4743C21.0089 22.4743 15.5764 17.0418 15.5764 10.3405C15.5764 9.14473 15.7494 7.9893 16.0716 6.89795H3.49904C1.56657 6.89795 0 8.46452 0 10.397V34.4388C0 36.3712 1.56657 37.9379 3.49904 37.9379H27.5408C29.4733 37.9379 31.0399 36.3712 31.0399 34.4388V22.0118Z" fill="white"/>
<path d="M37.9377 8.62219C37.9377 13.3841 34.0774 17.2444 29.3155 17.2444C24.5536 17.2444 20.6934 13.3841 20.6934 8.62219C20.6934 3.86029 24.5536 0 29.3155 0C34.0774 0 37.9377 3.86029 37.9377 8.62219Z" fill="url(#paint0_linear_3115_5105)"/>
<path d="M74.7365 24.5862V37.6763H80.1726V24.5862C80.1726 16.541 75.9977 11.2788 69.3874 11.2788C66.1693 11.2788 63.299 13.1923 62.3423 15.8451V11.5832H56.9062V37.6763H62.3423V24.6298C62.3423 20.0199 64.9081 16.7148 68.4307 16.7148C72.2577 16.7148 74.7365 19.8025 74.7365 24.5862Z" fill="white"/>
<path d="M83.8066 24.5862C83.8066 32.1533 89.4167 37.9372 96.6357 37.9372C103.855 37.9372 109.421 32.1533 109.421 24.5862C109.421 17.0628 103.855 11.2788 96.6357 11.2788C89.4167 11.2788 83.8066 17.0628 83.8066 24.5862ZM96.6357 16.7148C100.811 16.7148 103.985 20.107 103.985 24.5862C103.985 29.109 100.811 32.5012 96.6357 32.5012C92.4608 32.5012 89.2427 29.109 89.2427 24.5862C89.2427 20.107 92.4608 16.7148 96.6357 16.7148Z" fill="white"/>
<path d="M117.136 6.0603L115.831 11.5834H111.961V16.715H115.831V28.7178C115.831 35.1106 118.441 37.6764 124.66 37.6764H126.921V32.2839H125.181C122.485 32.2839 121.267 31.1096 121.267 28.4134V16.715H126.921V11.5834H121.267V6.0603H117.136Z" fill="white"/>
<path d="M136.137 37.6763V11.5833H130.701V37.6763H136.137Z" fill="white"/>
<path d="M163.987 37.6763V11.5833H149.027V9.6698C149.027 6.97352 150.245 5.75582 152.941 5.75582H154.679V0.406738H152.419C146.2 0.406738 143.591 2.92909 143.591 9.36538V11.5833H139.764V16.7149H143.591V37.6763H149.027V16.7149H158.551V37.6763H163.987Z" fill="white"/>
<path fill-rule="evenodd" clip-rule="evenodd" d="M132.791 0C131.255 0 130.703 0.843086 130.703 2.0421V6.40088H134.964C136.445 6.40088 137.104 5.88271 137.104 4.4214V2.0421C137.104 0.674474 136.201 0 134.814 0H132.791Z" fill="white"/>
<defs>
<linearGradient id="paint0_linear_3115_5105" x1="34.5224" y1="1.34372" x2="26.2362" y2="17.2444" gradientUnits="userSpaceOnUse">
<stop stop-color="#FE7970"/>
<stop offset="1" stop-color="#FEB776"/>
</linearGradient>
</defs>
</svg>
