<svg width="192" height="66" viewBox="0 0 192 66" fill="none" xmlns="http://www.w3.org/2000/svg">
<g clip-path="url(#clip0_4550_76)">
<path d="M66.2031 24.5676V8.48682H73.6711C74.7321 8.48682 75.6533 8.68802 76.4348 9.09559C77.2163 9.50315 77.8321 10.0655 78.2772 10.7826C78.7223 11.5049 78.9448 12.3406 78.9448 13.2848C78.9448 14.2289 78.7223 15.0698 78.2772 15.7869C77.8321 16.5092 77.2111 17.0715 76.4244 17.4739C75.6326 17.8815 74.7166 18.0827 73.6711 18.0827H68.6252V24.5625H66.2031V24.5676ZM68.6252 16.0449H73.4176C74.3698 16.0449 75.1254 15.7972 75.6895 15.2968C76.2536 14.7964 76.5331 14.136 76.5331 13.3105C76.5331 12.4851 76.2536 11.8247 75.6895 11.3346C75.1306 10.8445 74.3698 10.602 73.4176 10.602H68.6252V16.0449Z" fill="#F1F1F1"/>
<path d="M85.9106 24.7998C84.772 24.7998 83.7421 24.5315 82.8106 23.995C81.879 23.4584 81.1493 22.731 80.6111 21.8127C80.0728 20.8944 79.8037 19.8677 79.8037 18.7327C79.8037 17.5977 80.0728 16.5711 80.6111 15.6528C81.1493 14.7344 81.8842 14.0019 82.8106 13.4602C83.7421 12.9185 84.772 12.645 85.9106 12.645C87.0492 12.645 88.0998 12.9185 89.021 13.4602C89.9422 14.007 90.6719 14.7344 91.2102 15.6528C91.7484 16.5711 92.0175 17.5977 92.0175 18.7327C92.0175 19.8677 91.7484 20.8944 91.2102 21.8127C90.6719 22.731 89.9422 23.4584 89.021 23.995C88.0998 24.5315 87.0647 24.7998 85.9106 24.7998ZM85.9106 22.7774C86.6352 22.7774 87.2873 22.5969 87.8721 22.2357C88.4569 21.8746 88.9175 21.3896 89.2539 20.7757C89.5903 20.1618 89.7611 19.4756 89.7611 18.7069C89.7611 17.9382 89.5903 17.2779 89.2435 16.6743C88.8968 16.0706 88.4362 15.5805 87.8617 15.2142C87.2873 14.8479 86.6352 14.6622 85.9158 14.6622C85.1964 14.6622 84.5443 14.8479 83.9699 15.2142C83.3954 15.5805 82.9348 16.0655 82.588 16.6743C82.2413 17.2779 82.0705 17.9589 82.0705 18.7069C82.0705 19.455 82.2413 20.1618 82.5777 20.7757C82.9141 21.3896 83.3747 21.8746 83.9595 22.2357C84.5443 22.5969 85.1964 22.7774 85.921 22.7774H85.9106Z" fill="#F1F1F1"/>
<path d="M96.6287 24.5677L93.3579 12.8721H95.5937L97.876 21.4671L100.552 12.8721H102.534L105.209 21.4671L107.492 12.8721H109.66L106.364 24.5677H104.154L101.525 15.9985L98.8748 24.5677H96.6391H96.6287Z" fill="#F1F1F1"/>
<path d="M117.139 24.7739C115.985 24.7739 114.944 24.5056 114.013 23.9691C113.081 23.4325 112.346 22.7051 111.803 21.7868C111.26 20.8685 110.985 19.8418 110.985 18.7068C110.985 17.5718 111.244 16.5761 111.767 15.6629C112.29 14.7498 112.999 14.0224 113.889 13.4807C114.779 12.939 115.773 12.6655 116.859 12.6655C117.946 12.6655 118.919 12.939 119.763 13.4807C120.606 14.0275 121.279 14.7601 121.781 15.6887C122.278 16.6174 122.532 17.6595 122.532 18.8255V19.4703H113.288C113.413 20.1152 113.656 20.6879 114.013 21.1935C114.375 21.6991 114.836 22.0963 115.395 22.3904C115.954 22.6793 116.564 22.8289 117.227 22.8289C117.796 22.8289 118.345 22.7412 118.873 22.5658C119.4 22.3904 119.846 22.1324 120.197 21.7971L121.672 23.2468C120.979 23.7678 120.27 24.1548 119.54 24.4076C118.81 24.6604 118.008 24.7893 117.134 24.7893L117.139 24.7739ZM113.314 17.7421H120.249C120.156 17.1281 119.944 16.5916 119.613 16.1221C119.281 15.6526 118.878 15.2863 118.391 15.0181C117.905 14.7498 117.382 14.6157 116.813 14.6157C116.244 14.6157 115.69 14.7446 115.198 15.0077C114.706 15.2709 114.298 15.632 113.966 16.1015C113.635 16.5709 113.418 17.1178 113.309 17.7421H113.314Z" fill="#F1F1F1"/>
<path d="M125.187 24.5677V12.8721H127.49V14.3682C127.857 13.8162 128.318 13.3828 128.861 13.0681C129.404 12.7534 130.025 12.5986 130.719 12.5986C131.195 12.6141 131.588 12.6812 131.894 12.805V14.8738C131.676 14.7809 131.454 14.719 131.226 14.6777C130.993 14.6416 130.766 14.621 130.533 14.621C129.855 14.621 129.254 14.8016 128.732 15.1627C128.209 15.5238 127.795 16.0449 127.49 16.7362V24.5728H125.187V24.5677Z" fill="#F1F1F1"/>
<path d="M139.15 24.7739C137.995 24.7739 136.955 24.5056 136.024 23.9691C135.097 23.4325 134.357 22.7051 133.814 21.7868C133.265 20.8685 132.996 19.8418 132.996 18.7068C132.996 17.5718 133.26 16.5761 133.778 15.6629C134.3 14.7498 135.009 14.0224 135.899 13.4807C136.79 12.939 137.783 12.6655 138.875 12.6655C139.967 12.6655 140.935 12.939 141.779 13.4807C142.622 14.0275 143.295 14.7601 143.797 15.6887C144.299 16.6174 144.547 17.6595 144.547 18.8255V19.4703H135.304C135.428 20.1152 135.672 20.6879 136.029 21.1935C136.391 21.6991 136.852 22.0963 137.411 22.3904C137.97 22.6793 138.58 22.8289 139.243 22.8289C139.812 22.8289 140.361 22.7412 140.888 22.5658C141.416 22.3904 141.861 22.1324 142.213 21.7971L143.688 23.2468C142.995 23.7678 142.286 24.1548 141.556 24.4076C140.826 24.6604 140.024 24.7893 139.15 24.7893V24.7739ZM135.325 17.7421H142.26C142.167 17.1281 141.955 16.5916 141.629 16.1221C141.297 15.6526 140.888 15.2863 140.407 15.0181C139.921 14.7498 139.398 14.6157 138.829 14.6157C138.259 14.6157 137.706 14.7446 137.214 15.0077C136.722 15.2709 136.313 15.632 135.982 16.1015C135.651 16.5709 135.434 17.1178 135.325 17.7421Z" fill="#F1F1F1"/>
<path d="M152.611 24.7532C151.519 24.7532 150.52 24.4849 149.614 23.9484C148.708 23.4118 147.994 22.6896 147.471 21.7764C146.949 20.8633 146.69 19.8418 146.69 18.7068C146.69 17.5718 146.954 16.5554 147.487 15.6526C148.015 14.7498 148.734 14.0275 149.64 13.4909C150.546 12.9544 151.555 12.6861 152.657 12.6861C153.304 12.6861 153.925 12.7842 154.525 12.9854C155.126 13.1866 155.68 13.4755 156.187 13.8572V8.48149L158.49 8.04297V24.5623H156.207V23.4376C155.209 24.3095 154.008 24.748 152.611 24.748V24.7532ZM152.911 22.7566C153.583 22.7566 154.205 22.6328 154.763 22.3903C155.322 22.1479 155.799 21.7919 156.182 21.3327V16.0705C155.799 15.6423 155.328 15.3018 154.763 15.049C154.199 14.7962 153.583 14.6724 152.911 14.6724C152.171 14.6724 151.503 14.8478 150.903 15.1986C150.302 15.5494 149.826 16.0292 149.474 16.6328C149.122 17.2364 148.946 17.9226 148.946 18.6913C148.946 19.46 149.122 20.1462 149.474 20.7601C149.826 21.374 150.302 21.859 150.903 22.2201C151.503 22.5812 152.171 22.7618 152.911 22.7618V22.7566Z" fill="#F1F1F1"/>
<path d="M166.946 24.5677V8.48686L169.249 8.04834V13.9761C170.233 13.1197 171.423 12.6915 172.82 12.6915C173.928 12.6915 174.932 12.9598 175.827 13.4963C176.728 14.0329 177.437 14.75 177.96 15.658C178.482 16.5608 178.741 17.5823 178.741 18.7121C178.741 19.842 178.477 20.8686 177.944 21.7818C177.416 22.6949 176.702 23.4172 175.801 23.9538C174.901 24.4903 173.892 24.7586 172.769 24.7586C172.122 24.7586 171.496 24.6554 170.89 24.449C170.284 24.2427 169.726 23.9486 169.218 23.5617V24.5728H166.936L166.946 24.5677ZM172.525 22.7517C173.276 22.7517 173.949 22.5763 174.544 22.2255C175.134 21.8747 175.605 21.3949 175.962 20.7912C176.314 20.1876 176.49 19.5015 176.49 18.7328C176.49 17.9641 176.314 17.2779 175.962 16.664C175.61 16.0501 175.134 15.5703 174.544 15.2143C173.954 14.8635 173.281 14.6881 172.525 14.6881C171.863 14.6881 171.247 14.8119 170.683 15.0544C170.114 15.2968 169.638 15.6425 169.255 16.0862V21.3691C169.638 21.7973 170.119 22.1326 170.693 22.3802C171.268 22.6279 171.878 22.7465 172.525 22.7465V22.7517Z" fill="#F1F1F1"/>
<path d="M181.836 29.5098C181.593 29.5098 181.36 29.4995 181.142 29.4737C180.925 29.4479 180.749 29.4169 180.614 29.3705V27.3481C180.889 27.4101 181.23 27.441 181.629 27.441C182.705 27.441 183.482 26.8684 183.958 25.7179L184.465 24.5932L179.766 12.877H182.322L185.733 21.7918L189.511 12.877H192L186.333 26.0171C185.966 26.8426 185.572 27.5132 185.158 28.0291C184.744 28.5399 184.268 28.9165 183.73 29.1538C183.192 29.3911 182.56 29.5098 181.841 29.5098H181.836Z" fill="#F1F1F1"/>
<path d="M74.0179 50.2546V45.8745H84.4359C86.0299 45.8745 87.2719 45.4257 88.1621 44.5229C89.0523 43.62 89.5025 42.4334 89.5025 40.9631C89.5025 39.4928 89.0574 38.2804 88.1621 37.4033C87.2668 36.5263 86.0247 36.0878 84.4359 36.0878H70.7005V57.9571H66.2031V31.5581H84.4359C85.9367 31.5581 87.2719 31.7799 88.4519 32.2185C89.6267 32.657 90.6204 33.2761 91.4329 34.0706C92.2403 34.8651 92.8613 35.835 93.2909 36.97C93.7204 38.1101 93.9326 39.3896 93.9326 40.8186C93.9326 42.2477 93.7152 43.4962 93.2909 44.6467C92.8613 45.7971 92.2403 46.7877 91.4329 47.6235C90.6256 48.4541 89.6319 49.0989 88.4519 49.5633C87.2771 50.0276 85.9367 50.2597 84.4359 50.2597H74.0179V50.2546Z" fill="#F1F1F1"/>
<path d="M108.687 57.9517V47.6181L94.9155 31.5527H101.017L111.114 43.4857L121.248 31.5527H127.029L113.216 47.6181V57.9517H108.687Z" fill="#F1F1F1"/>
<path d="M142.653 57.9517V36.0772H130.719V31.5527H159.131V36.0772H147.182V57.9517H142.653Z" fill="#F1F1F1"/>
<path d="M187.487 31.5527H192V57.9517H187.487V31.5527Z" fill="#F1F1F1"/>
<path d="M168.007 57.9517V46.2406H184.801V42.232H168.007V31.5527H163.494V57.9517H168.007Z" fill="#F1F1F1"/>
<path d="M26.4822 0C21.6588 0 17.1356 1.28461 13.2385 3.53396C10.744 4.96819 8.50826 6.79966 6.61926 8.94067C2.49969 13.5942 0 19.7077 0 26.399V46.1995L6.61926 52.7979V26.399C6.61926 20.5383 9.17588 15.2657 13.2385 11.6389C15.1482 9.93637 17.3943 8.59501 19.8578 7.72829C21.9279 6.9957 24.1585 6.59845 26.477 6.59845C37.4436 6.59845 46.34 15.4617 46.34 26.399C46.34 37.3362 37.4488 46.1995 26.477 46.1995V52.7979C41.1026 52.7979 52.9593 40.9785 52.9593 26.399C52.9593 11.8194 41.1129 0 26.4822 0Z" fill="#F1F1F1"/>
<path d="M33.1014 26.3991C33.1014 30.0414 30.136 32.9976 26.4822 32.9976V39.596C33.7949 39.596 39.7259 33.6837 39.7259 26.394C39.7259 19.1042 33.7949 13.1919 26.4822 13.1919C24.0705 13.1919 21.8088 13.8316 19.8629 14.9615C15.9038 17.2418 13.2437 21.5083 13.2437 26.394V59.3965L19.1953 65.3295L19.8629 65.995V26.3991C19.8629 22.7568 22.8284 19.8007 26.4822 19.8007C30.136 19.8007 33.1014 22.7568 33.1014 26.3991Z" fill="#F1F1F1"/>
</g>
<defs>
<clipPath id="clip0_4550_76">
<rect width="192" height="66" fill="white"/>
</clipPath>
</defs>
</svg>
