<svg width="150" height="38" viewBox="0 0 150 38" fill="none" xmlns="http://www.w3.org/2000/svg">
<path d="M47.2808 28.7623H45.4055V6.3291H55.0164C59.7046 6.3291 62.963 9.16549 62.963 13.2677C62.963 16.5963 60.6423 19.1749 57.173 19.8078L62.963 28.7858H60.7126L55.2274 20.0422L47.2808 20.0656V28.7623ZM47.2808 8.04031V18.3544H54.9226C58.556 18.3544 61.0877 16.2682 61.0877 13.2443C61.0877 10.0563 58.556 8.04031 54.9226 8.04031H47.2808Z" fill="white"/>
<path d="M74.1912 12.0723C79.0669 12.0723 82.5597 15.6822 82.5597 20.6517V21.3315H67.3932C67.6511 25.1056 70.4171 27.7779 74.1677 27.7779C76.9103 27.7779 79.5358 26.0432 80.3562 23.6991L82.0908 23.9804C81.0594 27.0981 77.7777 29.4187 74.238 29.4187C69.2216 29.4187 65.6117 25.7385 65.6117 20.6752C65.5882 15.6822 69.1982 12.0723 74.1912 12.0723ZM80.7313 19.7375C80.3796 16.1979 77.7073 13.7366 74.1208 13.7366C70.4875 13.7366 67.7683 16.1979 67.4167 19.7375H80.7313Z" fill="white"/>
<path d="M87.9981 5.36816V17.0653V28.7625H87.1308H86.2634V17.0653V5.36816H87.1308H87.9981Z" fill="white"/>
<path d="M100.281 12.0723C105.157 12.0723 108.65 15.6822 108.65 20.6517V21.3315H93.4832C93.741 25.1056 96.5071 27.7779 100.258 27.7779C103 27.7779 105.626 26.0432 106.446 23.6991L108.181 23.9804C107.149 27.0981 103.868 29.4187 100.328 29.4187C95.3116 29.4187 91.7017 25.7385 91.7017 20.6752C91.7017 15.6822 95.3116 12.0723 100.281 12.0723ZM106.845 19.7375C106.493 16.1979 103.821 13.7366 100.234 13.7366C96.6009 13.7366 93.8817 16.1979 93.5301 19.7375H106.845Z" fill="white"/>
<path d="M126.629 12.7052H128.387V28.7624H126.629V25.3165C125.387 27.8013 122.855 29.3953 119.761 29.3953C114.932 29.3953 111.463 25.7619 111.463 20.7455C111.463 15.7057 114.932 12.0488 119.761 12.0488C122.855 12.0488 125.387 13.6428 126.629 16.1745V12.7052ZM126.629 20.7455C126.629 16.6902 123.722 13.7132 119.925 13.7132C116.034 13.7132 113.221 16.6433 113.221 20.7455C113.221 24.8008 116.034 27.7779 119.925 27.7779C123.722 27.7779 126.629 24.8008 126.629 20.7455Z" fill="white"/>
<path d="M141.678 29.3953C138.608 29.3953 136.123 27.8247 134.88 25.3634V36.0995H133.099V12.7052H134.834V16.151C136.099 13.6663 138.608 12.0723 141.702 12.0723C146.484 12.0723 150 15.7525 150 20.7689C149.977 25.7619 146.484 29.3953 141.678 29.3953ZM148.218 20.7455C148.218 16.6902 145.382 13.7835 141.514 13.7835C137.623 13.7835 134.81 16.7136 134.81 20.7455C134.81 24.7774 137.623 27.6841 141.514 27.6841C145.406 27.6841 148.218 24.7774 148.218 20.7455Z" fill="white"/>
<path d="M12.2598 37.4357V16.9716L32.7239 5.18066V25.6214L12.2598 37.4357Z" fill="white"/>
<path d="M20.4407 0V6.11815L6.14159 14.3929V28.692L0 32.2316V11.7909L20.4407 0Z" fill="white"/>
</svg>
