<svg width="28" height="28" viewBox="0 0 28 28" fill="none" xmlns="http://www.w3.org/2000/svg">
<path d="M13.4977 19.3545L19.2905 14.0444M19.2905 14.0444L13.4977 8.73438M19.2905 14.0444H1.91211" stroke="white" stroke-width="2" stroke-linecap="round" stroke-linejoin="round"/>
<path d="M3.84375 10.5039V5.17971C3.84374 4.24328 4.24849 3.345 4.96939 2.68152C5.6903 2.01804 6.66861 1.64342 7.69016 1.63968L23.0449 1.58304C23.5522 1.58117 24.0549 1.67095 24.5244 1.84725C24.9938 2.02354 25.4208 2.2829 25.7809 2.61049C26.1409 2.93809 26.427 3.32751 26.6229 3.7565C26.8187 4.18549 26.9204 4.64565 26.9222 5.11068L26.9994 22.8622C27.0015 23.3271 26.9036 23.7878 26.7114 24.218C26.5192 24.6482 26.2364 25.0395 25.8793 25.3695C25.5221 25.6996 25.0975 25.9619 24.6297 26.1415C24.162 26.3211 23.6602 26.4145 23.153 26.4164H7.70561C6.68138 26.4164 5.6991 26.0434 4.97486 25.3795C4.25062 24.7156 3.84375 23.8152 3.84375 22.8763V17.584" stroke="white" stroke-width="2" stroke-linecap="round" stroke-linejoin="round"/>
</svg>
