<svg width="46" height="61" viewBox="0 0 46 61" fill="none" xmlns="http://www.w3.org/2000/svg">
<path d="M19.9094 31.8102L23 29.3689L26.0188 31.8102C26.5938 32.254 27.1687 32.2669 27.7437 31.8486C28.3187 31.4304 28.5104 30.8751 28.3188 30.1827L27.0969 26.1879L30.5469 23.3768C31.074 22.9329 31.2302 22.3776 31.0155 21.7108C30.8008 21.044 30.3571 20.7116 29.6844 20.7136H25.5875L24.3656 16.7928C24.126 16.1024 23.6708 15.7571 23 15.7571C22.3292 15.7571 21.874 16.1024 21.6344 16.7928L20.4125 20.7136H16.3156C15.5969 20.7136 15.1292 21.047 14.9126 21.7138C14.696 22.3806 14.8523 22.9349 15.3813 23.3768L18.8313 26.1879L17.6094 30.1827C17.3698 30.8731 17.55 31.4284 18.1499 31.8486C18.7498 32.2688 19.3363 32.256 19.9094 31.8102ZM9.55937 60.8092C8.60104 61.1544 7.72608 61.0311 6.9345 60.4393C6.14292 59.8475 5.74808 59.0584 5.75 58.0721V39.2819C3.92917 37.2105 2.51563 34.8432 1.50938 32.1801C0.503125 29.5169 0 26.6811 0 23.6727C0 17.0641 2.22812 11.4665 6.68437 6.87987C11.1406 2.29329 16.5792 0 23 0C29.4208 0 34.8594 2.29329 39.3156 6.87987C43.7719 11.4665 46 17.0641 46 23.6727C46 26.6811 45.4969 29.5169 44.4906 32.1801C43.4844 34.8432 42.0708 37.2105 40.25 39.2819V58.0721C40.25 59.0584 39.8542 59.8475 39.0626 60.4393C38.271 61.0311 37.397 61.1544 36.4406 60.8092L23 56.2226L9.55937 60.8092ZM23 41.4272C27.7917 41.4272 31.8646 39.7011 35.2188 36.2488C38.5729 32.7965 40.25 28.6045 40.25 23.6727C40.25 18.7409 38.5729 14.5488 35.2188 11.0966C31.8646 7.64431 27.7917 5.91817 23 5.91817C18.2083 5.91817 14.1354 7.64431 10.7812 11.0966C7.42708 14.5488 5.75 18.7409 5.75 23.6727C5.75 28.6045 7.42708 32.7965 10.7812 36.2488C14.1354 39.7011 18.2083 41.4272 23 41.4272Z" fill="url(#paint0_linear_1273_943)"/>
<defs>
<linearGradient id="paint0_linear_1273_943" x1="14.342" y1="61" x2="14.3429" y2="3.28255" gradientUnits="userSpaceOnUse">
<stop stop-color="#00C5D3"/>
<stop offset="1" stop-color="#42EECF"/>
</linearGradient>
</defs>
</svg>
