<svg width="85" height="85" viewBox="0 0 85 85" fill="none" xmlns="http://www.w3.org/2000/svg">
<g filter="url(#filter0_i_1273_822)">
<rect width="85" height="85" rx="15" fill="url(#paint0_linear_1273_822)" fill-opacity="0.25"/>
</g>
<rect x="0.5" y="0.5" width="84" height="84" rx="14.5" stroke="url(#paint1_linear_1273_822)"/>
<path fill-rule="evenodd" clip-rule="evenodd" d="M38.1881 23H47.8119C56.8837 23 61.4196 23 64.2395 25.8567C66.1835 27.8214 66.7859 30.6123 66.9754 35.1607C67.0114 36.0626 67.0306 36.5159 66.865 36.8158C66.6971 37.1156 66.0371 37.4934 64.7123 38.2441C63.9661 38.6667 63.3445 39.2839 62.9118 40.0321C62.479 40.7803 62.2509 41.6323 62.2509 42.5C62.2509 43.3677 62.479 44.2197 62.9118 44.9679C63.3445 45.7161 63.9661 46.3333 64.7123 46.7559C66.0371 47.5091 66.6995 47.8844 66.865 48.1842C67.0306 48.4841 67.0114 48.935 66.973 49.8369C66.7859 54.3877 66.1811 57.1786 64.2395 59.1432C61.422 62 56.8861 62 47.8119 62H38.1881C29.1163 62 24.5804 62 21.7605 59.1432C19.8165 57.1786 19.2141 54.3877 19.0246 49.8393C18.9886 48.9374 18.9694 48.4841 19.135 48.1842C19.3029 47.8844 19.9629 47.5091 21.2877 46.7559C22.0339 46.3333 22.6555 45.7161 23.0882 44.9679C23.521 44.2197 23.7491 43.3677 23.7491 42.5C23.7491 41.6323 23.521 40.7803 23.0882 40.0321C22.6555 39.2839 22.0339 38.6667 21.2877 38.2441C19.9629 37.4934 19.3005 37.1156 19.135 36.8158C18.9694 36.5159 18.9886 36.065 19.027 35.1607C19.2141 30.6123 19.8189 27.8238 21.7605 25.8567C24.578 23 29.1139 23 38.1881 23ZM51.515 33.8956C51.6822 34.0652 51.8148 34.2666 51.9053 34.4882C51.9958 34.7099 52.0424 34.9475 52.0424 35.1875C52.0424 35.4275 51.9958 35.6651 51.9053 35.8868C51.8148 36.1084 51.6822 36.3098 51.515 36.4794L37.0793 51.1044C36.7406 51.4472 36.2819 51.6396 35.8038 51.6396C35.3256 51.6396 34.8669 51.4472 34.5282 51.1044C34.361 50.9348 34.2284 50.7334 34.1379 50.5118C34.0474 50.2901 34.0008 50.0525 34.0008 49.8125C34.0008 49.5725 34.0474 49.3349 34.1379 49.1132C34.2284 48.8916 34.361 48.6902 34.5282 48.5206L48.9615 33.8956C49.3003 33.5521 49.7595 33.3591 50.2382 33.3591C50.717 33.3591 51.1762 33.5521 51.515 33.8956ZM49.0359 51.0312C49.3601 51.046 49.6838 50.9938 49.9876 50.878C50.2914 50.7621 50.569 50.585 50.8035 50.3572C51.0381 50.1294 51.2247 49.8557 51.3523 49.5526C51.4798 49.2495 51.5456 48.9233 51.5456 48.5938C51.5456 48.2642 51.4798 47.938 51.3523 47.6349C51.2247 47.3318 51.0381 47.0581 50.8035 46.8303C50.569 46.6025 50.2914 46.4254 49.9876 46.3095C49.6838 46.1937 49.3601 46.1415 49.0359 46.1562C47.7063 46.1562 46.6287 47.2483 46.6287 48.5938C46.6287 49.9392 47.7087 51.0312 49.0359 51.0312ZM37.0049 38.8438C38.3345 38.8438 39.4121 37.7517 39.4121 36.4062C39.4121 35.0608 38.3345 33.9688 37.0049 33.9688C36.6807 33.954 36.357 34.0062 36.0532 34.122C35.7493 34.2379 35.4718 34.415 35.2373 34.6428C35.0027 34.8706 34.816 35.1443 34.6885 35.4474C34.561 35.7505 34.4952 36.0767 34.4952 36.4062C34.4952 36.7358 34.561 37.062 34.6885 37.3651C34.816 37.6682 35.0027 37.9419 35.2373 38.1697C35.4718 38.3975 35.7493 38.5746 36.0532 38.6905C36.357 38.8063 36.6807 38.8585 37.0049 38.8438Z" fill="url(#paint2_linear_1273_822)"/>
<defs>
<filter id="filter0_i_1273_822" x="0" y="0" width="85" height="85" filterUnits="userSpaceOnUse" color-interpolation-filters="sRGB">
<feFlood flood-opacity="0" result="BackgroundImageFix"/>
<feBlend mode="normal" in="SourceGraphic" in2="BackgroundImageFix" result="shape"/>
<feColorMatrix in="SourceAlpha" type="matrix" values="0 0 0 0 0 0 0 0 0 0 0 0 0 0 0 0 0 0 127 0" result="hardAlpha"/>
<feOffset/>
<feGaussianBlur stdDeviation="5"/>
<feComposite in2="hardAlpha" operator="arithmetic" k2="-1" k3="1"/>
<feColorMatrix type="matrix" values="0 0 0 0 0.754167 0 0 0 0 1 0 0 0 0 0.95575 0 0 0 0.4 0"/>
<feBlend mode="normal" in2="shape" result="effect1_innerShadow_1273_822"/>
</filter>
<linearGradient id="paint0_linear_1273_822" x1="85" y1="85" x2="22.6954" y2="-0.627742" gradientUnits="userSpaceOnUse">
<stop stop-color="#2D7EC8"/>
<stop offset="1" stop-color="#B5FFD3"/>
</linearGradient>
<linearGradient id="paint1_linear_1273_822" x1="0" y1="0" x2="84.9995" y2="85.0005" gradientUnits="userSpaceOnUse">
<stop stop-color="#00C5D3"/>
<stop offset="0.495235" stop-color="#96E0DA" stop-opacity="0"/>
<stop offset="1" stop-color="#00C5D3"/>
</linearGradient>
<linearGradient id="paint2_linear_1273_822" x1="33.9656" y1="62" x2="33.9659" y2="25.0987" gradientUnits="userSpaceOnUse">
<stop stop-color="#00C5D3"/>
<stop offset="1" stop-color="#42EECF"/>
</linearGradient>
</defs>
</svg>
