<svg width="55" height="54" viewBox="0 0 55 54" fill="none" xmlns="http://www.w3.org/2000/svg">
<path d="M47.7298 12.9946H5.41211V11.3005L42.6517 8.31882V11.3005H47.7298V6.21811C47.7298 2.49102 44.7134 -0.124709 41.0301 0.400471L7.03711 5.25923C3.35039 5.7878 0.333984 9.26754 0.333984 12.9946V46.8772C0.333984 48.6744 1.04734 50.398 2.31712 51.6689C3.58689 52.9397 5.30908 53.6537 7.10482 53.6537H47.7298C49.5256 53.6537 51.2477 52.9397 52.5175 51.6689C53.7873 50.398 54.5007 48.6744 54.5007 46.8772V19.7711C54.5007 17.9739 53.7873 16.2503 52.5175 14.9794C51.2477 13.7086 49.5256 12.9946 47.7298 12.9946ZM42.6517 36.7327C41.9846 36.7325 41.3241 36.6008 40.7079 36.3451C40.0916 36.0894 39.5318 35.7147 39.0602 35.2424C38.5887 34.7702 38.2147 34.2096 37.9596 33.5927C37.7045 32.9758 37.5733 32.3146 37.5736 31.647C37.5738 30.9793 37.7054 30.3182 37.9609 29.7015C38.2164 29.0848 38.5907 28.5244 39.0626 28.0525C39.5345 27.5805 40.0946 27.2062 40.711 26.9509C41.3274 26.6956 41.988 26.5644 42.6551 26.5646C44.0023 26.565 45.2942 27.1011 46.2466 28.0549C47.1989 29.0086 47.7337 30.302 47.7332 31.6504C47.7328 32.9987 47.1971 34.2917 46.2442 35.2448C45.2912 36.198 43.9989 36.7332 42.6517 36.7327Z" fill="url(#paint0_linear_1273_874)"/>
<defs>
<linearGradient id="paint0_linear_1273_874" x1="17.2222" y1="53.6537" x2="17.2228" y2="3.20266" gradientUnits="userSpaceOnUse">
<stop stop-color="#00C5D3"/>
<stop offset="1" stop-color="#42EECF"/>
</linearGradient>
</defs>
</svg>
